/* XPM */
static char * terrain_xpm[] = {
"32 32 983 2",
"  	c #789C41",
". 	c #759945",
"+ 	c #5D8836",
"@ 	c #558431",
"# 	c #578639",
"$ 	c #49772F",
"% 	c #5E8E37",
"& 	c #628E35",
"* 	c #68943C",
"= 	c #63933C",
"- 	c #608A3D",
"; 	c #6E9747",
"> 	c #59893B",
", 	c #5E8B3C",
"' 	c #557D35",
") 	c #5E8735",
"! 	c #65873E",
"~ 	c #5D8432",
"{ 	c #67913E",
"] 	c #5E883A",
"^ 	c #6E953F",
"/ 	c #66933B",
"( 	c #5A8A3E",
"_ 	c #5E8839",
": 	c #68913C",
"< 	c #608E38",
"[ 	c #50782D",
"} 	c #5E8638",
"| 	c #64923D",
"1 	c #678E3C",
"2 	c #668C38",
"3 	c #6E9737",
"4 	c #6A9234",
"5 	c #6E9A42",
"6 	c #537B2C",
"7 	c #638D40",
"8 	c #669245",
"9 	c #638E3C",
"0 	c #547D32",
"a 	c #54782F",
"b 	c #698E3D",
"c 	c #72A445",
"d 	c #679D3E",
"e 	c #5D8F38",
"f 	c #5B8F3D",
"g 	c #558334",
"h 	c #5D8137",
"i 	c #5E7F39",
"j 	c #5B7733",
"k 	c #60833B",
"l 	c #608436",
"m 	c #709D45",
"n 	c #749849",
"o 	c #668E3C",
"p 	c #68983A",
"q 	c #5F8C3B",
"r 	c #61883E",
"s 	c #648D3E",
"t 	c #5F8C3F",
"u 	c #648C41",
"v 	c #6B9345",
"w 	c #6C9A3F",
"x 	c #6A9040",
"y 	c #70923C",
"z 	c #598837",
"A 	c #5E8B3A",
"B 	c #5B8B3B",
"C 	c #5C883F",
"D 	c #54863A",
"E 	c #4A7731",
"F 	c #537A3B",
"G 	c #648C3F",
"H 	c #6A9242",
"I 	c #5C8B38",
"J 	c #61923D",
"K 	c #518234",
"L 	c #598639",
"M 	c #4F7932",
"N 	c #57803A",
"O 	c #658444",
"P 	c #64863D",
"Q 	c #5E843D",
"R 	c #5D8A3E",
"S 	c #689145",
"T 	c #729B4D",
"U 	c #608938",
"V 	c #688D42",
"W 	c #61813D",
"X 	c #577831",
"Y 	c #6DA04B",
"Z 	c #729E4C",
"` 	c #648E40",
" .	c #59882F",
"..	c #679242",
"+.	c #678C3F",
"@.	c #4B7536",
"#.	c #5F803C",
"$.	c #6B8C40",
"%.	c #769E49",
"&.	c #6F9946",
"*.	c #61923A",
"=.	c #608C3D",
"-.	c #678F45",
";.	c #5D8339",
">.	c #628C3D",
",.	c #669843",
"'.	c #5C8B3F",
").	c #5E893F",
"!.	c #517D31",
"~.	c #578333",
"{.	c #5B8335",
"].	c #63873A",
"^.	c #628638",
"/.	c #5D863D",
"(.	c #567D37",
"_.	c #5D893F",
":.	c #5B863C",
"<.	c #6A8C44",
"[.	c #698843",
"}.	c #618D43",
"|.	c #63913C",
"1.	c #628B3D",
"2.	c #60893E",
"3.	c #4E7832",
"4.	c #5A8439",
"5.	c #5E8440",
"6.	c #558034",
"7.	c #5E8C40",
"8.	c #568434",
"9.	c #5C853B",
"0.	c #689547",
"a.	c #5E893C",
"b.	c #5B883A",
"c.	c #6E954D",
"d.	c #577F37",
"e.	c #638A3E",
"f.	c #5D8539",
"g.	c #5A8A38",
"h.	c #5F8A3F",
"i.	c #608940",
"j.	c #618A3B",
"k.	c #5F8A3A",
"l.	c #618C36",
"m.	c #6C9041",
"n.	c #6E9649",
"o.	c #5F8A41",
"p.	c #5E8A3B",
"q.	c #65913F",
"r.	c #66913F",
"s.	c #6A8F40",
"t.	c #5E8533",
"u.	c #659535",
"v.	c #5B8C38",
"w.	c #598835",
"x.	c #639136",
"y.	c #547E31",
"z.	c #558136",
"A.	c #698B41",
"B.	c #4E862D",
"C.	c #589730",
"D.	c #5F9632",
"E.	c #65903A",
"F.	c #5C8C42",
"G.	c #628F45",
"H.	c #659342",
"I.	c #5D873C",
"J.	c #5A803A",
"K.	c #63863F",
"L.	c #5E883C",
"M.	c #699340",
"N.	c #63883F",
"O.	c #5C8938",
"P.	c #608A39",
"Q.	c #4D7731",
"R.	c #658C3F",
"S.	c #669041",
"T.	c #648E42",
"U.	c #5B823C",
"V.	c #66943D",
"W.	c #658D3C",
"X.	c #739A48",
"Y.	c #6B933C",
"Z.	c #578431",
"`.	c #578C26",
" +	c #54832E",
".+	c #609531",
"++	c #5C9129",
"@+	c #699638",
"#+	c #608A37",
"$+	c #55842C",
"%+	c #517F33",
"&+	c #4C7F2B",
"*+	c #5B8C34",
"=+	c #608934",
"-+	c #5A8B3B",
";+	c #5F943B",
">+	c #639740",
",+	c #63953F",
"'+	c #5E8637",
")+	c #6B9141",
"!+	c #628A44",
"~+	c #648A40",
"{+	c #6A8E4F",
"]+	c #57853F",
"^+	c #598936",
"/+	c #5B8E38",
"(+	c #5F913F",
"_+	c #5F8F3D",
":+	c #64963F",
"<+	c #73A344",
"[+	c #619938",
"}+	c #568D3A",
"|+	c #689D3A",
"1+	c #6D9739",
"2+	c #588530",
"3+	c #43712B",
"4+	c #517D37",
"5+	c #50832D",
"6+	c #51822B",
"7+	c #5D8E35",
"8+	c #5C8931",
"9+	c #598A37",
"0+	c #548031",
"a+	c #54862B",
"b+	c #598D34",
"c+	c #5E8D39",
"d+	c #51842E",
"e+	c #598B40",
"f+	c #578D3A",
"g+	c #518235",
"h+	c #4B7B35",
"i+	c #659144",
"j+	c #72964C",
"k+	c #6F9E52",
"l+	c #56813B",
"m+	c #618F44",
"n+	c #588D32",
"o+	c #5B9635",
"p+	c #62993E",
"q+	c #669B42",
"r+	c #74A243",
"s+	c #719D43",
"t+	c #61903A",
"u+	c #508235",
"v+	c #54882C",
"w+	c #578337",
"x+	c #547930",
"y+	c #4B7A2B",
"z+	c #51852D",
"A+	c #548B37",
"B+	c #5F883C",
"C+	c #538631",
"D+	c #598E36",
"E+	c #598D3A",
"F+	c #5D893C",
"G+	c #4E7E31",
"H+	c #548433",
"I+	c #5E8834",
"J+	c #497630",
"K+	c #4F7B3C",
"L+	c #619244",
"M+	c #5C8C40",
"N+	c #69964B",
"O+	c #658844",
"P+	c #638E46",
"Q+	c #58873B",
"R+	c #4A8031",
"S+	c #488526",
"T+	c #508631",
"U+	c #649843",
"V+	c #639439",
"W+	c #689840",
"X+	c #649042",
"Y+	c #5B853A",
"Z+	c #588432",
"`+	c #578235",
" @	c #5D833A",
".@	c #528134",
"+@	c #5B8833",
"@@	c #63943B",
"#@	c #668A3C",
"$@	c #659441",
"%@	c #548334",
"&@	c #5C8B3C",
"*@	c #679040",
"=@	c #659340",
"-@	c #59863B",
";@	c #5C8639",
">@	c #4D7832",
",@	c #57863B",
"'@	c #619548",
")@	c #588B3F",
"!@	c #4C7833",
"~@	c #54813A",
"{@	c #54803F",
"]@	c #5B8646",
"^@	c #618C46",
"/@	c #5D8C40",
"(@	c #4B7B34",
"_@	c #497432",
":@	c #4B7533",
"<@	c #5A883C",
"[@	c #639745",
"}@	c #699545",
"|@	c #5C8E38",
"1@	c #60903B",
"2@	c #639236",
"3@	c #5A8937",
"4@	c #517E37",
"5@	c #558632",
"6@	c #46762E",
"7@	c #4F8039",
"8@	c #699E47",
"9@	c #568D37",
"0@	c #578738",
"a@	c #6F9F41",
"b@	c #6D9445",
"c@	c #6C9F44",
"d@	c #649344",
"e@	c #5B8C42",
"f@	c #528039",
"g@	c #59813A",
"h@	c #467630",
"i@	c #437232",
"j@	c #5A8941",
"k@	c #6B9B4E",
"l@	c #62914B",
"m@	c #65964A",
"n@	c #568635",
"o@	c #59873B",
"p@	c #4B7B2C",
"q@	c #5C8836",
"r@	c #658B42",
"s@	c #5D8641",
"t@	c #5A893F",
"u@	c #59893C",
"v@	c #5D8C3E",
"w@	c #5B863B",
"x@	c #628F3A",
"y@	c #64903F",
"z@	c #518133",
"A@	c #4D7E34",
"B@	c #4B8533",
"C@	c #57913B",
"D@	c #669D42",
"E@	c #638F41",
"F@	c #5F863E",
"G@	c #658E44",
"H@	c #67933C",
"I@	c #6F9B48",
"J@	c #638E4A",
"K@	c #557F3A",
"L@	c #518434",
"M@	c #588A35",
"N@	c #578534",
"O@	c #5A8B3E",
"P@	c #699447",
"Q@	c #648E44",
"R@	c #628C3F",
"S@	c #558239",
"T@	c #567E39",
"U@	c #5F883E",
"V@	c #6D9649",
"W@	c #5E883F",
"X@	c #527D38",
"Y@	c #679149",
"Z@	c #6B9849",
"`@	c #65903F",
" #	c #5F8A3C",
".#	c #6E9E46",
"+#	c #6F9D4C",
"@#	c #40692C",
"##	c #497B33",
"$#	c #467633",
"%#	c #528430",
"&#	c #62913B",
"*#	c #6D9744",
"=#	c #5E8C38",
"-#	c #62903B",
";#	c #618938",
">#	c #608E3F",
",#	c #629345",
"'#	c #639448",
")#	c #568A3D",
"!#	c #56853D",
"~#	c #4D7D31",
"{#	c #598B39",
"]#	c #649548",
"^#	c #5F9242",
"/#	c #70A456",
"(#	c #5C8B41",
"_#	c #659248",
":#	c #578E40",
"<#	c #608D45",
"[#	c #6B954A",
"}#	c #5C8F3E",
"|#	c #6B9C50",
"1#	c #69954D",
"2#	c #638F42",
"3#	c #618D40",
"4#	c #659145",
"5#	c #6E9C46",
"6#	c #558939",
"7#	c #5B8A3E",
"8#	c #60923A",
"9#	c #60913F",
"0#	c #507F34",
"a#	c #557C2F",
"b#	c #60893A",
"c#	c #588A44",
"d#	c #609049",
"e#	c #5C8438",
"f#	c #669345",
"g#	c #63923B",
"h#	c #5C883C",
"i#	c #598B3E",
"j#	c #609046",
"k#	c #538639",
"l#	c #598D3B",
"m#	c #61913F",
"n#	c #578641",
"o#	c #66984A",
"p#	c #64974B",
"q#	c #6A974B",
"r#	c #609341",
"s#	c #659546",
"t#	c #77A554",
"u#	c #689846",
"v#	c #74A44B",
"w#	c #608C3E",
"x#	c #5F8D41",
"y#	c #528536",
"z#	c #5D8D46",
"A#	c #58813F",
"B#	c #568B39",
"C#	c #62983E",
"D#	c #588D3A",
"E#	c #558E3E",
"F#	c #497E33",
"G#	c #4F7B32",
"H#	c #548A39",
"I#	c #659743",
"J#	c #639040",
"K#	c #64893E",
"L#	c #638F45",
"M#	c #598A42",
"N#	c #4C7D37",
"O#	c #5D8B44",
"P#	c #5E9347",
"Q#	c #70A14A",
"R#	c #6C9D40",
"S#	c #6A9641",
"T#	c #619245",
"U#	c #6A9D47",
"V#	c #649648",
"W#	c #699C4E",
"X#	c #639544",
"Y#	c #689749",
"Z#	c #56863F",
"`#	c #52813B",
" $	c #5D8943",
".$	c #5E8B41",
"+$	c #497A32",
"@$	c #65944C",
"#$	c #507838",
"$$	c #4C7E30",
"%$	c #528834",
"&$	c #609441",
"*$	c #538B3A",
"=$	c #588937",
"-$	c #628D3E",
";$	c #639648",
">$	c #659545",
",$	c #669244",
"'$	c #69903D",
")$	c #63913F",
"!$	c #689C4D",
"~$	c #5A9045",
"{$	c #64954E",
"]$	c #679C4A",
"^$	c #6B9347",
"/$	c #608A3F",
"($	c #769F4E",
"_$	c #669348",
":$	c #699B4C",
"<$	c #5A8F44",
"[$	c #588942",
"}$	c #55843F",
"|$	c #5F9045",
"1$	c #5A8940",
"2$	c #5B8F44",
"3$	c #65994D",
"4$	c #558741",
"5$	c #5B8942",
"6$	c #59853C",
"7$	c #648D45",
"8$	c #698D46",
"9$	c #528339",
"0$	c #55893E",
"a$	c #56813D",
"b$	c #5D913F",
"c$	c #629744",
"d$	c #6C9B44",
"e$	c #57863A",
"f$	c #629042",
"g$	c #59843D",
"h$	c #4D7E38",
"i$	c #578B3D",
"j$	c #51853A",
"k$	c #5B923D",
"l$	c #5D933E",
"m$	c #5B933E",
"n$	c #5A9038",
"o$	c #649243",
"p$	c #5D8F4B",
"q$	c #5E9741",
"r$	c #5B903B",
"s$	c #5B943A",
"t$	c #59943A",
"u$	c #659B43",
"v$	c #528A2F",
"w$	c #508438",
"x$	c #5C8D39",
"y$	c #649038",
"z$	c #5F903B",
"A$	c #609840",
"B$	c #5E9440",
"C$	c #5E9243",
"D$	c #588C3E",
"E$	c #56893B",
"F$	c #608E3A",
"G$	c #558434",
"H$	c #4F8334",
"I$	c #5D9335",
"J$	c #62953C",
"K$	c #4C802F",
"L$	c #589440",
"M$	c #518A40",
"N$	c #5C8D42",
"O$	c #568A33",
"P$	c #5C903A",
"Q$	c #4E8535",
"R$	c #467A30",
"S$	c #5B893F",
"T$	c #518340",
"U$	c #568C34",
"V$	c #558C33",
"W$	c #4F8134",
"X$	c #518633",
"Y$	c #508934",
"Z$	c #558C34",
"`$	c #59913A",
" %	c #508333",
".%	c #568533",
"+%	c #65943B",
"@%	c #5F8A35",
"#%	c #5A8836",
"$%	c #5D8A3D",
"%%	c #659B48",
"&%	c #629442",
"*%	c #659544",
"=%	c #5F8A39",
"-%	c #507E33",
";%	c #538037",
">%	c #578638",
",%	c #568D34",
"'%	c #4C832D",
")%	c #5E963E",
"!%	c #5D923E",
"~%	c #629145",
"{%	c #528032",
"]%	c #578A34",
"^%	c #4D7E33",
"/%	c #508239",
"(%	c #568733",
"_%	c #669A4C",
":%	c #5B9143",
"<%	c #5C933F",
"[%	c #558536",
"}%	c #4D7D34",
"|%	c #497836",
"1%	c #517D35",
"2%	c #4F7633",
"3%	c #547A38",
"4%	c #618C38",
"5%	c #518034",
"6%	c #517F35",
"7%	c #648F3C",
"8%	c #679A45",
"9%	c #66913E",
"0%	c #649B44",
"a%	c #62983D",
"b%	c #629438",
"c%	c #50812F",
"d%	c #4E7C30",
"e%	c #568B35",
"f%	c #588D36",
"g%	c #5B8E3E",
"h%	c #558638",
"i%	c #5E903C",
"j%	c #659744",
"k%	c #60903D",
"l%	c #588C37",
"m%	c #558533",
"n%	c #538834",
"o%	c #598C35",
"p%	c #5E8F3D",
"q%	c #598736",
"r%	c #4E7E33",
"s%	c #5D8A38",
"t%	c #6D944B",
"u%	c #5C7D38",
"v%	c #698D47",
"w%	c #5D873B",
"x%	c #608C3C",
"y%	c #507D33",
"z%	c #5C8C3A",
"A%	c #5F8B40",
"B%	c #618A42",
"C%	c #5F8D3C",
"D%	c #5C9442",
"E%	c #50853A",
"F%	c #4D8132",
"G%	c #518635",
"H%	c #4A7E32",
"I%	c #558631",
"J%	c #6C9C44",
"K%	c #71A345",
"L%	c #6C9E44",
"M%	c #659B37",
"N%	c #598C38",
"O%	c #57883D",
"P%	c #568438",
"Q%	c #518232",
"R%	c #5B8C36",
"S%	c #5A8033",
"T%	c #5D8C3C",
"U%	c #628A3C",
"V%	c #61893A",
"W%	c #689346",
"X%	c #5B853E",
"Y%	c #618A3E",
"Z%	c #608D41",
"`%	c #608B40",
" &	c #558235",
".&	c #5F8D3B",
"+&	c #5F903E",
"@&	c #608E42",
"#&	c #5B8E44",
"$&	c #639840",
"%&	c #508034",
"&&	c #4C7B30",
"*&	c #4F8433",
"=&	c #497428",
"-&	c #5C8D38",
";&	c #609240",
">&	c #639143",
",&	c #629446",
"'&	c #517E35",
")&	c #53843A",
"!&	c #5C8D43",
"~&	c #5B8C40",
"{&	c #568938",
"]&	c #5D8E39",
"^&	c #59893A",
"/&	c #6E8E41",
"(&	c #5F8B3F",
"_&	c #5C8538",
":&	c #5D883D",
"<&	c #4E7A34",
"[&	c #557F33",
"}&	c #5B843A",
"|&	c #679343",
"1&	c #628939",
"2&	c #699347",
"3&	c #5E8636",
"4&	c #699449",
"5&	c #669945",
"6&	c #5D913C",
"7&	c #649242",
"8&	c #669440",
"9&	c #5F8C3E",
"0&	c #558733",
"a&	c #4D8031",
"b&	c #3B642C",
"c&	c #4F7A34",
"d&	c #4E782D",
"e&	c #5F8E40",
"f&	c #598C40",
"g&	c #619345",
"h&	c #57813A",
"i&	c #56863E",
"j&	c #689343",
"k&	c #6A9243",
"l&	c #63883A",
"m&	c #548238",
"n&	c #648A3F",
"o&	c #577F36",
"p&	c #658940",
"q&	c #608D44",
"r&	c #4F7533",
"s&	c #4F7336",
"t&	c #496C30",
"u&	c #5C8240",
"v&	c #5A843D",
"w&	c #659141",
"x&	c #4B7A36",
"y&	c #507C36",
"z&	c #679446",
"A&	c #638B45",
"B&	c #608641",
"C&	c #5A8639",
"D&	c #4E7635",
"E&	c #4B7937",
"F&	c #4F7C34",
"G&	c #537E39",
"H&	c #608D43",
"I&	c #669641",
"J&	c #659B4A",
"K&	c #609043",
"L&	c #608D40",
"M&	c #54823E",
"N&	c #4F7F35",
"O&	c #57843B",
"P&	c #5C8540",
"Q&	c #5F8642",
"R&	c #658F45",
"S&	c #5A8A3C",
"T&	c #608F44",
"U&	c #5C8B40",
"V&	c #4E7833",
"W&	c #537B3C",
"X&	c #577F3C",
"Y&	c #609541",
"Z&	c #678F49",
"`&	c #58843B",
" *	c #628D43",
".*	c #6D9341",
"+*	c #6C964B",
"@*	c #76964C",
"#*	c #60833E",
"$*	c #567D3C",
"%*	c #47722C",
"&*	c #456E2E",
"**	c #57833D",
"=*	c #4E7638",
"-*	c #5C833A",
";*	c #719949",
">*	c #64974A",
",*	c #639846",
"'*	c #57873D",
")*	c #5D8843",
"!*	c #4B762F",
"~*	c #508035",
"{*	c #608E3E",
"]*	c #5F8841",
"^*	c #648F3D",
"/*	c #5A8E3C",
"(*	c #598D41",
"_*	c #639442",
":*	c #6A9A46",
"<*	c #5B8A3C",
"[*	c #497533",
"}*	c #548141",
"|*	c #749F51",
"1*	c #75994D",
"2*	c #6D9A45",
"3*	c #6A9846",
"4*	c #688F41",
"5*	c #6C9849",
"6*	c #668C41",
"7*	c #638E45",
"8*	c #5A863A",
"9*	c #55873C",
"0*	c #528335",
"a*	c #68933F",
"b*	c #71964B",
"c*	c #548335",
"d*	c #5F9140",
"e*	c #638F40",
"f*	c #588033",
"g*	c #608A3E",
"h*	c #638D41",
"i*	c #679145",
"j*	c #639144",
"k*	c #669A44",
"l*	c #5F923F",
"m*	c #629641",
"n*	c #60973F",
"o*	c #62933E",
"p*	c #54803B",
"q*	c #5C8C3C",
"r*	c #6E9C4B",
"s*	c #679442",
"t*	c #729B44",
"u*	c #759F48",
"v*	c #6B9741",
"w*	c #527E34",
"x*	c #71984C",
"y*	c #649346",
"z*	c #58843C",
"A*	c #5F8944",
"B*	c #528336",
"C*	c #699245",
"D*	c #749A4B",
"E*	c #5F8E3B",
"F*	c #638C3B",
"G*	c #547B36",
"H*	c #4C7831",
"I*	c #508833",
"J*	c #4C7F2E",
"K*	c #53883C",
"L*	c #558237",
"M*	c #588639",
"N*	c #6A9845",
"O*	c #6C9C42",
"P*	c #5D8D39",
"Q*	c #5C913D",
"R*	c #5D903E",
"S*	c #659749",
"T*	c #5D8D3F",
"U*	c #629242",
"V*	c #66973F",
"W*	c #5A8B37",
"X*	c #6E9D48",
"Y*	c #58813B",
"Z*	c #669443",
"`*	c #6A9546",
" =	c #5A8538",
".=	c #5E8E3C",
"+=	c #659B42",
"@=	c #619341",
"#=	c #578536",
"$=	c #517939",
"%=	c #507E2F",
"&=	c #537F30",
"*=	c #64903B",
"==	c #558336",
"-=	c #487624",
";=	c #497C2D",
">=	c #437C27",
",=	c #4A8027",
"'=	c #50862F",
")=	c #5C8839",
"!=	c #4E792F",
"~=	c #5B913C",
"{=	c #538832",
"]=	c #4E812E",
"^=	c #5A8540",
"/=	c #56803D",
"(=	c #648A41",
"_=	c #668D42",
":=	c #7AA14E",
"<=	c #60943D",
"[=	c #639440",
"}=	c #4A7A36",
"|=	c #4A8038",
"1=	c #5D8E3C",
"2=	c #6AA145",
"3=	c #5F9937",
"4=	c #5F963E",
"5=	c #5E9A38",
"6=	c #68983D",
"7=	c #5F8C37",
"8=	c #57872D",
"9=	c #588631",
"0=	c #619636",
"a=	c #50892F",
"b=	c #45772B",
"c=	c #426B2A",
"d=	c #477431",
"e=	c #48782A",
"f=	c #527D31",
"g=	c #598D42",
"h=	c #66923D",
"i=	c #5C8D40",
"j=	c #518440",
"k=	c #42732B",
"l=	c #517E38",
"m=	c #5C883E",
"n=	c #59843E",
"o=	c #59863C",
"p=	c #619242",
"q=	c #668F40",
"r=	c #62983F",
"s=	c #588C36",
"t=	c #5C8E3D",
"u=	c #548439",
"v=	c #76A44A",
"w=	c #70A03D",
"x=	c #598D31",
"y=	c #568834",
"z=	c #5E9134",
"A=	c #4F7D2A",
"B=	c #527F34",
"C=	c #5D8335",
"D=	c #597F31",
"E=	c #5F8B37",
"F=	c #48772C",
"G=	c #547D38",
"H=	c #4C742C",
"I=	c #527F33",
"J=	c #5E8F3C",
"K=	c #638E41",
"L=	c #6E9542",
"M=	c #6B9240",
"N=	c #598C36",
"O=	c #497E31",
"P=	c #47782E",
"Q=	c #578532",
"R=	c #52822D",
"S=	c #689943",
"T=	c #689341",
"U=	c #6B9344",
"V=	c #679745",
"W=	c #649244",
"X=	c #638C3C",
"Y=	c #5E8739",
"Z=	c #7AA446",
"`=	c #6A9143",
" -	c #62903D",
".-	c #4E7C29",
"+-	c #5D8B3A",
"@-	c #5D8937",
"#-	c #64873C",
"$-	c #658A3A",
"%-	c #5E8234",
"&-	c #57873B",
"*-	c #4E7D31",
"=-	c #608F38",
"--	c #699841",
";-	c #6C9546",
">-	c #6D9546",
",-	c #719444",
"'-	c #688E40",
")-	c #548231",
"!-	c #598534",
"~-	c #5F8C34",
"{-	c #628E3A",
"]-	c #5F8936",
"^-	c #598338",
"/-	c #567E3C",
"(-	c #5E863C",
"_-	c #69973F",
":-	c #668E3B",
"<-	c #61963C",
"[-	c #729C3F",
"}-	c #6B963E",
"|-	c #659039",
"1-	c #618D33",
"2-	c #57832E",
"3-	c #527B33",
"4-	c #61883A",
"5-	c #6A9140",
"6-	c #628B42",
"7-	c #538137",
"8-	c #508232",
"9-	c #4B7E30",
"0-	c #5B8639",
"a-	c #598B36",
"b-	c #5D893A",
"c-	c #709B47",
"d-	c #64823B",
"e-	c #628E3C",
"f-	c #5C903B",
"g-	c #527936",
"h-	c #4E752D",
"i-	c #4F7C2B",
"j-	c #5C8533",
"k-	c #557C35",
"l-	c #577B32",
"m-	c #679144",
"n-	c #639243",
"o-	c #6E8D43",
"p-	c #648836",
"q-	c #65933D",
"r-	c #5B903A",
"s-	c #688F3D",
"t-	c #649137",
"u-	c #628F37",
"v-	c #598134",
"w-	c #5A8035",
"x-	c #608C37",
"  . + @ # $ % & * = - ; > , ' ) ! ~ { ] ^ / ( _ : < [ } | 1 2 3 ",
"4 5 6 7 8 9 0 a b c d e f g h i j k l m n o p q r s t u v w x y ",
"| z A B C D E F G H I J K L M N O P Q R S T U V W X Y Z `  ...+.",
"@.#.$.%.&.J *.=.-.;.>.,.'.).!.~.{.].^./.(._.:.<.[.}.|.1.2.3.4.5.",
"6.7.8.9.0.a.b.c.d.e.f.g.h.i.j.k.l.m.n.o.p.q.r.s.t.u.v.w.x.y.z.A.",
"B.C.D.E.F.G.H.I.J.K.L.M.N.O.P.Q.R.S.T.U.V.W.X.Y.Z.`. +.+++@+#+$+",
"%+&+*+=+-+;+>+,+'+)+!+~+{+]+^+/+(+_+:+<+[+}+|+1+2+3+4+5+6+7+8+9+",
"0+a+b+c+d+e+f+g+h+i+j+k+l+m+n+o+p+q+r+s+t+u+v+w+x+y+z+A+B+C+D+E+",
"F+G+H+I+J+K+L+M+/+N+O+]+P+Q+R+S+T+U+V+W+X+Y+Z+`+ @.@+@@@#@$@%@&@",
"*@=@-@;@>@,@'@)@!@~@{@]@^@/@(@_@:@<@[@}@|@1@2@3@4@5@6@7@8@9@0@a@",
"i+b@c@d@e@f@g@h@i@j@k@l@m@n@o@p@q@r@s@t@u@v@w@x@y@z@A@B@C@D@_+E@",
"F@G@H@I@J@K@m+L@M@N@O@P@Q@R@S@T@U@V@W@X@Y@Z@`@ #.#+#@###$#%#&#*#",
"=#-#;#>#,#'#)#!#~#{#]#^#/#(#_#:#<#[#}#|#1#2#3#4#5#6#7#8#9#0#a#b#",
"c#d#e#f#g#h#i#j#k#l#m#n#o#p#q#r#s#t#u#v#w#x#y#z#A#B#C#D#E#F#G#H#",
"I#J#K#L#M#N#O#P#Q#R#S#T#U#V#W#,@X#Y#Z#`# $.$+$@$#$$$%$&$*$=$-$;$",
">$,$'$)$!$~${$]$^$/$($_$:$<$[$}$|$1$2$3$4$5$6$7$8$9$0$a$b$c$d$)$",
"e$f$g$e$h$i$j$k$l$m$n$o$p$q$r$s$t$u$v$H#w$x$y$z$&$A$B$C$D$E$F$G$",
"H$I$J$K$L$M$N$O$P$Q$R$S$T$U$V$W$X$Y$Z$`$ %.%+%@%#%$%%%&%*%> =%-%",
";%>%,%'%)%!%~%{%]%^%/%(%_%:%<%i#[%}%|%1%2%3%4%5%6%7%8%9%0%a%b%c%",
"d%e%f%g%h%i%j%k%l%m%n%o%p%q%7#r%s%w#t%u%v%w%x%y%z%A%B%C%D%E%F%G%",
"H%I%I+J%K%L%M%N%O%P%Q%R%7#S%T%U%V%W%X%Y%Z%`% &.&+&@&#&h.$&=$%&&&",
"*&=&-&;&>&,&'&)&!&~&{&]&^&/&(&_&:&<&[&}&|&1&2&3&4&5&6&7&8&9&0&a&",
"b&c&d&e&f&g&h&i&]#j&k&l&m&n&o&p&h%q&r&s&t&u&v&w&x&y&z&A&B&C&D&E&",
"F&G&H&I&J&K&L&M&N&O&P&Q&A&R&S&d.T&U&V&W&X&Y&Z&`& *.*+*@*#*$*%*&*",
"**=*-*;*>*,*'*)*!*~*{*]*G@^*/*(*_*:*<*[*}*|*1*2*3*4*5*6*E@7*8*9*",
"0*a*b*0.,$c*d*e*f*X+g*e*h*i*j*k*l*m*n*o*p*q*r*s*t*u*v*w*x*y*z*A*",
"B*C*D*E*F*G*H*I*J*K*L*M*N*O*P*Q*R*S*T*U*V*W*X*Y*Z*`* =.=+=@=#=$=",
"%=&=*=]&==-=;=>=,='=)=!=u@~={=]=^=/=(=_=:=<=[=}=|=1=2=3=4=5=6=7=",
"8=9=0=a=b=c=d=e=f=g=o*h=i=j=k=l=m=n=o=p=q=r=s=t=u=v=w=x=y=z=A=B=",
"C=D=E=F=G=H=I=J=8&K=L=M=N=O=P=Q=R=S=x%T=#@U=V=W=X=Y=Z=`= -.-+-@-",
"#-$-%-&-*-N@=---;->-,-'-i%$ )-!-~-{-]-^-/-(-_-:-E.<-[-}-|-1-2-3-",
"4-5-6-7-8-9-0-a-b-c-d-e-f-g-h-i-j-k-l-m-B n-o-p-q-r-s-t-u-v-w-x-"};
