/* XPM */
static char *_66912edfe464cdbde260d5dc63bb45dbZs2LdA1G5tUCfqB[] = {
/* columns rows colors chars-per-pixel */
"64 64 224 2 ",
"   c #5E382F",
".  c #643A2C",
"X  c #6C3D2D",
"o  c #6D3926",
"O  c #753D2D",
"+  c #7B3E2D",
"@  c #70372C",
"#  c #663C31",
"$  c #6B3D33",
"%  c #6C3F39",
"&  c #723D32",
"*  c #7B3E33",
"=  c #6D412F",
"-  c #73412E",
";  c #7B412E",
":  c #6E4234",
">  c #6E4239",
",  c #6D493D",
"<  c #744335",
"1  c #7C4434",
"2  c #7E4935",
"3  c #75443A",
"4  c #7C453A",
"5  c #744A3E",
"6  c #7C4A3C",
"7  c #6E4940",
"8  c #7F4541",
"9  c #744C43",
"0  c #7C4D44",
"q  c #794A45",
"w  c #765245",
"e  c #7C5245",
"r  c #755249",
"t  c #7C534A",
"y  c #7C5A4E",
"u  c #7C5C51",
"i  c #833E2D",
"p  c #843F31",
"a  c #83432D",
"s  c #824334",
"d  c #8B4532",
"f  c #844934",
"g  c #8C4B35",
"h  c #82453A",
"j  c #844B3C",
"k  c #8D4D3D",
"l  c #894739",
"z  c #934C35",
"x  c #924D3D",
"c  c #994E3F",
"v  c #984E35",
"b  c #8D513C",
"n  c #86523E",
"m  c #9A5037",
"M  c #94543D",
"N  c #9B543E",
"B  c #95593D",
"V  c #9C593E",
"C  c #935136",
"Z  c #A1563E",
"A  c #A0583F",
"S  c #854C43",
"D  c #8B4D43",
"F  c #814F49",
"G  c #8A4F49",
"H  c #804541",
"J  c #924E41",
"K  c #984F40",
"L  c #845344",
"P  c #8D5243",
"I  c #8D5943",
"U  c #85544B",
"Y  c #8B564C",
"T  c #84594B",
"R  c #8C5A4D",
"E  c #945443",
"W  c #9B5543",
"Q  c #945A44",
"!  c #9C5A44",
"~  c #92564C",
"^  c #9B5749",
"/  c #945C4B",
"(  c #9C5B4A",
")  c #875450",
"_  c #8C5B52",
"`  c #885A51",
"'  c #925C52",
"]  c #9A5C51",
"[  c #935C56",
"{  c #A25644",
"}  c #A15944",
"|  c #A15649",
" . c #A25A4A",
".. c #AC5E4B",
"X. c #A85E45",
"o. c #B35E4B",
"O. c #BB5E4D",
"+. c #AE5F52",
"@. c #B15F51",
"#. c #966149",
"$. c #9C604C",
"%. c #9C6044",
"&. c #84665D",
"*. c #8C665D",
"=. c #866B5E",
"-. c #8D6B5E",
";. c #8B6153",
":. c #926153",
">. c #9D6152",
",. c #95675F",
"<. c #936B5D",
"1. c #986E5E",
"2. c #9C675F",
"3. c #8B705F",
"4. c #96705F",
"5. c #9A715F",
"6. c #A96047",
"7. c #A5634D",
"8. c #AC624C",
"9. c #B2634C",
"0. c #B8634F",
"q. c #B0684F",
"w. c #A56554",
"e. c #AC6552",
"r. c #A56853",
"t. c #AB6954",
"y. c #A66758",
"u. c #AA6B5A",
"i. c #A96759",
"p. c #B26552",
"a. c #BB6553",
"s. c #B56952",
"d. c #BB6B54",
"f. c #B26C59",
"g. c #BC6C5B",
"h. c #BF675B",
"j. c #B2715B",
"k. c #BB7059",
"l. c #8E6660",
"z. c #856C63",
"x. c #8C6C63",
"c. c #8C6E69",
"v. c #866D68",
"b. c #946761",
"n. c #936C63",
"m. c #9A6A63",
"M. c #946E69",
"N. c #9B6F68",
"B. c #986762",
"V. c #877567",
"C. c #8D7166",
"Z. c #86726B",
"A. c #8C736B",
"S. c #937165",
"D. c #9A7265",
"F. c #9E7A67",
"G. c #93726A",
"H. c #9B756B",
"J. c #977A6F",
"K. c #9C7B6D",
"L. c #9C7D73",
"P. c #987D75",
"I. c #A26C64",
"U. c #BE6C60",
"Y. c #B56E62",
"T. c #A1756C",
"R. c #A27C6E",
"E. c #AA7F6F",
"W. c #A17767",
"Q. c #BA7263",
"!. c #A47D72",
"~. c #AB7E73",
"^. c #A97F79",
"/. c #A37E78",
"(. c #C4694E",
"). c #C46554",
"_. c #CB6554",
"`. c #C36B55",
"'. c #CA6957",
"]. c #C36C5B",
"[. c #C96C59",
"{. c #C4715C",
"}. c #C57157",
"|. c #C36D60",
" X c #C17462",
".X c #9D8275",
"XX c #9E847C",
"oX c #9F897E",
"OX c #A3816E",
"+X c #A48275",
"@X c #AB8375",
"#X c #A4857B",
"$X c #AB857B",
"%X c #A3897C",
"&X c #AB8A7D",
"*X c #A48976",
"=X c #B38476",
"-X c #B1847B",
";X c #B28C7F",
":X c #A48681",
">X c #A98781",
",X c #A58B82",
"<X c #AB8B83",
"1X c #A48E88",
"2X c #AC8E8A",
"3X c #B18C83",
"4X c #A59186",
"5X c #AD9286",
"6X c #A6928B",
"7X c #AC938C",
"8X c #AE998E",
"9X c #B2948B",
"0X c #BA948B",
"qX c #B3988D",
"wX c #B9998F",
"eX c #B59486",
"rX c #AC9592",
"tX c #AC9992",
"yX c #A79895",
"uX c #B19591",
"iX c #B49A93",
"pX c #BA9D95",
"aX c #BB9995",
"sX c #BEA199",
/* pixels */
"8.8.q.9.9.0.o.9.{ } ( T D.-.z.<.]._._._._._.[.'.'.`.].).O.@.@.@.e.e.8.p...o.@.e.| ^ ] :.&XXXoX+XQ.].{.`.0.o.o.9.9.9.9.q.8.8.8.8.",
"8.8.6.9.o.o.0.o.c W ~ P D.n.C.1.]._._._._.'.'.).`.].h.h.p.@.@.+.e.7.7.e.@.@.@.@.^ ^ ] :.&X+X*X!.u.).d.d.9.o.o.p.8.9.8.9.8.9.8.q.",
"q.q.9.9.9.9.9.9.{ ^ / Y D.n.x.<. X[.[.[.[.[.}.`.].g.g.d.s.p.p.e.e.e.p.8.p.p.p.p.^ W / _ @X*XoX+XQ.].].g.a.p.9.9.9.p.p.8.9.e.p.8.",
"6.6.6.6.o...o...| W / Y T.M.C.<.i.9.9.o.d.s.s.p.q.p.p.e.7...8.8.7.7.8.8.......+.W E / / @X+X%X+Xi.p.p.q.e.o...8...........8.8.8.",
"V V ! Z { Z { { x k Y Y @X/.#X!.h d d z z c M M ! !  .%.! B B ! ! ! | } } } { } E x E T @X+X#XOX1 a d z c {  .| { { { | | { { { ",
"V %.} ! { { | | x x G Y -X$X:X!.* + i s g k k k ( ! Q ! ! B B ! ! ! ! ! | { { | E b P T =X@X*XOX+ i i d N |  .| | | | | | | { { ",
"! ( ! ( } | |  .^ D Y Y 3X$X#XL.6 h h j D I E E Q ! ( ! ! ! (  .( ( ! ! ! } ! ! M k n T @X@X+XR.j g h k ^ ( w.W ^ | | | | | | | ",
"Q I E E W E E E D l G U -X<X>X/.3 4 4 h j D D S b E Q E E N M Q E Q E M E M W E b g L L @X@X#XR.2 ; + h E ( ^ ~ ^ K J ^ ^ K ^ W ",
"6 1 2 ; + + + ; & 4 < 9 0XuX2X3X% * * % * * * * E E E x J M x k 1 1 2 ; 1 ; + ; O o - 5 !.+X&XK.< < 1 6 k P P P 4 p s s s s l l ",
"6 6 2 < < < - - 3 4 3 9 0XaX2X>X$ & % & & & * & G G P D J D x k 2 6 6 2 ; - O O 2 - < 6 @X&X#XK.: X = 6 L T Y T 4 4 6 4 h h H h ",
"3 3 < : X = = = & $ # 7 2XaX2X>X% % 3 3 * * 8 8 D D G D D D D S 3 5 3 < < X X o : = = , +X%X#XL.: . . : e L L 6 3 < 3 3 3 4 3 3 ",
"t w w e 5 5 5 5 e 9 r u uXuXuX2X9 q q 6 7 % 7 * _ ` _ Y Y Y Y Y e e e e L e e e e 5 w r $X,X2X+Xt e w e T y T e e e e 0 e e e e ",
"C.3.C.3.3.-.-.3.K.J..XL.wXrXrX2X#X$X@X+XF.S.m.D.,.,.,.,.b.b.b.n.x.x.n.M.H.!.R.T.OXK.+XP.aX7XuX2XK.R.!.K.S.<.n.4.-.-.-.=.x.-.<.3.",
"G.G.S.S.S.S.4.S.&X%X5X,XuX2XrX2X+X*X*X!.S.*.*.-.n.x.n.n.n.n.M.M.n.x.M.L.#X<X<X<X&X&X5X:XpX7XuXuX%X<X&X+XD.-.C.S.3.S.C.C.S.C.S.C.",
"V.3.3.3.=.3.3.3..X.X%X%X7X1XtX6X.X*X*XOXS.x.C.C.=.=.z.v.x.v.v.c.v.v.v.G.L.$X#X+X.XL.%XP.uX1XrXuXXX+X+XL.C.=.=.C.3.=.=.3.=.=.=.V.",
"<.<.<.4.4.5.5.5.@XF.$X$X3X<X0X$XF.OXOXF.4.<.<.D.<.S.n.x.S.A.A.G.M.B.m.I.^.^.-X~.@X@X$XT.0X3X3X>X^.~.R.F.5.1.<.5.<.3.3.3.V.V.V.V.",
"d.d.d.k.k.}.k.k.q.e.p.e.i.i.i.w.! Q Q %.r.t.t.w.( R / ;.$X+X%X@XY.U.U.h.@.+.+.e.e.e.e.e.w.i.r.r./ / Q ( r.t.r.%.Q Q :.T G.=.V.V.",
"(.(.(.(.(.`.(.d.o.o.9.o.o.o.....M B C V 6.q.9.8.} ( / #.=X+X&XOXg.).).).O.O.o.o.o.o...8.6.8.7.6.( E M ! 6.8.8.6.N B / P F.x.A.A.",
"}.`.}.}.}.}.d.k.9.9.9.9.9.8.8.8.N B M A 8.p.s.p.| W ( R @X&X*X~.Y.|.].].h.p.s.s.9.e.8.8.q.8.8.t.( Q Q  .8.q.s.6.! W ^ T F.M.A.v.",
"9.6.6.9.s.d.s.s.9.8.8.8.8.....8.V B ! } ....8...W x I Y @X@X#XR.w.e.p...p.8.8.8.....7.7.7.7.$.7.( E ( ! 6.8.X.| ! E I T H.G.A.c.",
"g d d g N ! V N ! } } ! Z { Z ! ! Q E W N N c c d p j S ~.+X#XR.f d g g b M M M M M E M M M E E b b k E N N K x d s j L ~./.:X:X",
"i + + f M ! ( M ! ! ! N ! N V V ! ( W E c x z z i + h S ~.@X#XR.1 ; ; f g n b b n k b b b k b b E P k x x x z g i 1 h 0 ^.$X,X:X",
"h s h D ~ w.( ( ( ( ! ! { { | ! ( ( / W W J x J s + 1 0 @X+X#X!.6 2 2 n P I I Q P b b b P M E D P E G E J J J x l 1 H S ^.^.:XL.",
"4 1 * l E / ( E ^ W W W W N K W E ~ E E J k J J s 1 j S $X&X:X!.5 1 1 2 j n k j n P P P k E D J D D G J J J D k h 1 4 F ^.<X2X:X",
"4 4 * H G J G J ] | | ~ x p p l 1 4 1 h s s s s * X & 0 ;X0X5X#X= - - - < < O O h h s l J ~ K G S S D S H p p 8 4 @ & q ^.>X<X:X",
"H 8 H S G Y ~ ~ ] ] ] ^ D p p p 6 4 4 4 h 4 4 4 4 X > 0 3X0X5X+X= - < - & O & O h * * H G J G J P Y Y G S 8 8 p 8 & % q /./.:XP.",
"% 8 8 8 S G G Y [ ~ ~ G l * * * 3 3 > < < 3 < < > . # 9 <XwX7X#X> < 3 < 3 1 < 1 4 1 4 4 D G D D G F F 0 8 3 8 % 3 % 7 t #X,X2X<X",
") ) ) ) ) Y U ) [ [ [ [ ) F F F t 0 0 e U T T T e 5 w u 4X9XqX<X, 5 5 3 3 5 3 3 U U S P Y _ ' ) ) ` ` ) F F t F 7 % 7 r L.L.XXXX",
"T.~.!.T.N.B.n.B.B.M.m.B.x.b.l.l.b.b.n.M.H.!.R.T.F.K.K.J.qX7X7X4X#X@X$X@X$X$X@X@X,.<.<.<.1.,.,.,.b.m.M.m.B.B.M.M.>X^.#XXXsX9XuX8X",
"3X3X3X+XH.G.n.S.n.c.c.c.c.A.G.J.G.M.M.H.+X;X&X&X&X%X5XoXsX4X6X6X#X@X$X#X$X$X$X$XS.S.m.S.m.m.S.n.n.S.m.G.M.M.M.H.>X#X:X.XiX,X,X4X",
"!.#X#XOXA.=.=.V.v.v.z.v.Z.Z.Z.Z.c.l.l.G.!.$X+X+X.XOX%X.X8X4X6X8X#X*X#X#X#X#X+X+X=.-.x.x.V.=.C.C.&.l.n.x.b.l.c.n.$X/.>X#XiX5X6X8X",
"T.@X@XOXD.<.<.D.x.x.x.V.A.Z.A.Z.N.B.B.I.~.=X=X~.OX@X@XR.eX&X5X&XK.+X@XOXOX+X+X!.*.-.<.4.3.C.S.G.m.I.I.I.B.I.m.N.~.^.$X~.eX*X&X;X",
"r.r.r.e.w.e.e.i.Q R :.;.*X.XoX@XU.|.].].|.].k.].g.g.g.s.e.7.7.7.#.#.Q #.r.r.r.7.E E R R -X+X&XE.g.h.h.h.].U.U.U.e.e.p.e.e.8.r.t.",
"8.6.8.9.9.9.o.@.{ W / :.=X+X+X@X|._._._._.'.'.).).`.`.s.9.o.9.6.B B B V 6.q.8.X.W W ( / =X$X$XE.g._.)._._.'.).).O.o.o.9.9.9.9.8.",
"q.8.8.q.9.9.@.o.N W / / @X+X*X~.|.[.'.'.[.[.`.`.g.`.`.d.0.9.8.q.! V ! %.8.p.q.8.! W / / =X-X&XE.Q.'.'.].[.}.`.`.9.9.9.9.9.q.9.8.",
"7.7.......o...o.W c ~ #.@X@X#XOXp.@.0.9.a.h.d.d.q.p.q.9.8.6.6.8.%.B ! ! 8.e...X.W J E R =X&X&XE.f.0.a.a.d.d.d.s.o.6.6.8.6.6.6.6.",
"! } } { { { { { K J ~ R =X@X+XR.k v v m V A A A A X.} V A V V V Q ! W W } | | ! d s j L @X@X*XR.M m m m Z A } A V A Z A V A V A ",
"^ ^ | W | { { | K J P Y $X@X#X!.k g g C N B V V N V ! V V B B } !  .^ | | } { W s + h 6 R.#X#XOXn z C C V A V V V A V V V V V V ",
"( ( ^ ( ^ | | ^ E k P T ^.-X#XR.B C B B %.%.%.! ! V %.} ! V  . . .( ^ ^ | | W W s ; 4 6 !.+XoXK.n C M B V ! %.%.! } ! } } ! } } ",
"~ E ~ W ^ ^ K ^ E D P Y $X$X#X!.6 n b b I b B B M B Q V N ! B W E E ^ J ^ W J E f 1 3 0 @X%X%XOXn C g n M B M N B N N N N N N N ",
"h h h h s l s l + O & q !.$X+XT.6 n f 2 f 2 s a x b E M c J J J h p * p p s p 1 & 1 $ 5 eXqX4X&X6 f s f k E M x E M c K K K K K ",
"4 < 3 * 4 * * * h & 3 0 ^.>X:XH.< 2 < ; ; ; 1 1 D J x D k J J J 4 h 8 H 4 h 4 h 1 3 : , eXqX,X#X6 s s f b E E E J J J J J K K K ",
"q 3 4 4 4 6 8 6 < . # 9 ^.>X>XL.5 2 2 6 4 j j h S D D D D D D D 8 * 3 * 1 < < < : . # , 5XwX6X:X3 < 1 4 S S G G D G D G J D J D ",
"9 5 7 9 0 e e 0 e 9 w t $X<X2X+X5 e e 6 6 6 6 6 Y Y Y ~ ~ ~ G ) q 0 t t e S e e e w r u 9XuX9X5XU T T Y Y T Y Y R ~ ~ ~ ~ ~ [ ~ ",
"H.H.H.K.$X$X$X@X~.R.+XL.0X9X9X2X>X-X^.!.H.N.N.N.b.B.B.m.m.m.B.m.n.n.n.<.b.<.<.<.+XK..XL.qX8XtX5XL.~.!.T.N.B.B.M.b.b.m.b.B.B.B.B.",
"c.x.x.D.!.$X$X@X&X<XeX$XpX2X2XuX>X>X^.!.M.l.l.l.N.M.M.M.M.B.M.M.A.M.S.S.G.n.S.S.<X*X0X%XwX6XiX7X#X<X<X/.J.n.M.G.x.n.M.n.M.M.M.M.",
"c.c.v.G.+X$X#X+X!..X*XL.9X1X2X7X>X>X:XP.G.v.c.M.c.z.c.x.z.x.x.c.c.v.z.z.z.=.=.-.+X.X%XoX7X<XiX7XP.%X:XP.c.=.=.v.z.z.v.v.c.A.c.c.",
"b.*.*.m.W.@X@XR.@X~.$XT.0X3X3X3X/.^.$XT.H.n.n.M.n.B.x.x.x.c.v.v.n.n.b.D.1.1.1.5.=XW.@X@X;X&XeX$X/.+X$X!.S.-.n.G.n.n.M.A.G.A.A.A.",
"Q Q E E y.u.r.y.y.y.i.y.e.y.i.y./ / Q ( w.y.i.+.~ ] :.) S.&.x.n.u.j.k.t.q.7.t.6.7.6.7.7.7.7.7.r.#.Q I #.r.i.w.>./ ~ ' ` #X.X%XXX",
"! | N ! e.p...7.e.8.+.p.8.e.e.8.W M W ! 7.p.+.+.E E / Y D.-.S.D.j.d.d.d.9.9.9.9.9.9.9.9.9.9.9.8.! M B V 8.q.8... .( :.' $X#X%XoX",
"!  .W ! e.e.8.8.8.e.p.p.p.e.@.e.! N V X.e.p.p.p.W ^ ] U D.-.C.<.j.k.k.d.s.9.9.9.q.9.9.9.9.9.9.9.V V B A 7.s.p.e. .^ ' _ $X%X:XXX",
"M W z c 7.e...7.7.....7.........! ! ! | ..8.9...^ ( / P F.3.C.4.t.q.9.9.6.6.....6.6.9.6.9.6...8.%.Q V } ..e.e...W E ~ R $X*X:X:X",
"a d a d V } W ! ! ! ! | W | { ! ! W W ! { { { { c k I T R.+X.XOXB m N W { Z { { A X.Z } | } } } Q B W ! ! } | W k s S U ^.#X:X#X",
"a a a a B ! ! ! ! ! { } } W ! { ! } } } { { { ! x k I T @X@X%X+Xb x x c ! } W { | } { { | } { } ( ! Q ( (  .^ W p * 4 F ^.$X:X:X",
"a f a f ! $.( ( W } ! !  .^ } ! ! ^ | } } { | ! E b I T *X*X*XF.P c c c W ^ ( | ^ | | ^ | ^ ^ ( ( #./ ( (  .^ ^ p * 8 0 ^.>X:X:X",
"; f ; ; E Q M Q E E E Q E E W E x E E M N N M E b j L T @X*X%X+XL k k k W ~ ^ E E ~ E W E ~ W E P P I E Q E E ~ 4 * q t ^.:X2X:X",
"2 - - ; ; 2 2 ; s 1 f ; f 1 s f s 1 s s s a a ; ; o - 5 &XeX5X+X< * * 1 1 h 1 s s 4 s 1 h 1 1 1 1 2 < 1 h s s 4 @ 4 $ r 2XaX2XaX",
"= - - - 2 2 6 2 2 1 < 1 1 1 1 1 1 4 s 1 s 1 f 2 2 = , 5 ;XqX7XXX$ X & & 1 4 4 4 4 1 4 4 4 4 4 2 3 3 4 2 4 6 6 4 & q % r 2XsX2XrX",
"= = = = : < 3 5 3 5 < 2 < < < 5 3 3 3 3 3 1 < < = = = , &XqX5X+X> $ & 3 4 0 6 5 3 3 3 3 3 3 3 3 3 > > < 3 3 < 3 # %   9 ,XiX2XrX",
"5 5 y w w w e e e e e e e L e e 0 e e 0 e e 6 e 5 , w u &XqXuX>X, 5 5 9 0 r 0 9 t t e t t e t t r 9 9 e U T T y r t r &.1XuXrXrX",
".X.XOXJ.S.-.-.-.-.-.-.<.<.-.-.b.c.x.x.x.<.x.<.<.OX*X+X.XaXuXuXuX#X#X$X#X$X>X$X+Xx.-.,.-.x.-.-.-.n.x.-.M.T.+X!.!.&X<X>X4XuXrXrXyX",
"&X5X%X.XJ.S.C.C.M.G.n.S.S.S.G.n.M.A.M.G.G.S.S.S.;X&X5XXXiX2XuXuX:X#X#X%X%X%X#XP.C.S.C.A.n.A.n.S.G.n.S.H.#X&X&X&XwXqXsXiXrXrXrXyX",
"XXoXoX.XA.v.=.x.v.c.v.x.n.c.v.c.v.v.v.z.z.z.x.=.XX+X#XP.uX,XuX2X:X:X%X%X:X:X:X+Xv.x.x.c.v.c.c.c.z.-.&.G..X#X*X.X5X4X7X6X1X6XyXyX",
"oX,X:X.XA.c.A.A.c.c.c.c.c.c.c.c.A.Z.Z.A.A.C.G.C.>X>X<XP.iX2XuXuX:X%XXX%X,X:XXX:XC.C.v.c.V.C.v.c.G.C.x.G..X&X,X.XqX5X7XrXyXrXyXyX"
};
