/* XPM */
static char * cobblestone4_xpm[] = {
"64 64 173 2",
"  	c #898888",
". 	c #6C6B6B",
"+ 	c #B0B0B0",
"@ 	c #AFABAB",
"# 	c #A7A7A7",
"$ 	c #A9A9A9",
"% 	c #A3A3A3",
"& 	c #A0A0A0",
"* 	c #716F6F",
"= 	c #666464",
"- 	c #646464",
"; 	c #626161",
"> 	c #6C6C6C",
", 	c #696969",
"' 	c #ACACAC",
") 	c #868686",
"! 	c #8C8C8C",
"~ 	c #8D8D8D",
"{ 	c #909090",
"] 	c #7F7F7F",
"^ 	c #7C7A7A",
"/ 	c #7A7A7A",
"( 	c #929292",
"_ 	c #818181",
": 	c #979797",
"< 	c #9B9B9B",
"[ 	c #727272",
"} 	c #BB3200",
"| 	c #999999",
"1 	c #BC3301",
"2 	c #BE3502",
"3 	c #BD3402",
"4 	c #7C7C7C",
"5 	c #BA3000",
"6 	c #BF3603",
"7 	c #C33A07",
"8 	c #BE3503",
"9 	c #BE3809",
"0 	c #C0390A",
"a 	c #C33C0B",
"b 	c #C73E0C",
"c 	c #C53C09",
"d 	c #BF3604",
"e 	c #9C9C9C",
"f 	c #C84519",
"g 	c #CB491D",
"h 	c #CA4619",
"i 	c #C63F0F",
"j 	c #C23906",
"k 	c #777777",
"l 	c #CC420F",
"m 	c #C93F0C",
"n 	c #C33A08",
"o 	c #C33E10",
"p 	c #CE4C20",
"q 	c #D55427",
"r 	c #CF4D20",
"s 	c #C43E10",
"t 	c #BC3300",
"u 	c #878787",
"v 	c #CB420F",
"w 	c #CB4110",
"x 	c #C94012",
"y 	c #CB4417",
"z 	c #D24D20",
"A 	c #D65325",
"B 	c #D04C1E",
"C 	c #C63F10",
"D 	c #C03704",
"E 	c #BD3401",
"F 	c #5A5A5A",
"G 	c #C9420F",
"H 	c #CF4818",
"I 	c #D35123",
"J 	c #D65527",
"K 	c #D55224",
"L 	c #D24C1C",
"M 	c #CE4616",
"N 	c #CA4110",
"O 	c #C73E0B",
"P 	c #AF3B03",
"Q 	c #C4400D",
"R 	c #CF5827",
"S 	c #DA753F",
"T 	c #DF7F46",
"U 	c #D86C38",
"V 	c #D04E1D",
"W 	c #CD410D",
"X 	c #CC420E",
"Y 	c #A13403",
"Z 	c #BB3C0A",
"` 	c #CD6B38",
" .	c #DE9C5A",
"..	c #E6AB64",
"+.	c #DD8D4F",
"@.	c #D15A28",
"#.	c #CD3D05",
"$.	c #7A4007",
"%.	c #953204",
"&.	c #AE3A08",
"*.	c #C87A43",
"=.	c #E1B56B",
"-.	c #EAC475",
";.	c #DF9F5B",
">.	c #D2622F",
",.	c #CD3800",
"'.	c #5D5D5D",
").	c #7C4508",
"!.	c #863D06",
"~.	c #99400A",
"{.	c #BD8449",
"].	c #E1C072",
"^.	c #ECCA79",
"/.	c #DFA25D",
"(.	c #D16330",
"_.	c #CA3500",
":.	c #814A0B",
"<.	c #7E480A",
"[.	c #7C4609",
"}.	c #83470D",
"|.	c #AA8246",
"1.	c #D8BD6F",
"2.	c #E8C676",
"3.	c #DE9F5C",
"4.	c #CF612E",
"5.	c #C43601",
"6.	c #88500E",
"7.	c #874F0D",
"8.	c #854D0D",
"9.	c #834C0C",
"0.	c #814B0B",
"a.	c #7F490B",
"b.	c #967137",
"c.	c #BB9E5A",
"d.	c #CEAC64",
"e.	c #CA9050",
"f.	c #BF5B29",
"g.	c #B63802",
"h.	c #626262",
"i.	c #89500E",
"j.	c #874F0E",
"k.	c #854E0D",
"l.	c #87571F",
"m.	c #926B33",
"n.	c #9A733A",
"o.	c #9A6630",
"p.	c #974C19",
"q.	c #884F0E",
"r.	c #7C4709",
"s.	c #774408",
"t.	c #744106",
"u.	c #8A500E",
"v.	c #794508",
"w.	c #744107",
"x.	c #AEAEAE",
"y.	c #864E0D",
"z.	c #874E0D",
"A.	c #824B0C",
"B.	c #7B4709",
"C.	c #7B4609",
"D.	c #7C470A",
"E.	c #747474",
"F.	c #764307",
"G.	c #764407",
"H.	c #794408",
"I.	c #676767",
"J.	c #828282",
"K.	c #734106",
"L.	c #724006",
"M.	c #714006",
"N.	c #713F06",
"O.	c #7C7979",
"P.	c #737373",
"        . . . . . . . . + + + + @ # # $ . . . . . . . . $ $ $ $ % & % % * * * * = = - - ; ; ; ; > > , > * * * * # # # # ' + + + ",
"        . . . . . . . . + + + + # @ $ $ . . . . . . . . $ $ $ $ % % & % * * * * = = - - - ; ; ; , > . > * * * * # # % # + + + + ",
"        . . . . . . . . + + + + # # # @ . . . . . . . . $ $ $ $ & & % % * * * * = = = = ; ; ; ; . . . . * * * * # # # # + + + + ",
"        . . . . . . . . + + + + @ # # # . . . . . . . . $ $ $ # % % % & * * * * ; = ; = ; ; ; ; . . . . * * * * % # % # + + + + ",
"        . . . . $ $ $ $ ' ' ' '                 $ $ $ $   ) ) ) + + + + ! ~ ~ ~ ~ { ~ ~ . . . . . . . . & % % % ] ] ] ] ] ] ] ] ",
"        . . . . $ $ $ $ ' ' ' '                 $ $ $ $ ) ) ) ) + + + + ~ ~ ~ ~ ~ { ~ { . . . . . . . . % % % % ] ] ] ] ] ] ] ] ",
"        . . . . $ $ $ $ ' ' ' '                 $ $ $ $ ) ) ) ) + + + + ~ ~ ~ ~ ~ ~ ~ ~ . . . . . . . . % % % % ] ] ] ] ] ] ] ] ",
"        . . . . $ $ $ $ ' ' ' '                 $ $ $ $ ) ) ) ) + + + ' ~ ~ ~ ~ { ~ ~ ~ . . . . . . . . % % % % ] ] ] ] ] ] ] ] ",
"^ ^ ^ ^ & & & & / / / / ^ ^ ^ ^         . . . . $ $ $ $ ( ( ( ( ] ] ] ] ] ] ] ] _ _ ) ) , * , . * * * * ^ ^ ^ ^ : : : : _ _ ) _ ",
"^ ^ ^ ^ & & & & / / / / ^ ^ ^ ^         . . . . $ $ $ $ ( ( ( ( ] ] ] ] ] ] ] ]   ) _ ) * . * . * * * * ^ ^ ^ ^ : : : :   _ ) _ ",
"^ ^ ^ ^ & & & & / / / / ^ ^ ^ ^         . . . . $ $ $ $ ( ( ( ( ] ] ] ] ] ] ] ] ) ) ) ) . * * . * * * * ^ ^ ^ ^ : : : : _ ) _ _ ",
"^ ^ ^ ^ & & & & / / / / ^ ^ ^ ^         . . . . $ $ $ $ ( ( ( ( ] ] ] ] ] ] ] ] _   _ ) . * . * * * * * ^ ^ ^ ^ : : : : _ _ _   ",
"^ ^ ^ ^ * * * * < < < <         . > * * . * * . ] ] ] ] _ _ _ _ ( { ~ { ] ] ] ] ; ; ; ; ; ; ; ; # % # % * * * * ^ ^ ^ ^ ; ; ; ; ",
"^ ^ ^ ^ * * * * < < < <         * . . . * . . * ] ] ] ] _ _ _ _ { { { { ] ] ] ] ; ; ; ; ; ; ; ; % # % # * * * * ^ ^ ^ ^ ; ; ; ; ",
"^ ^ ^ ^ * * * * < < < <         . . . * , * . . ] ] ] ] _ _ _ _ { { ~ ~ ] ] ] ] ; ; ; ; ; ; ; ; # % # % * * * [ ^ ^ ^ ^ ; ; ; ; ",
"^ ^ ^ ^ * * * * < < < <         * . . . * , * > ] ] ] ] _ _ _ _ ~ { { { ] ] ] ] ; ; ; ; ; ; ; ; % # % # * * * [ ^ ^ ^ ^ ; ; ; ; ",
"< < : < # $ $ $ . . . . . . . . . > * , ; ; ; ; * * * * . . . . . . . } } } } } } } } } } | < | ] ] ] ] ] ] ] ] * * * * * * * * ",
"< : < : $ $ $ $ . . . . . . . . . * , * ; ; ; ; * * * * . . . . . . . } } } } } } } } } | < | < ] ] ] ] ] ] ] ] * * * * * * * * ",
": < : < $ $ $ $ . . . . . . . . . * . . ; ; ; ; * * * * . . . . . . . } } } } } } } } $ < | < | ] ] ] ] ] ] ] ] * * * * * * * * ",
"< : < : $ $ $ $ . . . . . . . . * . . * ; ; ; ; * * * * . . . . . . . } } 1 2 3 1 } $ $ | < < < ] ] ] ] ] ] ] ] * * * * * * * * ",
"+ + + + / 4 4 4 [ [ [ [ + ' + ' # & & & @ ' ' ' * * * * . . . . * * * 5 } 6 7 7 8 } < & _ _ 4 _ { { ~ { ] ] ] ]   )   ) * * * * ",
"+ ' + ' 4 4 4 4 [ [ [ [ ' + ' + & & # # @ ' ' ' * * * * . . . . * * * 9 0 a b c d } & < 4 _ _ 4 { ~ { { ] ] ] ] )   )   * * * * ",
"' + + + 4 4 4 4 [ [ [ [ + ' + ' & & # e ' ' + ' * * * * . . . . * * 0 f g h i j 2 } < & _ 4 4 _ { { ~ ~ ] ] ] ]   ) ) ) * * * * ",
"+ + + ' 4 4 4 4 [ [ [ k ' + ' ' e # & # ' + ' ' * * * * . . . l m n o p q r s 2 t } % < _ 4 _ _ ~ { { { ] ] ] ] )   ) ) * * * * ",
"k k k k u u u u > . . . e e e e ) _ _ ) / / / / ^ 4 _ 4 * * * v w x y z A B C D E } _ _   ~ ~ ~   u     { ( { ( ; ; ; ; F F F F ",
"k k k k u u u u > . . . e e e e _ _ _ _ / / / / _ 4 _ 4 * * * G H I J K L M N O _ 4 4 _ ~ ~ ~ ~ u   )   ( { ( { ; ; ; ; F F F F ",
"k k k k ) u   ) . . . . e e < < _ _ _ _ / / / / 4 _ _ / * * P Q R S T U V W X l 4 _ _ _ ~ ~ ~ ~   u     { ( { ( ; ; ; ; F F F F ",
"k k k k   ) ) ) . . . . e e e < ) _ _ ) / / / / 4 4 4 _ * * Y Z `  ...+.@.#.* * _ _ 4 4 ~ ~ ~ ~ u   ) ) ( { ( { ; ; ; ; F F F F ",
"/ / / k k k k k k [ [ k ; ; ; ; * * * * * * * * > > . .   $.%.&.*.=.-.;.>.,._ _ '.'.'.'.; - ; - k [ [ [ ; ; ; ; '.'.'.'.[ * * * ",
"k / / k k k k k k [ k [ ; ; ; ; * * * * * * * * > > . .   ).!.~.{.].^./.(._._ _ '.'.'.'.- - - ; [ [ [ [ ; ; ; ; '.'.'.'.* * * * ",
"/ / / / k k k k [ [ k [ ; ; ; ; * * * * * * * * . . . . :.<.[.}.|.1.2.3.4.5._ _ '.'.'.'.; - ; - [ [ [ [ ; ; ; ; '.'.'.'.* * * * ",
"/ k k / k k k k k [ [ k ; ; ; ; * * * * * * * * . . 6.7.8.9.0.a.b.c.d.e.f.g._ _ '.'.'.F - - - - [ [ [ [ ; ; ; ; '.'.'.'.* * * * ",
"h.h.h.h.$ $ $ $ $ $ $ $ $ $ $ $ _ _ _ _ * * * * ' i.i.6.j.7.k.9.l.m.n.o.p.$ $ $ { { { { . . > > < < < < ~ ~ ~ ~ * * * * * * * * ",
"h.h.h.; $ $ $ $ $ $ $ $ $ $ $ $ _ _ _ _ * * * * ' i.i.i.i.i.q.8.0.r.s.t.@ # $ $ { { { { . . > > < < < <   ~ ~   * * * * * * * * ",
"h.h.- ; $ $ $ $ $ $ $ $ $ $ $ $ _ _ _ _ * * * * i.i.i.i.u.u.i.7.9.<.v.w.$ $ $ $ { { { ( > > > > < < < < ~ ~ ~ ~ * * * * * * * * ",
"h.h.; ; $ $ $ x.$ $ $ $ $ $ $ $ _ _ _ _ * * u.i.i.i.i.i.i.i.i.q.8.:.@ @ $ $ $ $ { { { ( > > > > < < < < ~   ~ ~ * * * * * * * * ",
"u u             ) u u u _ 4 _ _ ~ ~ ~ ~ ; q.q.q.q.6.6.6.i.i.i.6.7.$ $ $ $ $ $ $ > > > > ] ] ] ] . . . . ; ; ; ; $ $ $ $ $ $ $ $ ",
"u u             ) u u u _ 4 4 _ ~ ~ ~ ~ ; 8.8.8.8.8.8.y.z.q.6.i.i.$ $ $ $ $ $ $ > > > > ] ] ] ] . . . . ; ; ; ; $ $ $ $ $ $ $ $ ",
"              u u u u u 4 _ _ 4 ~ ~ ~ ~ ; 0.0.:.:.:.0.A.9.8.7.6.$ $ $ $ $ $ $ $ > > . . ] ] ] ] . . . . ; ; ; ; $ $ $ $ $ $ $ $ ",
"              u u u u u _ _ 4 _ ~ ~ ~ ~ ; r.r.B.B.C.B.D.<.:.[ * $ $ $ $ $ $ $ $ > > > . ] ] ] 4 . . . . ; ; ; ; $ $ $ $ $ $ $ $ ",
"E.* * * - ; ; ; ~ u   u _ _ 4 _ - ; ; ; * F.G.G.G.G.G.s.H.. I.. ; ; ; ; 4 _ _ 4 _ _ 4 _ ; ; ; ; ; ; ; ; $ $ $ $ $ $ $ $ _ J.J.J.",
"* * * * ; ; ; ;       ~ _ 4 _ 4 ; ; ; ; * K.K.K.K.K.K.t.w.= > I.; ; ; ; _ 4 4 _ _ 4 4 _ ; ; ; ; ; ; ; ; $ $ $ $ $ $ $ $ _ _ J.J.",
"* * * * ; ; ; ; ~     u 4 4 _ _ ; ; ; ; L.L.L.L.L.M.M.N.I.I.. I.; ; ; ; _ _ _ _ 4 _ _ 4 ; ; ; ; ; ; ; ; $ $ $ $ $ $ $ $ J.J.J.J.",
"* * * * ; ; ; ;       u _ _ 4 _ ; ; L.L.L.L.L.L.L.N.* [ . I.I.. ; ; ; ; 4 _ 4 4 _ 4 _ _ ; ; ; ; ; ; ; ; $ $ $ $ $ $ $ $ J.J.J.J.",
". . , > * * * * ; ; ; ; ; ; ; ; * * L.L.L.L.L.L.L.' + ' _ _ ) _ [ [ [ [ ; ; ; ; [ * * * ^ ^ O.O.x.x.+ x.) ) _ ) { ( { ( _ _ 4 _ ",
". > > > * * * * ; ; ; ; ; ; ; ; * * L.L.L.L.L.L.L.+ ' + ) _ _ _ [ k [ k ; ; ; ; * * * * O.O.O.O.x.+ x.+ u _ u ) ( { ( { _ 4 4 _ ",
". . > , * * * * ; ; ; ; ; ; ; ; * * L.L.L.L.L.L.+ ' + ' _ _ _ _ [ k [ [ ; ; ; ; * * * * O.O.O.O.+ x.+ x.) ) ) ) { ( { ( 4 _ _ 4 ",
". . > > * * * * ; ; ; ; ; ; ; ; * * L.L.L.L.% % ' + ' + _ _ ) _ [ [ [ [ ; ; ; ; * * * * O.O.O.O.x.+ x.+ u _ ) _ ( { ( ( _ 4 _ _ ",
"* * * * & e & e < < < : : : : : ; ; ; ; > . . . & & # & ~ ( ~ ~ ' $ ' $ $ $ $ $ O.O.O.O.* * * * @ $ $ $ _ ) ) J.) ) _ J.= = = = ",
"* * * * e & e & : < : < : : : : ; ; ; ; . . . . & # % % ~ ( ( ~ x.$ x.$ $ $ $ $ O.O.O.^ * * * * $ $ $ $ J.) ) _ ) _ ) ) = = = = ",
"* * * * & e & e < : < : : : : : ; ; ; ; . . . . % % % % ( ~ ~ ( $ $ ' x.$ $ $ $ O.O.^ ^ * * * * $ $ $ $ _ ) ) ) J.) ) ) = = = = ",
"* * * * e & e e : < : < : : : : ; ; ; - . . . . % % % % ~ ~ ( ~ x.' $ @ $ $ $ $ O.O.^ ^ * * * * $ $ $ $ ) J.) u ) _ J._ = = = = ",
"& & & & # # # % { ~ ( ~ )   )   . I.I.. * * * * > . . .         )       _ u _ u ^ 4 _ ^ ^ ^ ^ ^ / / ^ ^ )     u _ _ 4 _ = = = = ",
"# & # & # # # # ~ ~ ~ ~ ) )   ) I.I.I.I.* * * * . . . .                 u _ u _ ^ ^ _ 4 ^ ^ ^ ^ / / ^ ^     )   4 4 _ _ = = = = ",
"& & # % # % # % ~ ~ { ~ u u ) ) . - - . * * * * . . . .                 _ u _ ) / _ / 4 ^ ^ ^ ^ ^ ^ ^ ^   )     _ 4 _ 4 = = = = ",
"& % & & # # # # ~ ( ~ ~ u u )   I.I.. - * * [ [ . . . .                 u _ ) ) 4 4 / _ ^ ^ ^ ^ ^ ^ ^ ^     )   _ _ 4 _ = = = = ",
"- I.I.I.~ ~ ~ ~ & & & # _ _ 4 _ k [ [ k ) )             . . . . > . . . . . . . ] ] ] ] * * * * > > > > = = = = - - = = * * * * ",
"I.I.= = ~   ~ ~ & $ e $ / _ _ 4 [ k k [   )             . . . . . . . . . . . . ] ] ] ] * * * * > > > > = = = = - - = = * * * * ",
"I.- = I.~   ~   & $ & & 4 _ _ 4 [ [ [ [                 . . . . . . . . . . . . ] ] ] ] * * * * > > > > = = = = = = = = * * * * ",
"I.I.- - ~ ~ ~ ~ & & & % _ _ 4 _ k [ k /                 . . > , . . . . . . . . ] ] ] ] * * * * > > > . = = = = = = = = * * * * ",
"J.u ) u ; ; ; ; k k k k ) u u u _ 4 _ _ ; ; ; ; = I.I.I.# & & #                 . . . . * * * * % % % % $ $ $ $ = = = = ] _ _ _ ",
"u ) u ) ; ; ; ; k k k k u u u u 4 _ _ 4 ; ; ; ; . = I.I.& # # &                 . . . . * * * * % % % % $ $ $ $ = = = = _ _ _ _ ",
") u J.u ; ; ; ; k k k k u u u u 4 _ _ 4 ; ; ; - I.I.I.I.# & & #                 . . . . * * P.* % % % % $ $ $ $ = = = = _ _ _ _ ",
"u ) u ) ; ; ; ; k k k / u u u u _ 4 _ 4 ; ; ; ; I.I.I.I.& & # &                 . . . . * * . P.% % % % $ $ $ $ = = = = _ _ _ _ "};
