/* XPM */
static char * cobblestone3_xpm[] = {
"64 64 180 2",
"  	c #898888",
". 	c #6C6B6B",
"+ 	c #B0B0B0",
"@ 	c #AFABAB",
"# 	c #A7A7A7",
"$ 	c #A9A9A9",
"% 	c #A3A3A3",
"& 	c #A0A0A0",
"* 	c #716F6F",
"= 	c #666464",
"- 	c #646464",
"; 	c #626161",
"> 	c #6C6C6C",
", 	c #696969",
"' 	c #ACACAC",
") 	c #868686",
"! 	c #8C8C8C",
"~ 	c #8D8D8D",
"{ 	c #909090",
"] 	c #7F7F7F",
"^ 	c #7C7A7A",
"/ 	c #7A7A7A",
"( 	c #929292",
"_ 	c #818181",
": 	c #979797",
"< 	c #9B9B9B",
"[ 	c #BB3200",
"} 	c #727272",
"| 	c #BC3301",
"1 	c #BD3402",
"2 	c #BE3502",
"3 	c #BE3503",
"4 	c #C23907",
"5 	c #C33A07",
"6 	c #BF3704",
"7 	c #7C7C7C",
"8 	c #BFBFBF",
"9 	c #C13806",
"0 	c #C73E0B",
"a 	c #C83E0C",
"b 	c #C23906",
"c 	c #BA3100",
"d 	c #C33A06",
"e 	c #C63C08",
"f 	c #C93E0B",
"g 	c #C63D09",
"h 	c #C43B08",
"i 	c #C63D0A",
"j 	c #CA400D",
"k 	c #C93F0D",
"l 	c #9C9C9C",
"m 	c #CB4210",
"n 	c #CC4311",
"o 	c #CC4210",
"p 	c #CA410E",
"q 	c #CB410E",
"r 	c #CB410F",
"s 	c #777777",
"t 	c #CC4514",
"u 	c #D14718",
"v 	c #D2491A",
"w 	c #D34B1C",
"x 	c #D24C1D",
"y 	c #D04919",
"z 	c #CD4413",
"A 	c #CC420F",
"B 	c #878787",
"C 	c #C5420F",
"D 	c #CF4A1A",
"E 	c #D65425",
"F 	c #DA592A",
"G 	c #DB5A2B",
"H 	c #D95728",
"I 	c #D45021",
"J 	c #CF4716",
"K 	c #5A5A5A",
"L 	c #AE3E06",
"M 	c #C84310",
"N 	c #D25A28",
"O 	c #DB763F",
"P 	c #E18148",
"Q 	c #E17540",
"R 	c #DE6232",
"S 	c #D85426",
"T 	c #CC420E",
"U 	c #724006",
"V 	c #7C4007",
"W 	c #A93B03",
"X 	c #C74512",
"Y 	c #D56F39",
"Z 	c #E19D5A",
"` 	c #E8AD66",
" .	c #E59455",
"..	c #E06D3A",
"+.	c #DB5628",
"@.	c #754207",
"#.	c #744106",
"$.	c #7B4107",
"%.	c #9E3A04",
"&.	c #BF4613",
"*.	c #D58046",
"=.	c #E5B76C",
"-.	c #ECC576",
";.	c #E5A460",
">.	c #DC703C",
",.	c #D95125",
"'.	c #794508",
").	c #784408",
"!.	c #7A4308",
"~.	c #8B3C06",
"{.	c #A84611",
"].	c #CB8B4D",
"^.	c #E6C374",
"/.	c #ECCB79",
"(.	c #DFA35F",
"_.	c #D16836",
":.	c #C93F13",
"<.	c #5D5D5D",
"[.	c #814A0B",
"}.	c #7E480A",
"|.	c #7C4709",
"1.	c #7C4609",
"2.	c #7C4408",
"3.	c #86480E",
"4.	c #B28A4B",
"5.	c #DEC273",
"6.	c #E8C777",
"7.	c #D89F5C",
"8.	c #C45D2D",
"9.	c #BA2A00",
"0.	c #864F0D",
"a.	c #844D0D",
"b.	c #824B0C",
"c.	c #7F490A",
"d.	c #7D480A",
"e.	c #7B4609",
"f.	c #97743B",
"g.	c #C1A55F",
"h.	c #D1B168",
"i.	c #C89152",
"j.	c #B75626",
"k.	c #89500E",
"l.	c #88500E",
"m.	c #874F0E",
"n.	c #864E0D",
"o.	c #854D0C",
"p.	c #834C0C",
"q.	c #804A0B",
"r.	c #835620",
"s.	c #926D35",
"t.	c #9C773E",
"u.	c #9B6934",
"v.	c #626262",
"w.	c #7F490B",
"x.	c #774308",
"y.	c #884F0E",
"z.	c #814B0B",
"A.	c #8A500E",
"B.	c #AEAEAE",
"C.	c #874E0D",
"D.	c #874F0D",
"E.	c #834B0C",
"F.	c #844C0C",
"G.	c #844D0C",
"H.	c #864D0D",
"I.	c #7E490A",
"J.	c #747474",
"K.	c #7A4608",
"L.	c #794608",
"M.	c #7A4609",
"N.	c #676767",
"O.	c #828282",
"P.	c #754307",
"Q.	c #764307",
"R.	c #734106",
"S.	c #744107",
"T.	c #714006",
"U.	c #713F06",
"V.	c #7C7979",
"W.	c #737373",
"        . . . . . . . . + + + + @ # # $ . . . . . . . . $ $ $ $ % & % % * * * * = = - - ; ; ; ; > > , > * * * * # # # # ' + + + ",
"        . . . . . . . . + + + + # @ $ $ . . . . . . . . $ $ $ $ % % & % * * * * = = - - - ; ; ; , > . > * * * * # # % # + + + + ",
"        . . . . . . . . + + + + # # # @ . . . . . . . . $ $ $ $ & & % % * * * * = = = = ; ; ; ; . . . . * * * * # # # # + + + + ",
"        . . . . . . . . + + + + @ # # # . . . . . . . . $ $ $ # % % % & * * * * ; = ; = ; ; ; ; . . . . * * * * % # % # + + + + ",
"        . . . . $ $ $ $ ' ' ' '                 $ $ $ $   ) ) ) + + + + ! ~ ~ ~ ~ { ~ ~ . . . . . . . . & % % % ] ] ] ] ] ] ] ] ",
"        . . . . $ $ $ $ ' ' ' '                 $ $ $ $ ) ) ) ) + + + + ~ ~ ~ ~ ~ { ~ { . . . . . . . . % % % % ] ] ] ] ] ] ] ] ",
"        . . . . $ $ $ $ ' ' ' '                 $ $ $ $ ) ) ) ) + + + + ~ ~ ~ ~ ~ ~ ~ ~ . . . . . . . . % % % % ] ] ] ] ] ] ] ] ",
"        . . . . $ $ $ $ ' ' ' '                 $ $ $ $ ) ) ) ) + + + ' ~ ~ ~ ~ { ~ ~ ~ . . . . . . . . % % % % ] ] ] ] ] ] ] ] ",
"^ ^ ^ ^ & & & & / / / / ^ ^ ^ ^         . . . . $ $ $ $ ( ( ( ( ] ] ] ] ] ] ] ] _ _ ) ) , * , . * * * * ^ ^ ^ ^ : : : : _ _ ) _ ",
"^ ^ ^ ^ & & & & / / / / ^ ^ ^ ^         . . . . $ $ $ $ ( ( ( ( ] ] ] ] ] ] ] ]   ) _ ) * . * . * * * * ^ ^ ^ ^ : : : :   _ ) _ ",
"^ ^ ^ ^ & & & & / / / / ^ ^ ^ ^         . . . . $ $ $ $ ( ( ( ( ] ] ] ] ] ] ] ] ) ) ) ) . * * . * * * * ^ ^ ^ ^ : : : : _ ) _ _ ",
"^ ^ ^ ^ & & & & / / / / ^ ^ ^ ^         . . . . $ $ $ $ ( ( ( ( ] ] ] ] ] ] ] ] _   _ ) . * . * * * * * ^ ^ ^ ^ : : : : _ _ _   ",
"^ ^ ^ ^ * * * * < < < <         . > * * . * * . ] ] ] ] _ _ _ _ ( { ~ { ] ] ] ] ; ; ; ; ; ; ; ; # % # % * * * * ^ ^ ^ ^ ; ; ; ; ",
"^ ^ ^ ^ * * * * < < < <         * . . . * . . * ] ] ] ] _ _ _ _ { { { { ] ] ] ] ; [ [ [ [ [ ; ; % # % # * * * * ^ ^ ^ ^ ; ; ; ; ",
"^ ^ ^ ^ * * * * < < < <         . . . * , * . . ] ] ] ] _ _ _ _ { { ~ ~ ] ] ] ] [ [ [ [ [ [ ; ; # % # % * * * } ^ ^ ^ ^ ; ; ; ; ",
"^ ^ ^ ^ * * * * < < < <         * . . . * , * > ] ] ] ] _ _ _ _ ~ { { { ] ] ] [ [ [ [ [ [ [ [ [ % # % # * * * } ^ ^ ^ ^ ; ; ; ; ",
"< < : < # $ $ $ . . . . . . . . . > * , ; ; ; ; * * * * . . . . . . . . . * } [ [ [ [ [ [ [ [ [ ] ] ] ] ] ] ] ] * * * * * * * * ",
"< : < : $ $ $ $ . . . . . . . . . * , * ; ; ; ; * * * * . . . . . . . . * > , [ [ [ [ [ [ [ [ [ ] ] ] ] ] ] ] ] * * * * * * * * ",
": < : < $ $ $ $ . . . . . . . . . * . . ; ; ; ; * * * * . . . . . . . . . . > [ | 1 2 | [ [ [ [ ] ] ] ] ] ] ] ] * * * * * * * * ",
"< : < : $ $ $ $ . . . . . . . . * . . * ; ; ; ; * * * * . . . . . . . . . * > [ 3 4 5 6 | [ [ [ ] ] ] ] ] ] ] ] * * * * * * * * ",
"+ + + + / 7 7 7 } } } } + ' + ' # & & & @ ' ' ' * * * * . . . . * * 1 1 8 8 8 2 9 0 a b | c 7 _ { { ~ { ] ] ] ]   )   ) * * * * ",
"+ ' + ' 7 7 7 7 } } } } ' + ' + & & # # @ ' ' ' * * * * . . . . * * b d e f g h i j k 4 | c _ 7 { ~ { { ] ] ] ] )   )   * * * * ",
"' + + + 7 7 7 7 } } } } + ' + ' & & # l ' ' + ' * * * * . . . . * * m m n n o p q r k b | c 7 _ { { ~ ~ ] ] ] ]   ) ) ) * * * * ",
"+ + + ' 7 7 7 7 } } } s ' + ' ' l # & # ' + ' ' * * * * . . . . * t u v w x y z A A k b | 7 _ _ ~ { { { ] ] ] ] )   ) ) * * * * ",
"s s s s B B B B > . . . l l l l ) _ _ ) / / / / ^ 7 _ 7 * * * * C D E F G H I J A 7 _ _   ~ ~ ~   B     { ( { ( ; ; ; ; K K K K ",
"s s s s B B B B > . . . l l l l _ _ _ _ / / / / _ 7 _ 7 * * * L M N O P Q R S y T 7 7 _ ~ ~ ~ ~ B   )   ( { ( { ; ; ; ; K K K K ",
"s s s s ) B   ) . . . . l l < < _ _ _ _ / / / / 7 _ _ / * U V W X Y Z `  ...+.* 7 _ _ _ ~ ~ ~ ~   B     { ( { ( ; ; ; ; K K K K ",
"s s s s   ) ) ) . . . . l l l < ) _ _ ) / / / / 7 7 7 _ @.#.$.%.&.*.=.-.;.>.,.* _ _ 7 7 ~ ~ ~ ~ B   ) ) ( { ( { ; ; ; ; K K K K ",
"/ / / s s s s s s } } s ; ; ; ; * * * * * * * * > > . . '.).!.~.{.].^./.(._.:._ <.<.<.<.; - ; - s } } } ; ; ; ; <.<.<.<.} * * * ",
"s / / s s s s s s } s } ; ; ; ; * * * * * * * * > > . [.}.|.1.2.3.4.5.6.7.8.9._ <.<.<.<.- - - ; } } } } ; ; ; ; <.<.<.<.* * * * ",
"/ / / / s s s s } } s } ; ; ; ; * * * * * * * * . . 0.a.b.[.c.d.e.f.g.h.i.j._ _ <.<.<.<.; - ; - } } } } ; ; ; ; <.<.<.<.* * * * ",
"/ s s / s s s s s } } s ; ; ; ; * * * * * * * * k.k.l.m.n.o.p.q.}.r.s.t.u._ _ _ <.<.<.K - - - - } } } } ; ; ; ; <.<.<.<.* * * * ",
"v.v.v.v.$ $ $ $ $ $ $ $ $ $ $ $ _ _ _ _ * * * * k.k.k.l.l.m.n.p.w.e.x.#.U $ $ $ { { { { . . > > < < < < ~ ~ ~ ~ * * * * * * * * ",
"v.v.v.; $ $ $ $ $ $ $ $ $ $ $ $ _ _ _ _ * * * k.k.k.k.k.k.k.y.o.z.|.).#.U # $ $ { { { { . . > > < < < <   ~ ~   * * * * * * * * ",
"v.v.- ; $ $ $ $ $ $ $ $ $ $ $ $ _ _ _ _ * * A.k.k.k.k.A.A.k.l.n.p.}.'.@.$ $ $ $ { { { ( > > > > < < < < ~ ~ ~ ~ * * * * * * * * ",
"v.v.; ; $ $ $ B.$ $ $ $ $ $ $ $ _ _ _ _ * k.k.k.k.k.k.k.k.k.k.m.a.[.@ @ $ $ $ $ { { { ( > > > > < < < < ~   ~ ~ * * * * * * * * ",
"B B             ) B B B _ 7 _ _ ~ ~ ~ ~ y.y.y.y.l.l.l.k.k.k.k.l.n.$ $ $ $ $ $ $ > > > > ] ] ] ] . . . . ; ; ; ; $ $ $ $ $ $ $ $ ",
"B B             ) B B B _ 7 7 _ ~ ~ ~ n.n.n.n.n.n.n.C.D.y.l.l.k.l.$ $ $ $ $ $ $ > > > > ] ] ] ] . . . . ; ; ; ; $ $ $ $ $ $ $ $ ",
"              B B B B B 7 _ _ 7 ~ ~ ~ p.p.p.E.p.p.p.F.G.H.D.l.k.$ $ $ $ $ $ $ $ > > . . ] ] ] ] . . . . ; ; ; ; $ $ $ $ $ $ $ $ ",
"              B B B B B _ _ 7 _ ~ ~ ~ c.c.I.I.}.}.I.w.q.b.o.D.* $ $ $ $ $ $ $ $ > > > . ] ] ] 7 . . . . ; ; ; ; $ $ $ $ $ $ $ $ ",
"J.* * * - ; ; ; ~ B   B _ _ 7 _ - ; ; K.K.L.L.'.'.L.M.1.}.. N.. ; ; ; ; 7 _ _ 7 _ _ 7 _ ; ; ; ; ; ; ; ; $ $ $ $ $ $ $ $ _ O.O.O.",
"* * * * ; ; ; ;       ~ _ 7 _ 7 ; ; ; @.P.P.P.P.P.P.Q.x.'.= > N.; ; ; ; _ 7 7 _ _ 7 7 _ ; ; ; ; ; ; ; ; $ $ $ $ $ $ $ $ _ _ O.O.",
"* * * * ; ; ; ; ~     B 7 7 _ _ ; ; ; R.R.R.R.R.R.R.R.S.N.N.. N.; ; ; ; _ _ _ _ 7 _ _ 7 ; ; ; ; ; ; ; ; $ $ $ $ $ $ $ $ O.O.O.O.",
"* * * * ; ; ; ;       B _ _ 7 _ ; ; U U U U U U T.T.U.} . N.N.. ; ; ; ; 7 _ 7 7 _ 7 _ _ ; ; ; ; ; ; ; ; $ $ $ $ $ $ $ $ O.O.O.O.",
". . , > * * * * ; ; ; ; ; ; ; ; U U U U U U U T.U.' + ' _ _ ) _ } } } } ; ; ; ; } * * * ^ ^ V.V.B.B.+ B.) ) _ ) { ( { ( _ _ 7 _ ",
". > > > * * * * ; ; ; ; ; ; ; ; U U U U U U U U ' + ' + ) _ _ _ } s } s ; ; ; ; * * * * V.V.V.V.B.+ B.+ B _ B ) ( { ( { _ 7 7 _ ",
". . > , * * * * ; ; ; ; ; ; ; ; U U U U U U U U + ' + ' _ _ _ _ } s } } ; ; ; ; * * * * V.V.V.V.+ B.+ B.) ) ) ) { ( { ( 7 _ _ 7 ",
". . > > * * * * ; ; ; ; ; ; ; ; U U U U U U U % ' + ' + _ _ ) _ } } } } ; ; ; ; * * * * V.V.V.V.B.+ B.+ B _ ) _ ( { ( ( _ 7 _ _ ",
"* * * * & l & l < < < : : : : : U U U U U U . . & & # & ~ ( ~ ~ ' $ ' $ $ $ $ $ V.V.V.V.* * * * @ $ $ $ _ ) ) O.) ) _ O.= = = = ",
"* * * * l & l & : < : < : : : : U U U U U . . . & # % % ~ ( ( ~ B.$ B.$ $ $ $ $ V.V.V.^ * * * * $ $ $ $ O.) ) _ ) _ ) ) = = = = ",
"* * * * & l & l < : < : : : : : ; ; ; ; . . . . % % % % ( ~ ~ ( $ $ ' B.$ $ $ $ V.V.^ ^ * * * * $ $ $ $ _ ) ) ) O.) ) ) = = = = ",
"* * * * l & l l : < : < : : : : ; ; ; - . . . . % % % % ~ ~ ( ~ B.' $ @ $ $ $ $ V.V.^ ^ * * * * $ $ $ $ ) O.) B ) _ O._ = = = = ",
"& & & & # # # % { ~ ( ~ )   )   . N.N.. * * * * > . . .         )       _ B _ B ^ 7 _ ^ ^ ^ ^ ^ / / ^ ^ )     B _ _ 7 _ = = = = ",
"# & # & # # # # ~ ~ ~ ~ ) )   ) N.N.N.N.* * * * . . . .                 B _ B _ ^ ^ _ 7 ^ ^ ^ ^ / / ^ ^     )   7 7 _ _ = = = = ",
"& & # % # % # % ~ ~ { ~ B B ) ) . - - . * * * * . . . .                 _ B _ ) / _ / 7 ^ ^ ^ ^ ^ ^ ^ ^   )     _ 7 _ 7 = = = = ",
"& % & & # # # # ~ ( ~ ~ B B )   N.N.. - * * } } . . . .                 B _ ) ) 7 7 / _ ^ ^ ^ ^ ^ ^ ^ ^     )   _ _ 7 _ = = = = ",
"- N.N.N.~ ~ ~ ~ & & & # _ _ 7 _ s } } s ) )             . . . . > . . . . . . . ] ] ] ] * * * * > > > > = = = = - - = = * * * * ",
"N.N.= = ~   ~ ~ & $ l $ / _ _ 7 } s s }   )             . . . . . . . . . . . . ] ] ] ] * * * * > > > > = = = = - - = = * * * * ",
"N.- = N.~   ~   & $ & & 7 _ _ 7 } } } }                 . . . . . . . . . . . . ] ] ] ] * * * * > > > > = = = = = = = = * * * * ",
"N.N.- - ~ ~ ~ ~ & & & % _ _ 7 _ s } s /                 . . > , . . . . . . . . ] ] ] ] * * * * > > > . = = = = = = = = * * * * ",
"O.B ) B ; ; ; ; s s s s ) B B B _ 7 _ _ ; ; ; ; = N.N.N.# & & #                 . . . . * * * * % % % % $ $ $ $ = = = = ] _ _ _ ",
"B ) B ) ; ; ; ; s s s s B B B B 7 _ _ 7 ; ; ; ; . = N.N.& # # &                 . . . . * * * * % % % % $ $ $ $ = = = = _ _ _ _ ",
") B O.B ; ; ; ; s s s s B B B B 7 _ _ 7 ; ; ; - N.N.N.N.# & & #                 . . . . * * W.* % % % % $ $ $ $ = = = = _ _ _ _ ",
"B ) B ) ; ; ; ; s s s / B B B B _ 7 _ 7 ; ; ; ; N.N.N.N.& & # &                 . . . . * * . W.% % % % $ $ $ $ = = = = _ _ _ _ "};
