/* XPM */
static char * cobblestone2_xpm[] = {
"64 64 189 2",
"  	c #898888",
". 	c #6C6B6B",
"+ 	c #B0B0B0",
"@ 	c #AFABAB",
"# 	c #A7A7A7",
"$ 	c #A9A9A9",
"% 	c #A3A3A3",
"& 	c #A0A0A0",
"* 	c #716F6F",
"= 	c #666464",
"- 	c #646464",
"; 	c #626161",
"> 	c #6C6C6C",
", 	c #696969",
"' 	c #ACACAC",
") 	c #868686",
"! 	c #8C8C8C",
"~ 	c #8D8D8D",
"{ 	c #909090",
"] 	c #7F7F7F",
"^ 	c #7C7A7A",
"/ 	c #7A7A7A",
"( 	c #929292",
"_ 	c #818181",
": 	c #979797",
"< 	c #9B9B9B",
"[ 	c #BB3200",
"} 	c #727272",
"| 	c #999999",
"1 	c #BC3301",
"2 	c #BE3502",
"3 	c #BD3402",
"4 	c #7C7C7C",
"5 	c #BA3100",
"6 	c #BF3603",
"7 	c #C33A07",
"8 	c #C23907",
"9 	c #BE3503",
"0 	c #BD3401",
"a 	c #BD3503",
"b 	c #BE3606",
"c 	c #C03909",
"d 	c #C43C0C",
"e 	c #C83F0D",
"f 	c #C73D0B",
"g 	c #C03705",
"h 	c #BC3300",
"i 	c #9C9C9C",
"j 	c #C13704",
"k 	c #C43C0B",
"l 	c #C84416",
"m 	c #CC491D",
"n 	c #CD481A",
"o 	c #CD4413",
"p 	c #CA400D",
"q 	c #777777",
"r 	c #BA3401",
"s 	c #BF3704",
"t 	c #C63D0B",
"u 	c #CC4515",
"v 	c #D34F21",
"w 	c #D75527",
"x 	c #D45022",
"y 	c #CE4616",
"z 	c #CA410D",
"A 	c #878787",
"B 	c #BE3806",
"C 	c #C53C0B",
"D 	c #CC4314",
"E 	c #D24A1B",
"F 	c #D65022",
"G 	c #D65324",
"H 	c #D14D1E",
"I 	c #CA4213",
"J 	c #C63D0A",
"K 	c #5A5A5A",
"L 	c #AA3E08",
"M 	c #C23F0B",
"N 	c #CD4617",
"O 	c #D45223",
"P 	c #D85728",
"Q 	c #D14B1C",
"R 	c #C33B0A",
"S 	c #BF3604",
"T 	c #7D4007",
"U 	c #A63F06",
"V 	c #C44310",
"W 	c #D25A28",
"X 	c #DB763F",
"Y 	c #DF7F46",
"Z 	c #DA6E3A",
"` 	c #D25223",
" .	c #C94111",
"..	c #C03807",
"+.	c #754207",
"@.	c #7D4107",
"#.	c #A23C03",
"$.	c #C34511",
"%.	c #D5703A",
"&.	c #E19D5B",
"*.	c #E7AC65",
"=.	c #E29153",
"-.	c #D96634",
";.	c #D24B1E",
">.	c #794508",
",.	c #7E4408",
"'.	c #9B3C05",
").	c #BB4612",
"!.	c #D37F44",
"~.	c #E5B66B",
"{.	c #ECC576",
"].	c #E6A460",
"^.	c #DC703C",
"/.	c #D75023",
"(.	c #5D5D5D",
"_.	c #814A0B",
":.	c #7E480A",
"<.	c #7F4709",
"[.	c #8D4007",
"}.	c #A34710",
"|.	c #C38548",
"1.	c #E2BF71",
"2.	c #EDCB79",
"3.	c #E4A560",
"4.	c #D86C38",
"5.	c #CE4719",
"6.	c #864F0D",
"7.	c #844D0D",
"8.	c #824B0C",
"9.	c #80480A",
"0.	c #874A0F",
"a.	c #AA8144",
"b.	c #D6BA6D",
"c.	c #E6C475",
"d.	c #DFA05C",
"e.	c #D06330",
"f.	c #C23C05",
"g.	c #89500E",
"h.	c #88500E",
"i.	c #874F0E",
"j.	c #864E0D",
"k.	c #854D0C",
"l.	c #834C0C",
"m.	c #804A0B",
"n.	c #967037",
"o.	c #B99C58",
"p.	c #CBA962",
"q.	c #C88D4E",
"r.	c #BC5A27",
"s.	c #AF3A02",
"t.	c #626262",
"u.	c #87571F",
"v.	c #926A32",
"w.	c #997239",
"x.	c #98642F",
"y.	c #944B18",
"z.	c #884F0E",
"A.	c #814B0B",
"B.	c #7C4709",
"C.	c #784408",
"D.	c #744106",
"E.	c #724006",
"F.	c #8A500E",
"G.	c #AEAEAE",
"H.	c #874E0D",
"I.	c #874F0D",
"J.	c #834B0C",
"K.	c #844C0C",
"L.	c #844D0C",
"M.	c #864D0D",
"N.	c #7F490A",
"O.	c #7E490A",
"P.	c #7F490B",
"Q.	c #747474",
"R.	c #7A4608",
"S.	c #794608",
"T.	c #7A4609",
"U.	c #7C4609",
"V.	c #676767",
"W.	c #828282",
"X.	c #754307",
"Y.	c #764307",
"Z.	c #774308",
"`.	c #734106",
" +	c #744107",
".+	c #714006",
"++	c #713F06",
"@+	c #7C7979",
"#+	c #737373",
"        . . . . . . . . + + + + @ # # $ . . . . . . . . $ $ $ $ % & % % * * * * = = - - ; ; ; ; > > , > * * * * # # # # ' + + + ",
"        . . . . . . . . + + + + # @ $ $ . . . . . . . . $ $ $ $ % % & % * * * * = = - - - ; ; ; , > . > * * * * # # % # + + + + ",
"        . . . . . . . . + + + + # # # @ . . . . . . . . $ $ $ $ & & % % * * * * = = = = ; ; ; ; . . . . * * * * # # # # + + + + ",
"        . . . . . . . . + + + + @ # # # . . . . . . . . $ $ $ # % % % & * * * * ; = ; = ; ; ; ; . . . . * * * * % # % # + + + + ",
"        . . . . $ $ $ $ ' ' ' '                 $ $ $ $   ) ) ) + + + + ! ~ ~ ~ ~ { ~ ~ . . . . . . . . & % % % ] ] ] ] ] ] ] ] ",
"        . . . . $ $ $ $ ' ' ' '                 $ $ $ $ ) ) ) ) + + + + ~ ~ ~ ~ ~ { ~ { . . . . . . . . % % % % ] ] ] ] ] ] ] ] ",
"        . . . . $ $ $ $ ' ' ' '                 $ $ $ $ ) ) ) ) + + + + ~ ~ ~ ~ ~ ~ ~ ~ . . . . . . . . % % % % ] ] ] ] ] ] ] ] ",
"        . . . . $ $ $ $ ' ' ' '                 $ $ $ $ ) ) ) ) + + + ' ~ ~ ~ ~ { ~ ~ ~ . . . . . . . . % % % % ] ] ] ] ] ] ] ] ",
"^ ^ ^ ^ & & & & / / / / ^ ^ ^ ^         . . . . $ $ $ $ ( ( ( ( ] ] ] ] ] ] ] ] _ _ ) ) , * , . * * * * ^ ^ ^ ^ : : : : _ _ ) _ ",
"^ ^ ^ ^ & & & & / / / / ^ ^ ^ ^         . . . . $ $ $ $ ( ( ( ( ] ] ] ] ] ] ] ]   ) _ ) * . * . * * * * ^ ^ ^ ^ : : : :   _ ) _ ",
"^ ^ ^ ^ & & & & / / / / ^ ^ ^ ^         . . . . $ $ $ $ ( ( ( ( ] ] ] ] ] ] ] ] ) ) ) ) . * * . * * * * ^ ^ ^ ^ : : : : _ ) _ _ ",
"^ ^ ^ ^ & & & & / / / / ^ ^ ^ ^         . . . . $ $ $ $ ( ( ( ( ] ] ] ] ] ] ] ] _   _ ) . * . * * * * * ^ ^ ^ ^ : : : : _ _ _   ",
"^ ^ ^ ^ * * * * < < < <         . > * * . * * . ] ] ] ] _ _ _ _ ( { ~ { ] ] ] ] ; ; ; ; ; ; ; ; # % # % * * * * ^ ^ ^ ^ ; ; ; ; ",
"^ ^ ^ ^ * * * * < < < <         * . . . * . . * ] ] ] ] _ _ _ _ { { { { ] ] ] ] ; ; [ [ [ [ [ ; % # % # * * * * ^ ^ ^ ^ ; ; ; ; ",
"^ ^ ^ ^ * * * * < < < <         . . . * , * . . ] ] ] ] _ _ _ _ { { ~ ~ ] ] ] ] ; ; [ [ [ [ [ ; # % # % * * * } ^ ^ ^ ^ ; ; ; ; ",
"^ ^ ^ ^ * * * * < < < <         * . . . * , * > ] ] ] ] _ _ _ _ ~ { { { ] ] ] ] ; [ [ [ [ [ ; ; % # % # * * * } ^ ^ ^ ^ ; ; ; ; ",
"< < : < # $ $ $ . . . . . . . . . > * , ; ; ; ; * * * * . . . . . . . . . * [ [ [ [ [ [ [ | < | ] ] ] ] ] ] ] ] * * * * * * * * ",
"< : < : $ $ $ $ . . . . . . . . . * , * ; ; ; ; * * * * . . . . . . . . * [ [ [ [ [ [ [ [ < | < ] ] ] ] ] ] ] ] * * * * * * * * ",
": < : < $ $ $ $ . . . . . . . . . * . . ; ; ; ; * * * * . . . . . . . . [ [ [ [ [ [ [ [ [ [ < | ] ] ] ] ] ] ] ] * * * * * * * * ",
"< : < : $ $ $ $ . . . . . . . . * . . * ; ; ; ; * * * * . . . . . . . [ [ 1 2 3 1 [ [ [ [ [ [ < ] ] ] ] ] ] ] ] * * * * * * * * ",
"+ + + + / 4 4 4 } } } } + ' + ' # & & & @ ' ' ' * * * * . . . . * * 5 5 [ 6 7 8 9 [ [ & _ _ 4 _ { { ~ { ] ] ] ]   )   ) * * * * ",
"+ ' + ' 4 4 4 4 } } } } ' + ' + & & # # @ ' ' ' * * * * . . . . * 0 a b c d e f g h & < 4 _ _ 4 { ~ { { ] ] ] ] )   )   * * * * ",
"' + + + 4 4 4 4 } } } } + ' + ' & & # i ' ' + ' * * * * . . . . 0 j k l m n o p 7 & < & _ 4 4 _ { { ~ ~ ] ] ] ]   ) ) ) * * * * ",
"+ + + ' 4 4 4 4 } } } q ' + ' ' i # & # ' + ' ' * * * * . . . r s t u v w x y z & < % < _ 4 _ _ ~ { { { ] ] ] ] )   ) ) * * * * ",
"q q q q A A A A > . . . i i i i ) _ _ ) / / / / ^ 4 _ 4 * * * B C D E F G H I J _ 4 _ _   ~ ~ ~   A     { ( { ( ; ; ; ; K K K K ",
"q q q q A A A A > . . . i i i i _ _ _ _ / / / / _ 4 _ 4 * * L M N O P G Q I R S _ 4 4 _ ~ ~ ~ ~ A   )   ( { ( { ; ; ; ; K K K K ",
"q q q q ) A   ) . . . . i i < < _ _ _ _ / / / / 4 _ _ / * T U V W X Y Z `  ...[ 4 _ _ _ ~ ~ ~ ~   A     { ( { ( ; ; ; ; K K K K ",
"q q q q   ) ) ) . . . . i i i < ) _ _ ) / / / / 4 4 4 _ +.@.#.$.%.&.*.=.-.;.* * _ _ 4 4 ~ ~ ~ ~ A   ) ) ( { ( { ; ; ; ; K K K K ",
"/ / / q q q q q q } } q ; ; ; ; * * * * * * * * > > . . >.,.'.).!.~.{.].^./._ _ (.(.(.(.; - ; - q } } } ; ; ; ; (.(.(.(.} * * * ",
"q / / q q q q q q } q } ; ; ; ; * * * * * * * * > > . _.:.<.[.}.|.1.2.3.4.5._ _ (.(.(.(.- - - ; } } } } ; ; ; ; (.(.(.(.* * * * ",
"/ / / / q q q q } } q } ; ; ; ; * * * * * * * * . . 6.7.8._.9.0.a.b.c.d.e.f._ _ (.(.(.(.; - ; - } } } } ; ; ; ; (.(.(.(.* * * * ",
"/ q q / q q q q q } } q ; ; ; ; * * * * * * * * g.g.h.i.j.k.l.m.n.o.p.q.r.s._ _ (.(.(.K - - - - } } } } ; ; ; ; (.(.(.(.* * * * ",
"t.t.t.t.$ $ $ $ $ $ $ $ $ $ $ $ _ _ _ _ * * * * g.g.g.h.h.i.j.l.u.v.w.x.y.$ $ $ { { { { . . > > < < < < ~ ~ ~ ~ * * * * * * * * ",
"t.t.t.; $ $ $ $ $ $ $ $ $ $ $ $ _ _ _ _ * * * g.g.g.g.g.g.g.z.k.A.B.C.D.E.# $ $ { { { { . . > > < < < <   ~ ~   * * * * * * * * ",
"t.t.- ; $ $ $ $ $ $ $ $ $ $ $ $ _ _ _ _ * * F.g.g.g.g.F.F.g.h.j.l.:.>.+.$ $ $ $ { { { ( > > > > < < < < ~ ~ ~ ~ * * * * * * * * ",
"t.t.; ; $ $ $ G.$ $ $ $ $ $ $ $ _ _ _ _ * g.g.g.g.g.g.g.g.g.g.i.7._.@ @ $ $ $ $ { { { ( > > > > < < < < ~   ~ ~ * * * * * * * * ",
"A A             ) A A A _ 4 _ _ ~ ~ ~ ~ z.z.z.z.h.h.h.g.g.g.g.h.j.$ $ $ $ $ $ $ > > > > ] ] ] ] . . . . ; ; ; ; $ $ $ $ $ $ $ $ ",
"A A             ) A A A _ 4 4 _ ~ ~ ~ j.j.j.j.j.j.j.H.I.z.h.h.g.h.$ $ $ $ $ $ $ > > > > ] ] ] ] . . . . ; ; ; ; $ $ $ $ $ $ $ $ ",
"              A A A A A 4 _ _ 4 ~ ~ ~ l.l.l.J.l.l.l.K.L.M.I.h.g.$ $ $ $ $ $ $ $ > > . . ] ] ] ] . . . . ; ; ; ; $ $ $ $ $ $ $ $ ",
"              A A A A A _ _ 4 _ ~ ~ ~ N.N.O.O.:.:.O.P.m.8.k.I.* $ $ $ $ $ $ $ $ > > > . ] ] ] 4 . . . . ; ; ; ; $ $ $ $ $ $ $ $ ",
"Q.* * * - ; ; ; ~ A   A _ _ 4 _ - ; ; R.R.S.S.>.>.S.T.U.:.. V.. ; ; ; ; 4 _ _ 4 _ _ 4 _ ; ; ; ; ; ; ; ; $ $ $ $ $ $ $ $ _ W.W.W.",
"* * * * ; ; ; ;       ~ _ 4 _ 4 ; ; ; +.X.X.X.X.X.X.Y.Z.>.= > V.; ; ; ; _ 4 4 _ _ 4 4 _ ; ; ; ; ; ; ; ; $ $ $ $ $ $ $ $ _ _ W.W.",
"* * * * ; ; ; ; ~     A 4 4 _ _ ; ; ; `.`.`.`.`.`.`.`. +V.V.. V.; ; ; ; _ _ _ _ 4 _ _ 4 ; ; ; ; ; ; ; ; $ $ $ $ $ $ $ $ W.W.W.W.",
"* * * * ; ; ; ;       A _ _ 4 _ ; ; E.E.E.E.E.E..+.+++} . V.V.. ; ; ; ; 4 _ 4 4 _ 4 _ _ ; ; ; ; ; ; ; ; $ $ $ $ $ $ $ $ W.W.W.W.",
". . , > * * * * ; ; ; ; ; ; ; ; E.E.E.E.E.E.E..+++' + ' _ _ ) _ } } } } ; ; ; ; } * * * ^ ^ @+@+G.G.+ G.) ) _ ) { ( { ( _ _ 4 _ ",
". > > > * * * * ; ; ; ; ; ; ; ; E.E.E.E.E.E.E.E.' + ' + ) _ _ _ } q } q ; ; ; ; * * * * @+@+@+@+G.+ G.+ A _ A ) ( { ( { _ 4 4 _ ",
". . > , * * * * ; ; ; ; ; ; ; ; E.E.E.E.E.E.E.E.+ ' + ' _ _ _ _ } q } } ; ; ; ; * * * * @+@+@+@++ G.+ G.) ) ) ) { ( { ( 4 _ _ 4 ",
". . > > * * * * ; ; ; ; ; ; ; ; E.E.E.E.E.E.E.% ' + ' + _ _ ) _ } } } } ; ; ; ; * * * * @+@+@+@+G.+ G.+ A _ ) _ ( { ( ( _ 4 _ _ ",
"* * * * & i & i < < < : : : : : E.E.E.E.E.E.. . & & # & ~ ( ~ ~ ' $ ' $ $ $ $ $ @+@+@+@+* * * * @ $ $ $ _ ) ) W.) ) _ W.= = = = ",
"* * * * i & i & : < : < : : : : E.E.E.E.E.. . . & # % % ~ ( ( ~ G.$ G.$ $ $ $ $ @+@+@+^ * * * * $ $ $ $ W.) ) _ ) _ ) ) = = = = ",
"* * * * & i & i < : < : : : : : ; ; ; ; . . . . % % % % ( ~ ~ ( $ $ ' G.$ $ $ $ @+@+^ ^ * * * * $ $ $ $ _ ) ) ) W.) ) ) = = = = ",
"* * * * i & i i : < : < : : : : ; ; ; - . . . . % % % % ~ ~ ( ~ G.' $ @ $ $ $ $ @+@+^ ^ * * * * $ $ $ $ ) W.) A ) _ W._ = = = = ",
"& & & & # # # % { ~ ( ~ )   )   . V.V.. * * * * > . . .         )       _ A _ A ^ 4 _ ^ ^ ^ ^ ^ / / ^ ^ )     A _ _ 4 _ = = = = ",
"# & # & # # # # ~ ~ ~ ~ ) )   ) V.V.V.V.* * * * . . . .                 A _ A _ ^ ^ _ 4 ^ ^ ^ ^ / / ^ ^     )   4 4 _ _ = = = = ",
"& & # % # % # % ~ ~ { ~ A A ) ) . - - . * * * * . . . .                 _ A _ ) / _ / 4 ^ ^ ^ ^ ^ ^ ^ ^   )     _ 4 _ 4 = = = = ",
"& % & & # # # # ~ ( ~ ~ A A )   V.V.. - * * } } . . . .                 A _ ) ) 4 4 / _ ^ ^ ^ ^ ^ ^ ^ ^     )   _ _ 4 _ = = = = ",
"- V.V.V.~ ~ ~ ~ & & & # _ _ 4 _ q } } q ) )             . . . . > . . . . . . . ] ] ] ] * * * * > > > > = = = = - - = = * * * * ",
"V.V.= = ~   ~ ~ & $ i $ / _ _ 4 } q q }   )             . . . . . . . . . . . . ] ] ] ] * * * * > > > > = = = = - - = = * * * * ",
"V.- = V.~   ~   & $ & & 4 _ _ 4 } } } }                 . . . . . . . . . . . . ] ] ] ] * * * * > > > > = = = = = = = = * * * * ",
"V.V.- - ~ ~ ~ ~ & & & % _ _ 4 _ q } q /                 . . > , . . . . . . . . ] ] ] ] * * * * > > > . = = = = = = = = * * * * ",
"W.A ) A ; ; ; ; q q q q ) A A A _ 4 _ _ ; ; ; ; = V.V.V.# & & #                 . . . . * * * * % % % % $ $ $ $ = = = = ] _ _ _ ",
"A ) A ) ; ; ; ; q q q q A A A A 4 _ _ 4 ; ; ; ; . = V.V.& # # &                 . . . . * * * * % % % % $ $ $ $ = = = = _ _ _ _ ",
") A W.A ; ; ; ; q q q q A A A A 4 _ _ 4 ; ; ; - V.V.V.V.# & & #                 . . . . * * #+* % % % % $ $ $ $ = = = = _ _ _ _ ",
"A ) A ) ; ; ; ; q q q / A A A A _ 4 _ 4 ; ; ; ; V.V.V.V.& & # &                 . . . . * * . #+% % % % $ $ $ $ = = = = _ _ _ _ "};
