/* XPM */
static char * cobblestone5_xpm[] = {
"64 64 228 2",
"  	c #898888",
". 	c #6C6B6B",
"+ 	c #B0B0B0",
"@ 	c #AFABAB",
"# 	c #A7A7A7",
"$ 	c #A9A9A9",
"% 	c #A3A3A3",
"& 	c #A0A0A0",
"* 	c #716F6F",
"= 	c #666464",
"- 	c #646464",
"; 	c #626161",
"> 	c #6C6C6C",
", 	c #696969",
"' 	c #ACACAC",
") 	c #868686",
"! 	c #8C8C8C",
"~ 	c #8D8D8D",
"{ 	c #909090",
"] 	c #7F7F7F",
"^ 	c #7C7A7A",
"/ 	c #7A7A7A",
"( 	c #929292",
"_ 	c #818181",
": 	c #979797",
"< 	c #9B9B9B",
"[ 	c #BB3200",
"} 	c #BC3301",
"| 	c #BD3402",
"1 	c #BC3402",
"2 	c #727272",
"3 	c #BF3603",
"4 	c #C13806",
"5 	c #C23906",
"6 	c #BF3604",
"7 	c #BE3502",
"8 	c #C13805",
"9 	c #C43C08",
"0 	c #C53C09",
"a 	c #BE3503",
"b 	c #999999",
"c 	c #C03703",
"d 	c #C13804",
"e 	c #C33A07",
"f 	c #C63D0A",
"g 	c #C43B08",
"h 	c #C63C0A",
"i 	c #C53B08",
"j 	c #BA3100",
"k 	c #CB4413",
"l 	c #CA4313",
"m 	c #C73F0E",
"n 	c #C23908",
"o 	c #C03705",
"p 	c #C53B09",
"q 	c #C03704",
"r 	c #7C7C7C",
"s 	c #C74113",
"t 	c #CE4A1B",
"u 	c #D04B1D",
"v 	c #CB4618",
"w 	c #C33C0D",
"x 	c #BE3604",
"y 	c #C43A08",
"z 	c #C33A08",
"A 	c #BD3401",
"B 	c #BE3606",
"C 	c #C64114",
"D 	c #D04E21",
"E 	c #D55225",
"F 	c #D04D20",
"G 	c #C54013",
"H 	c #BE3605",
"I 	c #9C9C9C",
"J 	c #C03908",
"K 	c #C84215",
"L 	c #D24F22",
"M 	c #D75527",
"N 	c #D35023",
"O 	c #C94417",
"P 	c #C13908",
"Q 	c #BE3402",
"R 	c #777777",
"S 	c #C43D0C",
"T 	c #CB4517",
"U 	c #D45023",
"V 	c #D95628",
"W 	c #D65224",
"X 	c #CD4819",
"Y 	c #C53D0C",
"Z 	c #878787",
"` 	c #B83D08",
" .	c #C54110",
"..	c #CE4D1E",
"+.	c #D65C2D",
"@.	c #DB6533",
"#.	c #D85F2E",
"$.	c #D05021",
"%.	c #C94110",
"&.	c #C23805",
"*.	c #5A5A5A",
"=.	c #AF3B05",
"-.	c #C24413",
";.	c #CF5C2B",
">.	c #D97740",
",.	c #DE854A",
"'.	c #DA7B43",
").	c #D1612F",
"!.	c #C84515",
"~.	c #C23704",
"{.	c #BF3502",
"].	c #8A3C05",
"^.	c #A53604",
"/.	c #BC4415",
"(.	c #CC6D38",
"_.	c #DB9555",
":.	c #E3A762",
"<.	c #DD9958",
"[.	c #CF733D",
"}.	c #C5481B",
"|.	c #C03000",
"1.	c #774207",
"2.	c #833D06",
"3.	c #9B3504",
"4.	c #B24617",
"5.	c #C87942",
"6.	c #DDAA63",
"7.	c #E6BD71",
"8.	c #DFAC65",
"9.	c #CF7F46",
"0.	c #C34C20",
"a.	c #BD2700",
"b.	c #7B4608",
"c.	c #7F4107",
"d.	c #8E3C06",
"e.	c #A34A19",
"f.	c #C18148",
"g.	c #DCB56B",
"h.	c #E8C776",
"i.	c #E1B269",
"j.	c #D28449",
"k.	c #C55023",
"l.	c #BE2A00",
"m.	c #5D5D5D",
"n.	c #814A0B",
"o.	c #7F480A",
"p.	c #7E4609",
"q.	c #824308",
"r.	c #904E1A",
"s.	c #B28347",
"t.	c #D7B76C",
"u.	c #E7C777",
"v.	c #E2B169",
"w.	c #D4844A",
"x.	c #C85223",
"y.	c #C03101",
"z.	c #864F0D",
"A.	c #844D0D",
"B.	c #824B0C",
"C.	c #7F490A",
"D.	c #845017",
"E.	c #A07A3F",
"F.	c #C5A861",
"G.	c #DABA6D",
"H.	c #DBA962",
"I.	c #D08146",
"J.	c #C55321",
"K.	c #89500E",
"L.	c #88500E",
"M.	c #864F0E",
"N.	c #864E0D",
"O.	c #844D0C",
"P.	c #834C0C",
"Q.	c #824D11",
"R.	c #90682F",
"S.	c #A9884A",
"T.	c #BB9A57",
"U.	c #BF9050",
"V.	c #BA723B",
"W.	c #B34E1D",
"X.	c #626262",
"Y.	c #874F0E",
"Z.	c #854E0D",
"`.	c #844D0F",
" +	c #85551C",
".+	c #8C622B",
"++	c #926B34",
"@+	c #956630",
"#+	c #945825",
"$+	c #824D0E",
"%+	c #7D490C",
"&+	c #7A480E",
"*+	c #78460F",
"=+	c #754209",
"-+	c #8A500E",
";+	c #7E480A",
">+	c #7A4508",
",+	c #754207",
"'+	c #AEAEAE",
")+	c #884F0E",
"!+	c #864D0D",
"~+	c #874F0D",
"{+	c #824C0C",
"]+	c #834B0C",
"^+	c #7E490A",
"/+	c #7F490B",
"(+	c #804A0B",
"_+	c #854D0C",
":+	c #747474",
"<+	c #7A4608",
"[+	c #794608",
"}+	c #794508",
"|+	c #7A4609",
"1+	c #7C4709",
"2+	c #676767",
"3+	c #828282",
"4+	c #754307",
"5+	c #764307",
"6+	c #784308",
"7+	c #734006",
"8+	c #734106",
"9+	c #744106",
"0+	c #744107",
"a+	c #724006",
"b+	c #714006",
"c+	c #713F06",
"d+	c #7C7979",
"e+	c #737373",
"        . . . . . . . . + + + + @ # # $ . . . . . . . . $ $ $ $ % & % % * * * * = = - - ; ; ; ; > > , > * * * * # # # # ' + + + ",
"        . . . . . . . . + + + + # @ $ $ . . . . . . . . $ $ $ $ % % & % * * * * = = - - - ; ; ; , > . > * * * * # # % # + + + + ",
"        . . . . . . . . + + + + # # # @ . . . . . . . . $ $ $ $ & & % % * * * * = = = = ; ; ; ; . . . . * * * * # # # # + + + + ",
"        . . . . . . . . + + + + @ # # # . . . . . . . . $ $ $ # % % % & * * * * ; = ; = ; ; ; ; . . . . * * * * % # % # + + + + ",
"        . . . . $ $ $ $ ' ' ' '                 $ $ $ $   ) ) ) + + + + ! ~ ~ ~ ~ { ~ ~ . . . . . . . . & % % % ] ] ] ] ] ] ] ] ",
"        . . . . $ $ $ $ ' ' ' '                 $ $ $ $ ) ) ) ) + + + + ~ ~ ~ ~ ~ { ~ { . . . . . . . . % % % % ] ] ] ] ] ] ] ] ",
"        . . . . $ $ $ $ ' ' ' '                 $ $ $ $ ) ) ) ) + + + + ~ ~ ~ ~ ~ ~ ~ ~ . . . . . . . . % % % % ] ] ] ] ] ] ] ] ",
"        . . . . $ $ $ $ ' ' ' '                 $ $ $ $ ) ) ) ) + + + ' ~ ~ ~ ~ { ~ ~ ~ . . . . . . . . % % % % ] ] ] ] ] ] ] ] ",
"^ ^ ^ ^ & & & & / / / / ^ ^ ^ ^         . . . . $ $ $ $ ( ( ( ( ] ] ] ] ] ] ] ] _ _ ) ) , * , . * * * * ^ ^ ^ ^ : : : : _ _ ) _ ",
"^ ^ ^ ^ & & & & / / / / ^ ^ ^ ^         . . . . $ $ $ $ ( ( ( ( ] ] ] ] ] ] ] ]   ) _ ) * . * . * * * * ^ ^ ^ ^ : : : :   _ ) _ ",
"^ ^ ^ ^ & & & & / / / / ^ ^ ^ ^         . . . . $ $ $ $ ( ( ( ( ] ] ] ] ] ] ] ] ) ) ) ) . * * . * * * * ^ ^ ^ ^ : : : : _ ) _ _ ",
"^ ^ ^ ^ & & & & / / / / ^ ^ ^ ^         . . . . $ $ $ $ ( ( ( ( ] ] ] ] ] ] ] ] _   _ ) . * . * * * * * ^ ^ ^ ^ : : : : _ _ _   ",
"^ ^ ^ ^ * * * * < < < <         . > * * . * * . ] ] ] ] _ _ _ _ ( { ~ { ] ] ] ] ; ; ; ; ; ; ; ; # % # % * * * * ^ ^ ^ ^ ; ; ; ; ",
"^ ^ ^ ^ * * * * < < < <         * . . . * . . * ] ] ] ] [ [ [ [ [ [ [ [ [ [ [ [ [ [ [ [ ; ; ; ; % # % # * * * * ^ ^ ^ ^ ; ; ; ; ",
"^ ^ ^ ^ * * * * < < < <         . . . * , * . . ] ] ] ] _ [ [ [ [ [ [ } | | 1 } [ [ [ [ ; ; ; ; # % # % * * * 2 ^ ^ ^ ^ ; ; ; ; ",
"^ ^ ^ ^ * * * * < < < <         * . . . * , * > ] ] ] ] _ _ [ [ [ [ } 3 4 5 6 } [ [ [ [ ; ; ; ; % # % # * * * 2 ^ ^ ^ ^ ; ; ; ; ",
"< < : < # $ $ $ . . . . . . . . . > * , ; ; ; ; * * * * . . . . . } 7 8 9 0 5 a } [ [ [ < b < b ] ] ] ] ] ] ] ] * * * * * * * * ",
"< : < : $ $ $ $ . . . . . . . . . * , * ; ; ; ; * * * * . . . . . c d e 0 f g 8 a | [ [ b < b < ] ] ] ] ] ] ] ] * * * * * * * * ",
": < : < $ $ $ $ . . . . . . . . . * . . ; ; ; ; * * * * . . . . . f h i e e g 0 e 3 } j < b < b ] ] ] ] ] ] ] ] * * * * * * * * ",
"< : < : $ $ $ $ . . . . . . . . * . . * ; ; ; ; * * * * . . . . . k l m n o e h p q } $ b < < < ] ] ] ] ] ] ] ] * * * * * * * * ",
"+ + + + / r r r 2 2 2 2 + ' + ' # & & & @ ' ' ' * * * * . . . . s t u v w x 8 y z q A & _ _ r _ { { ~ { ] ] ] ]   )   ) * * * * ",
"+ ' + ' r r r r 2 2 2 2 ' + ' + & & # # @ ' ' ' * * * * . . . B C D E F G H 7 q q < & < r _ _ r { ~ { { ] ] ] ] )   )   * * * * ",
"' + + + r r r r 2 2 2 2 + ' + ' & & # I ' ' + ' * * * * . . . J K L M N O P Q | | & < & _ r r _ { { ~ ~ ] ] ] ]   ) ) ) * * * * ",
"+ + + ' r r r r 2 2 2 R ' + ' ' I # & # ' + ' ' * * * * . . . S T U V W X Y q | } < % < _ r _ _ ~ { { { ] ] ] ] )   ) ) * * * * ",
"R R R R Z Z Z Z > . . . I I I I ) _ _ ) / / / / ^ r _ r * * `  ...+.@.#.$.%.&.a } r _ _   ~ ~ ~   Z     { ( { ( ; ; ; ; *.*.*.*.",
"R R R R Z Z Z Z > . . . I I I I _ _ _ _ / / / / _ r _ r * * =.-.;.>.,.'.).!.~.{._ r r _ ~ ~ ~ ~ Z   )   ( { ( { ; ; ; ; *.*.*.*.",
"R R R R ) Z   ) . . . . I I < < _ _ _ _ / / / / r _ _ / * ].^./.(._.:.<.[.}.|.* r _ _ _ ~ ~ ~ ~   Z     { ( { ( ; ; ; ; *.*.*.*.",
"R R R R   ) ) ) . . . . I I I < ) _ _ ) / / / / r r r _ 1.2.3.4.5.6.7.8.9.0.a.* _ _ r r ~ ~ ~ ~ Z   ) ) ( { ( { ; ; ; ; *.*.*.*.",
"/ / / R R R R R R 2 2 R ; ; ; ; * * * * * * * * > > . . b.c.d.e.f.g.h.i.j.k.l._ m.m.m.m.; - ; - R 2 2 2 ; ; ; ; m.m.m.m.2 * * * ",
"R / / R R R R R R 2 R 2 ; ; ; ; * * * * * * * * > > . n.o.p.q.r.s.t.u.v.w.x.y._ m.m.m.m.- - - ; 2 2 2 2 ; ; ; ; m.m.m.m.* * * * ",
"/ / / / R R R R 2 2 R 2 ; ; ; ; * * * * * * * * . . z.A.B.n.C.D.E.F.G.H.I.J._ _ m.m.m.m.; - ; - 2 2 2 2 ; ; ; ; m.m.m.m.* * * * ",
"/ R R / R R R R R 2 2 R ; ; ; ; * * * * * * * * . K.L.M.N.O.P.Q.R.S.T.U.V.W._ _ m.m.m.*.- - - - 2 2 2 2 ; ; ; ; m.m.m.m.* * * * ",
"X.X.X.X.$ $ $ $ $ $ $ $ $ $ $ $ _ _ _ _ * * * * K.K.K.L.L.Y.Z.`. +.+++@+#+$ $ $ { { { { . . > > < < < < ~ ~ ~ ~ * * * * * * * * ",
"X.X.X.; $ $ $ $ $ $ $ $ $ $ $ $ _ _ _ _ * * * K.K.K.K.K.K.K.Y.O.$+%+&+*+=+# $ $ { { { { . . > > < < < <   ~ ~   * * * * * * * * ",
"X.X.- ; $ $ $ $ $ $ $ $ $ $ $ $ _ _ _ _ * * K.K.K.K.K.-+-+K.L.N.P.;+>+,+$ $ $ $ { { { ( > > > > < < < < ~ ~ ~ ~ * * * * * * * * ",
"X.X.; ; $ $ $ '+$ $ $ $ $ $ $ $ _ _ _ _ * K.K.K.K.K.K.K.K.K.K.Y.A.n.@ @ $ $ $ $ { { { ( > > > > < < < < ~   ~ ~ * * * * * * * * ",
"Z Z             ) Z Z Z _ r _ _ ~ ~ ~ ~ )+)+)+)+L.L.L.K.K.K.K.L.N.$ $ $ $ $ $ $ > > > > ] ] ] ] . . . . ; ; ; ; $ $ $ $ $ $ $ $ ",
"Z Z             ) Z Z Z _ r r _ ~ ~ ~ !+!+!+!+N.N.N.N.~+)+L.L.K.L.$ $ $ $ $ $ $ > > > > ] ] ] ] . . . . ; ; ; ; $ $ $ $ $ $ $ $ ",
"              Z Z Z Z Z r _ _ r ~ ~ ~ {+{+B.]+]+]+P.P.O.!+~+L.K.$ $ $ $ $ $ $ $ > > . . ] ] ] ] . . . . ; ; ; ; $ $ $ $ $ $ $ $ ",
"              Z Z Z Z Z _ _ r _ ~ ~ ~ C.C.^+^+;+;+^+/+(+B._+z.* $ $ $ $ $ $ $ $ > > > . ] ] ] r . . . . ; ; ; ; $ $ $ $ $ $ $ $ ",
":+* * * - ; ; ; ~ Z   Z _ _ r _ - ; ; <+<+[+[+[+}+[+|+1+;+. 2+. ; ; ; ; r _ _ r _ _ r _ ; ; ; ; ; ; ; ; $ $ $ $ $ $ $ $ _ 3+3+3+",
"* * * * ; ; ; ;       ~ _ r _ r ; ; ; ,+4+4+4+4+4+4+5+6+}+= > 2+; ; ; ; _ r r _ _ r r _ ; ; ; ; ; ; ; ; $ $ $ $ $ $ $ $ _ _ 3+3+",
"* * * * ; ; ; ; ~     Z r r _ _ ; ; 7+8+8+8+8+8+8+8+9+0+2+2+. 2+; ; ; ; _ _ _ _ r _ _ r ; ; ; ; ; ; ; ; $ $ $ $ $ $ $ $ 3+3+3+3+",
"* * * * ; ; ; ;       Z _ _ r _ ; ; a+a+a+a+a+a+b+b+c+2 . 2+2+. ; ; ; ; r _ r r _ r _ _ ; ; ; ; ; ; ; ; $ $ $ $ $ $ $ $ 3+3+3+3+",
". . , > * * * * ; ; ; ; ; ; ; ; a+a+a+a+a+a+a+a+c+c++ ' _ _ ) _ 2 2 2 2 ; ; ; ; 2 * * * ^ ^ d+d+'+'++ '+) ) _ ) { ( { ( _ _ r _ ",
". > > > * * * * ; ; ; ; ; ; ; ; a+a+a+a+a+a+a+a+' + ' + ) _ _ _ 2 R 2 R ; ; ; ; * * * * d+d+d+d+'++ '++ Z _ Z ) ( { ( { _ r r _ ",
". . > , * * * * ; ; ; ; ; ; ; ; a+a+a+a+a+a+a+a++ ' + ' _ _ _ _ 2 R 2 2 ; ; ; ; * * * * d+d+d+d++ '++ '+) ) ) ) { ( { ( r _ _ r ",
". . > > * * * * ; ; ; ; ; ; ; ; a+a+a+a+a+a+a+% ' + ' + _ _ ) _ 2 2 2 2 ; ; ; ; * * * * d+d+d+d+'++ '++ Z _ ) _ ( { ( ( _ r _ _ ",
"* * * * & I & I < < < : : : : : a+a+a+a+a+a+. . & & # & ~ ( ~ ~ ' $ ' $ $ $ $ $ d+d+d+d+* * * * @ $ $ $ _ ) ) 3+) ) _ 3+= = = = ",
"* * * * I & I & : < : < : : : : a+a+a+a+a+. . . & # % % ~ ( ( ~ '+$ '+$ $ $ $ $ d+d+d+^ * * * * $ $ $ $ 3+) ) _ ) _ ) ) = = = = ",
"* * * * & I & I < : < : : : : : ; ; ; ; . . . . % % % % ( ~ ~ ( $ $ ' '+$ $ $ $ d+d+^ ^ * * * * $ $ $ $ _ ) ) ) 3+) ) ) = = = = ",
"* * * * I & I I : < : < : : : : ; ; ; - . . . . % % % % ~ ~ ( ~ '+' $ @ $ $ $ $ d+d+^ ^ * * * * $ $ $ $ ) 3+) Z ) _ 3+_ = = = = ",
"& & & & # # # % { ~ ( ~ )   )   . 2+2+. * * * * > . . .         )       _ Z _ Z ^ r _ ^ ^ ^ ^ ^ / / ^ ^ )     Z _ _ r _ = = = = ",
"# & # & # # # # ~ ~ ~ ~ ) )   ) 2+2+2+2+* * * * . . . .                 Z _ Z _ ^ ^ _ r ^ ^ ^ ^ / / ^ ^     )   r r _ _ = = = = ",
"& & # % # % # % ~ ~ { ~ Z Z ) ) . - - . * * * * . . . .                 _ Z _ ) / _ / r ^ ^ ^ ^ ^ ^ ^ ^   )     _ r _ r = = = = ",
"& % & & # # # # ~ ( ~ ~ Z Z )   2+2+. - * * 2 2 . . . .                 Z _ ) ) r r / _ ^ ^ ^ ^ ^ ^ ^ ^     )   _ _ r _ = = = = ",
"- 2+2+2+~ ~ ~ ~ & & & # _ _ r _ R 2 2 R ) )             . . . . > . . . . . . . ] ] ] ] * * * * > > > > = = = = - - = = * * * * ",
"2+2+= = ~   ~ ~ & $ I $ / _ _ r 2 R R 2   )             . . . . . . . . . . . . ] ] ] ] * * * * > > > > = = = = - - = = * * * * ",
"2+- = 2+~   ~   & $ & & r _ _ r 2 2 2 2                 . . . . . . . . . . . . ] ] ] ] * * * * > > > > = = = = = = = = * * * * ",
"2+2+- - ~ ~ ~ ~ & & & % _ _ r _ R 2 R /                 . . > , . . . . . . . . ] ] ] ] * * * * > > > . = = = = = = = = * * * * ",
"3+Z ) Z ; ; ; ; R R R R ) Z Z Z _ r _ _ ; ; ; ; = 2+2+2+# & & #                 . . . . * * * * % % % % $ $ $ $ = = = = ] _ _ _ ",
"Z ) Z ) ; ; ; ; R R R R Z Z Z Z r _ _ r ; ; ; ; . = 2+2+& # # &                 . . . . * * * * % % % % $ $ $ $ = = = = _ _ _ _ ",
") Z 3+Z ; ; ; ; R R R R Z Z Z Z r _ _ r ; ; ; - 2+2+2+2+# & & #                 . . . . * * e+* % % % % $ $ $ $ = = = = _ _ _ _ ",
"Z ) Z ) ; ; ; ; R R R / Z Z Z Z _ r _ r ; ; ; ; 2+2+2+2+& & # &                 . . . . * * . e+% % % % $ $ $ $ = = = = _ _ _ _ "};
