/* XPM */
static char * cobblestone_xpm[] = {
"64 64 186 2",
"  	c #898888",
". 	c #6C6B6B",
"+ 	c #B0B0B0",
"@ 	c #AFABAB",
"# 	c #A7A7A7",
"$ 	c #A9A9A9",
"% 	c #A3A3A3",
"& 	c #A0A0A0",
"* 	c #716F6F",
"= 	c #666464",
"- 	c #646464",
"; 	c #626161",
"> 	c #6C6C6C",
", 	c #696969",
"' 	c #ACACAC",
") 	c #868686",
"! 	c #8C8C8C",
"~ 	c #8D8D8D",
"{ 	c #909090",
"] 	c #7F7F7F",
"^ 	c #7C7A7A",
"/ 	c #7A7A7A",
"( 	c #929292",
"_ 	c #818181",
": 	c #979797",
"< 	c #9B9B9B",
"[ 	c #BB3200",
"} 	c #727272",
"| 	c #999999",
"1 	c #BC3301",
"2 	c #BD3401",
"3 	c #BB3300",
"4 	c #BF3603",
"5 	c #BF3604",
"6 	c #C03704",
"7 	c #BE3503",
"8 	c #BC3401",
"9 	c #C13805",
"0 	c #C33A07",
"a 	c #C43B08",
"b 	c #C33A06",
"c 	c #BF3703",
"d 	c #7C7C7C",
"e 	c #C23906",
"f 	c #C63C09",
"g 	c #C83F0C",
"h 	c #C93F0C",
"i 	c #C83E0C",
"j 	c #BFBFBF",
"k 	c #C53C0A",
"l 	c #CA400D",
"m 	c #C93F0D",
"n 	c #C43A08",
"o 	c #9C9C9C",
"p 	c #C13A0A",
"q 	c #C43D0D",
"r 	c #C73F0E",
"s 	c #C9400E",
"t 	c #C13806",
"u 	c #777777",
"v 	c #C54013",
"w 	c #C94316",
"x 	c #CB4416",
"y 	c #CB4212",
"z 	c #C73E0C",
"A 	c #878787",
"B 	c #AF3808",
"C 	c #C0461A",
"D 	c #CA5023",
"E 	c #D05728",
"F 	c #D25627",
"G 	c #CE4B1C",
"H 	c #C73F0D",
"I 	c #C13704",
"J 	c #5A5A5A",
"K 	c #983704",
"L 	c #B23E0F",
"M 	c #C55B2B",
"N 	c #D16E3A",
"O 	c #D87942",
"P 	c #D97841",
"Q 	c #D1602E",
"R 	c #C84211",
"S 	c #C23804",
"T 	c #783F06",
"U 	c #953704",
"V 	c #B24313",
"W 	c #C96C38",
"X 	c #D7874B",
"Y 	c #DE9656",
"Z 	c #DF9555",
"` 	c #D5743D",
" .	c #CB4919",
"..	c #C53A06",
"+.	c #754207",
"@.	c #774106",
"#.	c #8D3905",
"$.	c #A94717",
"%.	c #C77A42",
"&.	c #DA9C59",
"*.	c #E3AB64",
"=.	c #E4A862",
"-.	c #DA8348",
";.	c #D15323",
">.	c #794508",
",.	c #7A4408",
"'.	c #853E07",
").	c #9B4A19",
"!.	c #BD8146",
"~.	c #D7A661",
"{.	c #E4B76C",
"].	c #E6B168",
"^.	c #DE8C4E",
"/.	c #D45B2B",
"(.	c #5D5D5D",
"_.	c #814A0B",
":.	c #7E480A",
"<.	c #7D4709",
"[.	c #7F4409",
"}.	c #8B4D18",
"|.	c #AA7C42",
"1.	c #C8A25D",
"2.	c #DDB36A",
"3.	c #E3AF67",
"4.	c #DC8C4F",
"5.	c #D3602F",
"6.	c #864F0D",
"7.	c #844D0D",
"8.	c #824B0C",
"9.	c #7F490A",
"0.	c #814F15",
"a.	c #956F36",
"b.	c #AF8D4E",
"c.	c #C7A05C",
"d.	c #D2A05C",
"e.	c #CF8349",
"f.	c #C75D2D",
"g.	c #89500E",
"h.	c #88500E",
"i.	c #874F0E",
"j.	c #864E0D",
"k.	c #854D0C",
"l.	c #834C0C",
"m.	c #814C10",
"n.	c #885A22",
"o.	c #916831",
"p.	c #9D753C",
"q.	c #A7773F",
"r.	c #A76733",
"s.	c #626262",
"t.	c #804E17",
"u.	c #80501B",
"v.	c #7F4A16",
"w.	c #884F0E",
"x.	c #814B0B",
"y.	c #7C4709",
"z.	c #784408",
"A.	c #744106",
"B.	c #724006",
"C.	c #8A500E",
"D.	c #AEAEAE",
"E.	c #874E0D",
"F.	c #874F0D",
"G.	c #834B0C",
"H.	c #844C0C",
"I.	c #844D0C",
"J.	c #864D0D",
"K.	c #7E490A",
"L.	c #7F490B",
"M.	c #804A0B",
"N.	c #747474",
"O.	c #7A4608",
"P.	c #794608",
"Q.	c #7A4609",
"R.	c #7C4609",
"S.	c #676767",
"T.	c #828282",
"U.	c #754307",
"V.	c #764307",
"W.	c #774308",
"X.	c #734106",
"Y.	c #744107",
"Z.	c #714006",
"`.	c #713F06",
" +	c #7C7979",
".+	c #737373",
"        . . . . . . . . + + + + @ # # $ . . . . . . . . $ $ $ $ % & % % * * * * = = - - ; ; ; ; > > , > * * * * # # # # ' + + + ",
"        . . . . . . . . + + + + # @ $ $ . . . . . . . . $ $ $ $ % % & % * * * * = = - - - ; ; ; , > . > * * * * # # % # + + + + ",
"        . . . . . . . . + + + + # # # @ . . . . . . . . $ $ $ $ & & % % * * * * = = = = ; ; ; ; . . . . * * * * # # # # + + + + ",
"        . . . . . . . . + + + + @ # # # . . . . . . . . $ $ $ # % % % & * * * * ; = ; = ; ; ; ; . . . . * * * * % # % # + + + + ",
"        . . . . $ $ $ $ ' ' ' '                 $ $ $ $   ) ) ) + + + + ! ~ ~ ~ ~ { ~ ~ . . . . . . . . & % % % ] ] ] ] ] ] ] ] ",
"        . . . . $ $ $ $ ' ' ' '                 $ $ $ $ ) ) ) ) + + + + ~ ~ ~ ~ ~ { ~ { . . . . . . . . % % % % ] ] ] ] ] ] ] ] ",
"        . . . . $ $ $ $ ' ' ' '                 $ $ $ $ ) ) ) ) + + + + ~ ~ ~ ~ ~ ~ ~ ~ . . . . . . . . % % % % ] ] ] ] ] ] ] ] ",
"        . . . . $ $ $ $ ' ' ' '                 $ $ $ $ ) ) ) ) + + + ' ~ ~ ~ ~ { ~ ~ ~ . . . . . . . . % % % % ] ] ] ] ] ] ] ] ",
"^ ^ ^ ^ & & & & / / / / ^ ^ ^ ^         . . . . $ $ $ $ ( ( ( ( ] ] ] ] ] ] ] ] _ _ ) ) , * , . * * * * ^ ^ ^ ^ : : : : _ _ ) _ ",
"^ ^ ^ ^ & & & & / / / / ^ ^ ^ ^         . . . . $ $ $ $ ( ( ( ( ] ] ] ] ] ] ] ]   ) _ ) * . * . * * * * ^ ^ ^ ^ : : : :   _ ) _ ",
"^ ^ ^ ^ & & & & / / / / ^ ^ ^ ^         . . . . $ $ $ $ ( ( ( ( ] ] ] ] ] ] ] ] ) ) ) ) . * * . * * * * ^ ^ ^ ^ : : : : _ ) _ _ ",
"^ ^ ^ ^ & & & & / / / / ^ ^ ^ ^         . . . . $ $ $ $ ( ( ( ( ] ] ] ] ] ] ] ] _   _ ) . * . * * * * * ^ ^ ^ ^ : : : : _ _ _   ",
"^ ^ ^ ^ * * * * < < < <         . > * * . * * . ] ] ] ] _ _ _ _ ( { ~ { ] ] ] ] ; ; ; ; ; ; ; ; # % # % * * * * ^ ^ ^ ^ ; ; ; ; ",
"^ ^ ^ ^ * * * * < < < <         * . . . * . . * ] ] ] ] _ _ _ _ { { { { ] ] [ [ [ [ [ [ ; ; ; ; % # % # * * * * ^ ^ ^ ^ ; ; ; ; ",
"^ ^ ^ ^ * * * * < < < <         . . . * , * . . ] ] ] ] _ _ _ _ { { ~ ~ [ [ [ [ [ [ [ [ ; ; ; ; # % # % * * * } ^ ^ ^ ^ ; ; ; ; ",
"^ ^ ^ ^ * * * * < < < <         * . . . * , * > ] ] ] ] _ _ _ _ ~ { [ [ [ [ [ [ [ [ [ [ ; ; ; ; % # % # * * * } ^ ^ ^ ^ ; ; ; ; ",
"< < : < # $ $ $ . . . . . . . . . > * , ; ; ; ; * * * * . . . . . . [ [ [ [ [ [ [ [ [ [ < | < | ] ] ] ] ] ] ] ] * * * * * * * * ",
"< : < : $ $ $ $ . . . . . . . . . * , * ; ; ; ; * * * * . . . . . 1 2 2 1 1 3 [ [ [ [ $ | < | < ] ] ] ] ] ] ] ] * * * * * * * * ",
": < : < $ $ $ $ . . . . . . . . . * . . ; ; ; ; * * * * . . . . . 4 5 6 5 7 8 3 [ [ $ $ < | < | ] ] ] ] ] ] ] ] * * * * * * * * ",
"< : < : $ $ $ $ . . . . . . . . * . . * ; ; ; ; * * * * . . . . 7 9 0 a a b c > $ $ $ $ | < < < ] ] ] ] ] ] ] ] * * * * * * * * ",
"+ + + + / d d d } } } } + ' + ' # & & & @ ' ' ' * * * * . . . . 5 e f g h i j j < & < & _ _ d _ { { ~ { ] ] ] ]   )   ) * * * * ",
"+ ' + ' d d d d } } } } ' + ' + & & # # @ ' ' ' * * * * . . . . 5 e k g l m n j & < & < d _ _ d { ~ { { ] ] ] ] )   )   * * * * ",
"' + + + d d d d } } } } + ' + ' & & # o ' ' + ' * * * * . . . . * p q r s i t 1 < & < & _ d d _ { { ~ ~ ] ] ] ]   ) ) ) * * * * ",
"+ + + ' d d d d } } } u ' + ' ' o # & # ' + ' ' * * * * . . . . * v w x y z 9 1 & < % < _ d _ _ ~ { { { ] ] ] ] )   ) ) * * * * ",
"u u u u A A A A > . . . o o o o ) _ _ ) / / / / ^ d _ d * * * B C D E F G H I 1 _ d _ _   ~ ~ ~   A     { ( { ( ; ; ; ; J J J J ",
"u u u u A A A A > . . . o o o o _ _ _ _ / / / / _ d _ d * * K L M N O P Q R S * _ d d _ ~ ~ ~ ~ A   )   ( { ( { ; ; ; ; J J J J ",
"u u u u ) A   ) . . . . o o < < _ _ _ _ / / / / d _ _ / * T U V W X Y Z `  ...* d _ _ _ ~ ~ ~ ~   A     { ( { ( ; ; ; ; J J J J ",
"u u u u   ) ) ) . . . . o o o < ) _ _ ) / / / / d d d _ +.@.#.$.%.&.*.=.-.;.* * _ _ d d ~ ~ ~ ~ A   ) ) ( { ( { ; ; ; ; J J J J ",
"/ / / u u u u u u } } u ; ; ; ; * * * * * * * * > > . . >.,.'.).!.~.{.].^./._ _ (.(.(.(.; - ; - u } } } ; ; ; ; (.(.(.(.} * * * ",
"u / / u u u u u u } u } ; ; ; ; * * * * * * * * > > . _.:.<.[.}.|.1.2.3.4.5._ _ (.(.(.(.- - - ; } } } } ; ; ; ; (.(.(.(.* * * * ",
"/ / / / u u u u } } u } ; ; ; ; * * * * * * * * . . 6.7.8._.9.0.a.b.c.d.e.f._ _ (.(.(.(.; - ; - } } } } ; ; ; ; (.(.(.(.* * * * ",
"/ u u / u u u u u } } u ; ; ; ; * * * * * * * * g.g.h.i.j.k.l.m.n.o.p.q.r._ _ _ (.(.(.J - - - - } } } } ; ; ; ; (.(.(.(.* * * * ",
"s.s.s.s.$ $ $ $ $ $ $ $ $ $ $ $ _ _ _ _ * * * * g.g.g.h.h.i.j.l.m.t.u.u.v.$ $ $ { { { { . . > > < < < < ~ ~ ~ ~ * * * * * * * * ",
"s.s.s.; $ $ $ $ $ $ $ $ $ $ $ $ _ _ _ _ * * * g.g.g.g.g.g.g.w.k.x.y.z.A.B.# $ $ { { { { . . > > < < < <   ~ ~   * * * * * * * * ",
"s.s.- ; $ $ $ $ $ $ $ $ $ $ $ $ _ _ _ _ * * C.g.g.g.g.C.C.g.h.j.l.:.>.+.$ $ $ $ { { { ( > > > > < < < < ~ ~ ~ ~ * * * * * * * * ",
"s.s.; ; $ $ $ D.$ $ $ $ $ $ $ $ _ _ _ _ * g.g.g.g.g.g.g.g.g.g.i.7._.@ @ $ $ $ $ { { { ( > > > > < < < < ~   ~ ~ * * * * * * * * ",
"A A             ) A A A _ d _ _ ~ ~ ~ ~ w.w.w.w.h.h.h.g.g.g.g.h.j.$ $ $ $ $ $ $ > > > > ] ] ] ] . . . . ; ; ; ; $ $ $ $ $ $ $ $ ",
"A A             ) A A A _ d d _ ~ ~ ~ j.j.j.j.j.j.j.E.F.w.h.h.g.h.$ $ $ $ $ $ $ > > > > ] ] ] ] . . . . ; ; ; ; $ $ $ $ $ $ $ $ ",
"              A A A A A d _ _ d ~ ~ ~ l.l.l.G.l.l.l.H.I.J.F.h.g.$ $ $ $ $ $ $ $ > > . . ] ] ] ] . . . . ; ; ; ; $ $ $ $ $ $ $ $ ",
"              A A A A A _ _ d _ ~ ~ ~ 9.9.K.K.:.:.K.L.M.8.k.F.* $ $ $ $ $ $ $ $ > > > . ] ] ] d . . . . ; ; ; ; $ $ $ $ $ $ $ $ ",
"N.* * * - ; ; ; ~ A   A _ _ d _ - ; ; O.O.P.P.>.>.P.Q.R.:.. S.. ; ; ; ; d _ _ d _ _ d _ ; ; ; ; ; ; ; ; $ $ $ $ $ $ $ $ _ T.T.T.",
"* * * * ; ; ; ;       ~ _ d _ d ; ; ; +.U.U.U.U.U.U.V.W.>.= > S.; ; ; ; _ d d _ _ d d _ ; ; ; ; ; ; ; ; $ $ $ $ $ $ $ $ _ _ T.T.",
"* * * * ; ; ; ; ~     A d d _ _ ; ; ; X.X.X.X.X.X.X.X.Y.S.S.. S.; ; ; ; _ _ _ _ d _ _ d ; ; ; ; ; ; ; ; $ $ $ $ $ $ $ $ T.T.T.T.",
"* * * * ; ; ; ;       A _ _ d _ ; ; B.B.B.B.B.B.Z.Z.`.} . S.S.. ; ; ; ; d _ d d _ d _ _ ; ; ; ; ; ; ; ; $ $ $ $ $ $ $ $ T.T.T.T.",
". . , > * * * * ; ; ; ; ; ; ; ; B.B.B.B.B.B.B.Z.`.' + ' _ _ ) _ } } } } ; ; ; ; } * * * ^ ^  + +D.D.+ D.) ) _ ) { ( { ( _ _ d _ ",
". > > > * * * * ; ; ; ; ; ; ; ; B.B.B.B.B.B.B.B.' + ' + ) _ _ _ } u } u ; ; ; ; * * * *  + + + +D.+ D.+ A _ A ) ( { ( { _ d d _ ",
". . > , * * * * ; ; ; ; ; ; ; ; B.B.B.B.B.B.B.B.+ ' + ' _ _ _ _ } u } } ; ; ; ; * * * *  + + + ++ D.+ D.) ) ) ) { ( { ( d _ _ d ",
". . > > * * * * ; ; ; ; ; ; ; ; B.B.B.B.B.B.B.% ' + ' + _ _ ) _ } } } } ; ; ; ; * * * *  + + + +D.+ D.+ A _ ) _ ( { ( ( _ d _ _ ",
"* * * * & o & o < < < : : : : : B.B.B.B.B.B.. . & & # & ~ ( ~ ~ ' $ ' $ $ $ $ $  + + + +* * * * @ $ $ $ _ ) ) T.) ) _ T.= = = = ",
"* * * * o & o & : < : < : : : : B.B.B.B.B.. . . & # % % ~ ( ( ~ D.$ D.$ $ $ $ $  + + +^ * * * * $ $ $ $ T.) ) _ ) _ ) ) = = = = ",
"* * * * & o & o < : < : : : : : ; ; ; ; . . . . % % % % ( ~ ~ ( $ $ ' D.$ $ $ $  + +^ ^ * * * * $ $ $ $ _ ) ) ) T.) ) ) = = = = ",
"* * * * o & o o : < : < : : : : ; ; ; - . . . . % % % % ~ ~ ( ~ D.' $ @ $ $ $ $  + +^ ^ * * * * $ $ $ $ ) T.) A ) _ T._ = = = = ",
"& & & & # # # % { ~ ( ~ )   )   . S.S.. * * * * > . . .         )       _ A _ A ^ d _ ^ ^ ^ ^ ^ / / ^ ^ )     A _ _ d _ = = = = ",
"# & # & # # # # ~ ~ ~ ~ ) )   ) S.S.S.S.* * * * . . . .                 A _ A _ ^ ^ _ d ^ ^ ^ ^ / / ^ ^     )   d d _ _ = = = = ",
"& & # % # % # % ~ ~ { ~ A A ) ) . - - . * * * * . . . .                 _ A _ ) / _ / d ^ ^ ^ ^ ^ ^ ^ ^   )     _ d _ d = = = = ",
"& % & & # # # # ~ ( ~ ~ A A )   S.S.. - * * } } . . . .                 A _ ) ) d d / _ ^ ^ ^ ^ ^ ^ ^ ^     )   _ _ d _ = = = = ",
"- S.S.S.~ ~ ~ ~ & & & # _ _ d _ u } } u ) )             . . . . > . . . . . . . ] ] ] ] * * * * > > > > = = = = - - = = * * * * ",
"S.S.= = ~   ~ ~ & $ o $ / _ _ d } u u }   )             . . . . . . . . . . . . ] ] ] ] * * * * > > > > = = = = - - = = * * * * ",
"S.- = S.~   ~   & $ & & d _ _ d } } } }                 . . . . . . . . . . . . ] ] ] ] * * * * > > > > = = = = = = = = * * * * ",
"S.S.- - ~ ~ ~ ~ & & & % _ _ d _ u } u /                 . . > , . . . . . . . . ] ] ] ] * * * * > > > . = = = = = = = = * * * * ",
"T.A ) A ; ; ; ; u u u u ) A A A _ d _ _ ; ; ; ; = S.S.S.# & & #                 . . . . * * * * % % % % $ $ $ $ = = = = ] _ _ _ ",
"A ) A ) ; ; ; ; u u u u A A A A d _ _ d ; ; ; ; . = S.S.& # # &                 . . . . * * * * % % % % $ $ $ $ = = = = _ _ _ _ ",
") A T.A ; ; ; ; u u u u A A A A d _ _ d ; ; ; - S.S.S.S.# & & #                 . . . . * * .+* % % % % $ $ $ $ = = = = _ _ _ _ ",
"A ) A ) ; ; ; ; u u u / A A A A _ d _ d ; ; ; ; S.S.S.S.& & # &                 . . . . * * . .+% % % % $ $ $ $ = = = = _ _ _ _ "};
