/* XPM */
static char *_7abe74ac04149a4889559e2ca81bc57poNnYg0PuVKgSQO6[] = {
/* columns rows colors chars-per-pixel */
"64 64 48 1 ",
"  c #5A5A5A",
". c #5D5D5D",
"X c #626161",
"o c #626262",
"O c #646464",
"+ c #666464",
"@ c #676767",
"# c DimGray",
"$ c #6C6B6B",
"% c #6C6C6C",
"& c #6E6C6C",
"* c #716F6F",
"= c #727272",
"- c gray45",
"; c #747474",
": c #777777",
"> c gray48",
", c #7C7979",
"< c #7C7A7A",
"1 c #7C7C7C",
"2 c gray50",
"3 c #818181",
"4 c gray51",
"5 c gray52",
"6 c #868686",
"7 c gray53",
"8 c #898888",
"9 c gray55",
"0 c #8D8D8D",
"q c #8E8E8E",
"w c gray56",
"e c #909090",
"r c #929292",
"t c gray59",
"y c #979797",
"u c gray60",
"i c #9B9B9B",
"p c gray61",
"a c #A0A0A0",
"s c gray64",
"d c #A7A7A7",
"f c #A9A9A9",
"g c gray67",
"h c #AFABAB",
"j c #ACACAC",
"k c #AEAEAE",
"l c gray69",
"z c gray75",
/* pixels */
"8888$$$$$$$$llllhddf$$$$$$$$ffffsass****++OOXXXX%%#%****ddddjlll",
"8888$$$$$$$$lllldhff$$$$$$$$ffffssas****++OOOXXX#%$%****ddsdllll",
"8888$$$$$$$$lllldddh$$$$$$$$ffffaass****++++XXXX$$$$****ddddllll",
"8888$$$$$$$$llllhddd$$$$$$$$fffdsssa****X+X+XXXX$$$$****sdsdllll",
"8888$$$$ffffjjjj88888888ffff8666llll90000e00$$$$$$$$asss22222222",
"8888$$$$ffffjjjj88888888ffff6666llll00000e0e$$$$$$$$ssss22222222",
"8888$$$$ffffjjjj88888888ffff6666llll00000000$$$$$$$$ssss22222222",
"8888$$$$ffffjjjj88888888ffff6666lllj0000e000$$$$$$$$ssss22222222",
"<<<<aaaa>>>><<<<8888$$$$ffffrrrr222222223366#*#$****<<<<yyyy3363",
"<<<<aaaa>>>><<<<8888$$$$ffffrrrr222222228636*$*$****<<<<yyyy8363",
"<<<<aaaa>>>><<<<8888$$$$ffffrrrr222222226666$**$****<<<<yyyy3633",
"<<<<aaaa>>>><<<<8888$$$$ffffrrrr222222223836$*$*****<<<<yyyy3338",
"<<<<****iiii8888$%**$**$22223333re0e2222XXXXXXXXdsds****<<<<XXXX",
"<<<<****iiii8888*$$$*$$*22223333eeee2222XXXXXXXXsdsd****<<<<XXXX",
"<<<<****iiii8888$$$*#*$$22223333ee002222XXXXXXXXdsds***=<<<<XXXX",
"<<<<****iiii8888*$$$*#*%222233330eee2222XXXXXXXXsdsd***=<<<<XXXX",
"iiyidfff$$$$$$$$$%*#XXXX****$$$$$$$$$*=%ffffiuiu22222222********",
"iyiyffff$$$$$$$$$*#*XXXX****$$$$$$$$*%#=ffffuiui22222222********",
"yiyiffff$$$$$$$$$*$$XXXX****$$$$$$$$$$%%ffffiuiu22222222********",
"iyiyffff$$$$$$$$*$$*XXXX****$$$$$$$$$*%%ffffuiii22222222********",
"llll>111====ljljdaaahjjj****$$$$****zzzziaia3313ee0e22228686****",
"ljlj1111====jljlaaddhjjj****$$$$****zzzzaiai1331e0ee22226868****",
"jlll1111====ljljaadpjjlj****$$$$****zzzziaia3113ee0022228666****",
"lllj1111===:jljjpdadjljj****$$$$****zzzzaisi31330eee22226866****",
"::::7777%$$$pppp6336>>>><131************313380008788ererXXXX    ",
"::::7777%$$$pppp3333>>>>3131************311300007868rereXXXX    ",
"::::6786$$$$ppii3333>>>>133>**$=********133300008788ererXXXX    ",
"::::8666$$$$pppi6336>>>>1113**==********331100007866rereXXXX    ",
">>>::::::==:XXXX********%%$$8886dddd1333....XOXO:===XXXX....=***",
":>>::::::=:=XXXX********%%$$8898dddd3333....OOOX====XXXX....****",
">>>>::::==:=XXXX********$$$$8888dddd3333....XOXO====XXXX....****",
">::>:::::==:XXXX********$$$$0898ddff3333... OOOO====XXXX....****",
"ooooffffffffffff3333****jjjjyyyyhhhhdfffeeee$$%%iiii0000********",
"oooXffffffffffff3333****jjjjyyryhhhhhdffeeee$$%%iiii8008********",
"ooOXffffffffffff3333****jjhfryryhhhhffffeeer%%%%iiii0000********",
"ooXXfffkffffffff3333***%jjffyyyyhhhhffffeeer%%%%iiii0800********",
"77888888677731330000XXXX=***====ffffffff%%%%2222$$$$XXXXffffffff",
"77888888677731130000XXXX=***====ffffffff%%%%2222$$$$XXXXffffffff",
"88888887777713310000XXXX****===:ffffffff%%$$2222$$$$XXXXffffffff",
"88888887777733130000XOXX****===*ffffffff%%%$2221$$$$XXXXffffffff",
";***OXXX07873313OXXX********$$@$XXXX13313313XXXXXXXXffffffff3444",
"****XXXX88803131XXXX********$+%@XXXX31133113XXXXXXXXffffffff3344",
"****XXXX08871133XXXX********@@$@XXXX33331331XXXXXXXXffffffff4444",
"****XXXX88873313XXXX*******=$@@$XXXX13113133XXXXXXXXffffffff4444",
"$$#%****XXXXXXXX****aassljlj3363====XXXX=***<<,,kklk6636erer3313",
"$%%%****XXXXXXXX****sssajljl6333=:=:XXXX****,,,,klkl7376rere3113",
"$$%#****XXXXXXXX****sssaljlj3333=:==XXXX****,,,,lklk6666erer1331",
"$$%%****XXXXXXXX****aassjljl3363====XXXX****,,,,klkl7363rerr3133",
"****apapiiiyyyyyXXXX%$$$aada0r00jfjfffff,,,,****hfff36646634++++",
"****papayiyiyyyyXXXX$$$$adss0rr0kfkfffff,,,<****ffff46636366++++",
"****apapiyiyyyyyXXXX$$$$ssssr00rffjkffff,,<<****ffff36664666++++",
"****pappyiyiyyyyXXXO$$$$ssss00r0kjfhffff,,<<****ffff64676343++++",
"aaaadddse0r06868$@@$****%$$$888868883737<13<<<<<>><<68873313++++",
"dadadddd00006686@@@@****$$$$888888887373<<31<<<<>><<88681133++++",
"aadsdsds00e07766$OO$****$$$$888888883736>3>1<<<<<<<<86883131++++",
"asaadddd0r007768@@$O**==$$$$88888888736611>3<<<<<<<<88683313++++",
"O@@@0000aaad3313:==:66888888$$$$%$$$$$$$2222****%%%%++++OO++****",
"@@++0800afpf>331=::=86888888$$$$$$$$$$$$2222****%%%%++++OO++****",
"@O+@0808afaa1331====88888888$$$$$$$$$$$$2222****%%%%++++++++****",
"@@OO0000aaas3313:=:>88888888$$%#$$$$$$$$2222****%%%$++++++++****",
"4767XXXX::::67773133XXXX+@@@daad88888888$$$$****ssssffff++++2333",
"7676XXXX::::77771331XXXX$+@@adda88888888$$$$****ssssffff++++3333",
"6747XXXX::::77771331XXXO@@@@daad88888888$$$$**-*ssssffff++++3333",
"7676XXXX:::>77773131XXXX@@@@aada88888888$$$$**$-ssssffff++++3333"
};
