/* XPM */
static char *_37668eff8e44bc6b8b179bc1abc0be0RpYgsoIBCisPjqfB[] = {
/* columns rows colors chars-per-pixel */
"64 64 178 2 ",
"   c #33342F",
".  c #353534",
"X  c #383635",
"o  c #363835",
"O  c #393936",
"+  c #363738",
"@  c #3A3539",
"#  c #363A3A",
"$  c #3B3B3B",
"%  c #553D17",
"&  c #53371B",
"*  c #553A1E",
"=  c #593C1E",
"-  c #4E3A23",
";  c #4D3C2B",
":  c #553723",
">  c #553A21",
",  c #593D21",
"<  c #523C2A",
"1  c #593A28",
"2  c #443F34",
"3  c #493E35",
"4  c #443E3A",
"5  c #483F3A",
"6  c #3E413E",
"7  c #5E441D",
"8  c #564425",
"9  c #5C4425",
"0  c #564329",
"q  c #5B442A",
"w  c #5F492A",
"e  c #454035",
"r  c #484137",
"t  c #43413D",
"y  c #4B423B",
"u  c #524333",
"i  c #584330",
"p  c #5E4D31",
"a  c #50433A",
"s  c #604525",
"d  c #654C26",
"f  c #694C26",
"g  c #664D29",
"h  c #694E2A",
"j  c #675027",
"k  c #67512C",
"l  c #6B522E",
"z  c #70542F",
"x  c #7C5E2E",
"c  c #644F32",
"v  c #6B4F31",
"b  c #665234",
"n  c #6C5332",
"m  c #6E5833",
"M  c #695439",
"N  c #745735",
"B  c #745737",
"V  c #735533",
"C  c #785734",
"Z  c #785736",
"A  c #7A5737",
"S  c #785734",
"D  c #725833",
"F  c #755932",
"G  c #745833",
"H  c #765A33",
"J  c #725835",
"K  c #735934",
"L  c #725837",
"P  c #755934",
"I  c #765834",
"U  c #775935",
"Y  c #765A35",
"T  c #755836",
"R  c #765836",
"E  c #765937",
"W  c #775937",
"Q  c #755B36",
"!  c #775B36",
"~  c #765935",
"^  c #785831",
"/  c #795933",
"(  c #795E31",
")  c #785D32",
"_  c #7B5E32",
"`  c #7F5E31",
"'  c #7E5D32",
"]  c #7D5E32",
"[  c #7F5F33",
"{  c #795835",
"}  c #7B5934",
"|  c #7A5835",
" . c #785A34",
".. c #7A5A34",
"X. c #795837",
"o. c #7A5936",
"O. c #785A36",
"+. c #795B37",
"@. c #7D5B36",
"#. c #785F36",
"$. c #7A5D36",
"%. c #7D5D35",
"&. c #7F5E35",
"*. c #7C5C36",
"=. c #7D5D37",
"-. c #7F5C36",
";. c #7C5B35",
":. c #735638",
">. c #755838",
",. c #775A38",
"<. c #755A3A",
"1. c #785A38",
"2. c #795B39",
"3. c #7B5F38",
"4. c #7B5D39",
"5. c #7D5C39",
"6. c #7E5E38",
"7. c #7F5E3B",
"8. c #7C5D39",
"9. c #7E602E",
"0. c #7C6031",
"q. c #7F6034",
"w. c #7D6038",
"e. c #7D613C",
"r. c #373C40",
"t. c #3B3E42",
"y. c #3F3F4B",
"u. c #403E41",
"i. c #483F44",
"p. c #3D4142",
"a. c #434342",
"s. c #494144",
"d. c #414448",
"f. c #474948",
"g. c #6A5D4D",
"h. c #755E41",
"j. c #7D5E41",
"k. c #785F41",
"l. c #5F615E",
"z. c #796142",
"x. c #696156",
"c. c #62625E",
"v. c #6B645B",
"b. c #70635A",
"n. c #5F6364",
"m. c #646463",
"M. c #696564",
"N. c #676965",
"B. c #696966",
"V. c #666769",
"C. c #6A666A",
"Z. c #666A6A",
"A. c #696969",
"S. c #825E2E",
"D. c #815B37",
"F. c #815E34",
"G. c #805D37",
"H. c #835D36",
"J. c #815E36",
"K. c #805D35",
"L. c #815E35",
"P. c #805C38",
"I. c #815E38",
"U. c #825F39",
"Y. c #815D3B",
"T. c #815F3A",
"R. c #835F3B",
"E. c #815F3C",
"W. c #825E3E",
"Q. c #865F3E",
"!. c #815E39",
"~. c #836036",
"^. c #856137",
"/. c #816036",
"(. c #836038",
"). c #81613A",
"_. c #84603C",
"`. c #82613A",
/* pixels */
"q q 8 s :.Q X.F n n l m d j g g 9 7 8 s <.,./ C Y.D.D.Y.l m m l 9 9 7 d D Q C C X.X.F / J.J.J.' s 9 7 9 N X.Q G n n l n d j g j ",
"q 8 8 w J X.Q F n n l n g j g g 7 9 7 8 J Q C / J.=.J.Y.l l l b 9 7 9 7 D Q X.C C N F X.=.H.' ' w 7 7 9 N :./ Q n n l m g j g k ",
"q q q w :.1.Q Q n n l n d g d d 7 9 7 w :.1.X./ (.Y.Y.(.n l n l 7 9 7 9 N 1.1.X.X.Q Q #.J.J.J.=.s 9 9 9 J Q Q #.n l l l d j g j ",
"q 8 8 w J N Q D V n V n d g d d 9 7 9 w J <.Q Q #.#.=.2.m l n n 9 8 9 w J N Q Q Q D V  .@.J.@.@.9 8 7 s J N N Q n V n n d g d g ",
"q 8 8 8 J V n n Q X.N Q g h g g 7 9 7 7 n n m l h h h h n l n n 9 9 9 7 n n V l n n l D C } } C 9 9 9 7 n n l m N N N F g k h g ",
"q 8 w 8 n n n n Q 1.:.N g g g g 9 9 9 9 n n l b f f f h l n n l 9 7 9 9 n n n l l l l n G } C G w 9 9 9 n n b n Q X.Q F h g d h ",
"q q q 8 n n n n N X.:.:.g g s g 9 9 7 9 n n n l h g k g n l n l 7 9 9 9 n n n n n n n J N } X.Q 9 w 9 9 n n n n C C / Q h f d g ",
"q 8 8 w v n v n N X.X.:.h g g h 7 9 9 9 n m n n d j h h m l n n 7 9 7 9 n n n n n n b n C C N J 9 9 9 9 b l l m C X.X.Q h h f h ",
": % > 1 #.6.j.#.M n v v c g k g % * > * 0.9.q.w.k h g g n n n b 8 % - > ) ' 2.9.Q Q X.<.n n n n * = : , x q.q.' n n n m d j g h ",
"> % * , ' ^.R.F.n v n v g s g g > : : > 6././.Y.f d h g n k l k < > > 1 =.J._.J.X./ G G n l l k : * < 1 =.^.R.Y.l l l l w j j j ",
": % & = / J.Y.x :.M v v g h g s > * = = X.=.F.} k d h g m l n n * & & = #.J.R.S.G C 1.Q V l n n * = & % x ~.Y.S.n n l V f h h f ",
"> * > 8 L k.z.z.n v V V s g h g * % % 9 L e.z.e.f f h h h l n h * = = * e.z.e.e.C C C V G z l n % % = 9 L 2.z.e.n n l m s g d d ",
"q 8 q < a r e r N.A.A.c.t.. o o 0 q 1 < y 5 4 3 N.V.N.m.$ + + + q 0 1 i b.B.v.v.a.6 a.f.m.Z.Z.m.q q 0 < a 4 4 3 V.C.C.n.$ + X @ ",
"8 q q 0 t t.6 d.m.B.B.c.$     o , q s u a.t.p.d.m.C.V.V.+ + + + q q s u B.A.Z.V.a.$ $ a.m.A.A.m.q q w 0 a.t.t.d.n.Z.V.m.+ . . # ",
"8 q 9 0 u.t.$ u.V.N.C.m.4 o o o 9 7 7 0 e $ t.t C.C.V.V.$ # + + 8 s q 0 v.A.N.m.t $ p.a.m.N.A.B.9 9 7 8 t t.$ a.C.C.C.C.$ @ + @ ",
"8 q 9 8 5 p.t i.m.N.M.c.O   o X q 9 9 0 5 d.u.y V.N.C.M.O . O + 8 1 s q M.C.B.M.a.4 $ a.m.N.M.c.w q 7 8 i.p.6 s.m.M.M.N.@ + . @ ",
"* > * * g d d g g k k g n c n c > * & > s j d d n M n n g d g d * & - 7 g h l g g s g g M M M M * * & > s h f d v n n v h g g g ",
"* * : = g d h s d g g g n n n n * > & 9 g j g g n n n n c g g g > * > * g h g g g g g g J n M n * 7 & 8 h f d h n n V n v s g g ",
"* > > * g d h h g g g g l l l v , > > , d d d d n n n n g g k g * * > * g g f d g g h g n h v v * * & * f f d f n n n n h g g h ",
"* * > = s h g g g g v h V l z V * * & * f l f h n h n l g g g g * * : * h h f k h g g h V V V l * * * * h f f j v v l h v g g g ",
"* * : = g f g g l l n h #.=.D.} , & * , Q #.@.@.h h h l g d g d > & & 8 N Y.=.X.l l V l 2.2.q.#.7 - * > Q @.=.X.h g h h g g h g ",
"* & * * g g g h l n v V Y./.H.D., * * , 6.(.(.R.g d g h d d h d > * & > 6.^.J.q.n n l z e.(._.=.7 & * = 6.(.(.=.g d g g g g h d ",
"* * : * g f g h n v V l =.F.F.^ , > & = @.Y.6.D.h d d d h g h d * > & * } ^.} F.n v l z =.q./.} * & * 9 1.Y.J.@.h h f f f h f h ",
"* > > = s g g g n n v z ' ~.H.S.> > > = 6.J.D.D.h g h h g h h d > 8 & 8 D.H.F.Y.M n n V =.=.F.} * & * * @.R.R.J.h h h f h h h f ",
"& : > = d d g g v v v J } H.~.F.> * > * d k d k Q C C N f g d d * * * * #.J./.J.X.X.X.N V n n n = = * = 6.H.J.@.v h h n h d h g ",
"> > > * g d g h n n v V #./.F.F.* > > * g j j d F C X.X.f g h g > & * * 2.Y.J.Y.X.C C N n n b n = * * = @.Y.J.@.n n V l g g h f ",
"* : : % g h g g v h v V @.(.R.@.> * > * g d j j C X.C Q f h h d > * 7 * X.Y.(.(.1.C } N n n n n = * * , 7.Y.J.J.n v n n g d g g ",
"* > : = s d h h l V v V ) /.J.@.= * > > g j j l } / / / h d d g > - - * =.6.6.6.C X.} G n n b n = * * , 1.Y.J.=.v n n h g d h f ",
"* : * = g d g g G N <.Q C / / C = * > > g l l l =.=.=.#.h h g d * & * * C @.} C F C X.G k j k d = & & * C @.X./ n v n v h g h g ",
"* > : * g d g h F 1.1.1./ F F N * > > , n n l m J.F.6.q.l f d g * * > * Q C } C X./ @.G g k w d = % > * Q X.C G v v n n g g h g ",
"* * : * d d g g G X.X.X.F F Q <., > > > n l n n ' q.=.#.f f d g * 8 > * Q / C X.X.X.X.F j d d k * * * * 1.C X.N M v n v g d h d ",
"> : > = s h h g G / Q N Q / X.N = * * > c l l n ~.q.q.=.f f h g * & > * N / X.X.Q X.@.F j w d g & * * * C C Q N :.v v n h d h d ",
"= & , * d j f h Q F X.Q n n J v > > > * d g d g =././.=.n v n n * > * = N / C @.=./.q.' d g g d & > & , N X.^ #.X./ F Q f f h d ",
"* * : * g f j j / X.C X.l n n h , > > > g k j g =./.(.#.V v v k * 8 * = N X.C C =.q.~.=.g d g g = , & = Q ) z X./ Q X.Q h h d h ",
"& > > * d d d k F z C X.h n n v * * * * d k g l J.J.(.#.n v v l * > & = Q 2.C @.=.~.=.' g g g g * * & , Q X.X.1.Q X.F F f h h d ",
"* , , * g d j d / } / X.l n n v = > > 8 g d g h =.=./.X.V V V n 7 > - > G X.N :.=.' ~.=.g k g g = = > , V Q Q :.X.F X.Q h h d h ",
"9 8 q , f j j h =.=.Y.=.h h g h q , q 9 k j g h J.=./.J.X.:.<.<.9 q , 9 n V v V =././.J.v n v h 9 q , s l z V n Q / F X.f h d h ",
"8 8 q q k f f f J.(.Y.=.h g g s q 9 s 9 j d d g J.J./.e.@.2.2.1.9 9 s s n h n v =././.e.n n V v s s q s n h n n C Q X.Q h f h d ",
"8 8 q 9 k d d f @.D.J.=.h g g h s 9 , 9 g d h h J.=.~.' } 1.X.G 9 9 q q n n n M =.q.J.6.h n v V 7 9 9 9 n l n M X.F Q F h f g d ",
"8 8 q 9 k d f f =.J.R.=.f g g h , q 9 9 l f g h J.J./.J.1.C Q G w 9 q q n n n v =.Y.q.Y.n n n v 9 q 9 9 n l n n Q X.X.Q f h d h ",
"8 w q 8 g j d k J.J.J.X.z l l g 9 9 9 9 d f f k F.H.F.} l f d h 9 9 9 9 k d d h /.J./.=./ Q X.J s 9 9 9 k j d k ' F.=.#.f f f j ",
"8 8 8 9 k d d f J.Y.Y.6.G n n n 9 9 9 9 d d d f =.(.J.=.f f d d 9 9 9 9 g d d h =.=.(.6.X.1.1.1.s 9 q 9 d w d g ' /.J.#.f f d g ",
"8 9 q 9 k j f k =.J.E.6.V h n v s 9 q 9 j d d f =.^.(.=.z f f h w 9 8 9 g g g v J.=.6.6.X.1.X.N q 9 q 9 d w d k =.^.(.6.h f d h ",
"8 q q 9 h d j f =.Y.Y.=.z z V n 9 9 9 9 k f k g =.=.2.) f f f h 9 = q , g d g h (.Y.e.6.@.1.1.G 9 , 8 9 j j d k X.=.#.X.h h f h ",
"* > > , d d d d H.H.R.J.@.@.@./ 9 * > = d d f g l ^ l z d h g d = * > * g d g g q.) =./.' =.q.#.= % > * w j d d V V l V h h h h ",
"* > > * d d j d H.J.H.J.Y.^.^.Y.% & * * d d g h k l l l d h h d % * * * d d g g ~.=././.=././.=.= = * * d j j d l n h n d h g g ",
"* * , > d j f j Y.6.(.(.J.Y.Y.6.* & * = g g h c b n n n s h f d * * > , g h h v q.q.e.6.=.(.6.X.7 * * * d k g g n n n n g n g g ",
"* * > * d d d d 7.e.z.e.2.X.@.X.* * : & d d g g n m n n d g d f * > & , g s g v X.X.=.=.6.6.e.6.- * * * d d g g n n b n g g s g ",
"* = % < 3 t.$ t V.N.Z.m.O + + + : = = < 5 u.u.5 m.B.B.m.o . o X : , = < v.m.m.v.a.t t t B.B.B.m.* % * - e 6 6 t N.N.N.N.. . . o ",
"* & & ; 4 t.p.f.V.Z.A.N.$ . . O & & & & e $ p.t N.A.N.m.@ @ . . : , & < v.Z.N.m.$ 4 $ a.c.M.B.M.- = * - 2 t.t.p.m.Z.N.N.. .   . ",
"& , , < 4 t.$ p.m.M.A.c.O   . O : , , ; 4 t.t.a.m.A.A.m.@ X . @ : * > 0 v.A.Z.M.t t $ t m.B.B.m.8 * > ; e p.p.p.m.M.A.m.# . o o ",
"> & & - u r r y N.N.B.l.t # . # : : : : 3 3 4 5 m.B.C.m.$ + . @ > * * 0 g.x.x.x.t t 2 f.c.B.B.m.* & * - e e 2 e N.Z.N.n.O .   . ",
"8 q 9 s <.z.z.h.n n n n s s g g 9 9 7 9 w k p g @.Y.6._.V X.S S 8 q 7 9 c b b c =.J.Y.} J./ C X.9 q 9 9 w p g b =.=._.(.f f f h ",
"8 9 9 7 w.e.(./.m n n n k j j s 9 q 7 9 d f f f Y.6.=.(.C X.} V 9 q 8 7 d d d f x =./.=.' z G C 9 9 9 7 d f f j J.=.e.=.f f f d ",
"q q 8 s 2.J.J.' n n l l k j j d q q q q g g h g } J.J.Y.C } } } 9 q 9 9 d d f k ^././.' ' X.G G 9 q 9 s h f f h F.J.H.J.f h h f ",
"8 0 q 8 w.e.e.6.n n n n g d g d 7 q 9 w s g d l D.=.6.6.C C C N s 8 8 9 g g h g ' /.J.e.X.F X.1.s q q s g g h k =.J.R.D.h s g g ",
"8 0 q 9 =.J.6.=.X.X.@.C d d g d s q 9 s N 1.X.C b n n V 2.e./.=.s q q 9 G C } C X.X.X.} =.J./.' q 9 q s :.1.C C n n n l j k d d ",
"q q 8 9 #.=.Y.#.X./ C C d g g d 9 , 9 s :.1.C C m m l n 2.(.=.=.s 9 q s V C X./ / X.C } =.(.J.} 9 q 9 s N 1.C C n n n m d d d g ",
"8 q 8 9 6.=.=.=./ C X.C d g j d 9 9 9 s N 1.1.1.n n l z w.e.Y.=.7 9 q 9 N C X.X.X.F / / =.(.(.' 9 s 9 s :.1.1.1.n n l l s g d f ",
"8 0 q 9 6.J.J.=.X./ } C d j g g s q 9 s J :.:.N l n l D 2.(.@.D.s 9 q 9 J G Q F / G G C #.J.=.#.s q q s N :.Q N V n l m d d f d ",
"q q 8 9 6.=.6.#.C C / C d j g g 9 , 9 9 n V n n Q 1.X.G } A C C d 9 q 9 n V n n z z z z F X.C C 9 9 9 9 n n n n Q X.G V h k f f ",
"8 q q 9 6.=.e.=.C @.C C d j g d 9 9 q s n n n n Q #.1.C C S S C s q 8 9 v l l l l l l n G / X.G 9 9 q , b n n n X.X.N Q h h f f ",
"q 8 8 9 6.=.Y.1.@.C X.C d k g d s q q 8 n n n n G @.@.C C } } } s q 8 9 n l n n n n n n G X.C N s 9 s 9 n n n n X.@.C Q h f d f ",
"8 q q 9 6.=./.6.C } X.G d j g d 9 9 q q v n n n C X.C C } } S C s , q 8 n n n n n l l n J <.X.N 9 q s 9 n n n l C X.C C h h d f "
};
