/* XPM */
static char *_760f241414345d7c8b381ed87473f00gnYxGIB0RC6ccSD8[] = {
/* columns rows colors chars-per-pixel */
"64 64 126 2 ",
"   c #664D2F",
".  c #664C35",
"X  c #6A4C35",
"o  c #664C39",
"O  c #6B4D3B",
"+  c #704D37",
"@  c #714E3B",
"#  c #784F3D",
"$  c #665135",
"%  c #6B5135",
"&  c #67523A",
"*  c #6D523B",
"=  c #6B5A3A",
"-  c #725137",
";  c #72523D",
":  c #79543D",
">  c #70583C",
",  c #7D583E",
"<  c #6D4E41",
"1  c #734F41",
"2  c #675446",
"3  c #6E5242",
"4  c #6F5449",
"5  c #745441",
"6  c #7A5541",
"7  c #775844",
"8  c #7A5943",
"9  c #856247",
"0  c #8B6647",
"q  c #86634D",
"w  c #8A654D",
"e  c #8D684E",
"r  c #906747",
"t  c #936A4E",
"y  c #9C6E4E",
"u  c #97714D",
"i  c #9B714E",
"p  c #866550",
"a  c #8A6551",
"s  c #8C6951",
"d  c #906651",
"f  c #946C52",
"g  c #9A6F54",
"h  c #926858",
"j  c #967154",
"k  c #9D7354",
"l  c #9F7851",
"z  c #977358",
"x  c #9D7459",
"c  c #9B795A",
"v  c #A17555",
"b  c #A57856",
"n  c #A87A56",
"m  c #A27659",
"M  c #A4785A",
"N  c #A37960",
"B  c #669B3F",
"V  c #699A3F",
"C  c #729E3F",
"Z  c #698C4C",
"A  c #718C49",
"S  c #669342",
"D  c #6C9645",
"F  c #669B42",
"G  c #6C9B44",
"H  c #669748",
"J  c #6D9649",
"K  c #679849",
"L  c #6D9B4A",
"P  c #709647",
"I  c #729C45",
"U  c #719649",
"Y  c #739D4A",
"T  c #799F4C",
"R  c #6F9750",
"E  c #6D9850",
"W  c #749F50",
"Q  c #789F50",
"!  c #67A042",
"~  c #6DA245",
"^  c #6FAB47",
"/  c #6FA549",
"(  c #6EAA48",
")  c #73A346",
"_  c #78A647",
"`  c #73AA46",
"'  c #79A945",
"]  c #74A44A",
"[  c #79A64C",
"{  c #74AA4B",
"}  c #79AA4D",
"|  c #75B04C",
" . c #7CB14F",
".. c #74A552",
"X. c #7BA650",
"o. c #76AA50",
"O. c #7BAB50",
"+. c #7AA958",
"@. c #79B150",
"#. c #BE916B",
"$. c #C08F67",
"%. c #C38F68",
"&. c #C59366",
"*. c #CB9567",
"=. c #C5956B",
"-. c #CA966C",
";. c #C7986D",
":. c #CD996D",
">. c #D19966",
",. c #D1976B",
"<. c #D19B6E",
"1. c #C49671",
"2. c #CB9771",
"3. c #C69970",
"4. c #CC9A71",
"5. c #D19B72",
"6. c #D89D73",
"7. c #879594",
"8. c #8C9494",
"9. c #849897",
"0. c #84969A",
"q. c #88979B",
"w. c #85999C",
"e. c #8A9A9C",
"r. c #849BA2",
"t. c #889BA2",
/* pixels */
"G ~ V ~ G J J J } ' | | I P J G } [ [ } } | | | ~ ~ ~ ~ J P I Y ) { _ [ L K / K ] [ [ .._ { ] ] ! ! G G J D D J X.{ [ o.J J G H ",
"~ G ! I J J I P } | '  .I P Y I _ _ ' } | | | { ) ) ~ ) J Y P P ] ] ] ] L ~ K / ..] ] .._ _ ' ` K F K G D H J J ] { [ X.G L J D ",
"V ~ V ) D J J J } } ' } V D J D _ } } } { | | | ~ ) ~ ) D P U I ] [ [ ] ~ K K / { { o.+._ [ [ ] G F K G L D D L _ _ { ] G J L J ",
"I G ~ I J J I J } } | } I I I V { } } { | | | | ) ~ ~ ) G P P J ] ] ] ] / / ! K ~ ) Y Y ` _ _ _ ~ G G G G D D L X.{ { ] J D F D ",
"' ) ) ) G Y G I / { ] [ ) ] ] ] { O.} } { { { ` ~ / ^ ~ G J G I _ _ [ [ { @.o.{ * = * = D H G G _ { [ [ X.X.{ o.] L L ] { { X.X.",
"_ ' _ ] I G P G { { ] { { / ( { o.} O.{ { / ` { / / / / G G G G _ ] [ [ { @. .} * X X . D F F F { [ [ O.[ O.| | ..L ] ] [ _ _ [ ",
"_ _ _ _ G I D J { o.o.[ { / / ] o.O.O.} { ( ] { ../ / / G G G G [ T X._  .}  .} $ * X X S S F J [ [ [ [ } O.O.^ L / Y Y } [ [ X.",
") _ _ ] I J G Y / ] ] ) ] ^ ] { { O.} { ] / / ) / / / ] G L G I [ T [ ) } ' } ] * . . % S G F D [ [ X.[ O.O.#.^ ~ Y ] T } [ [ X.",
"! G F ! [ ....) = * * = G ~ F G G I I P > X % $ I { ] ~ Y ) ) Y P W U P = & % * . X o % H L L L L I I I ) / ( ] { | | ` { { { ] ",
"! G G F X.] { Y . o . $ F ~ ! ~ I I G V % o . $ J ) ] ) J Y W ) P U P U % O X X % % X X L L J L L J G G / { / ] { { | | [ [ o.[ ",
"F B F B ] { o.) * O X $ G ! ! ~ I V C V % X X * T ) ) _ ) T T G I U P U % X . o . o o % E L G L I G G I / { ~ ] @.| | @.{ } [ ] ",
"! G F G [ ] [ T & X o % D ~ ! G I V C P % o X O G ) Y Y / L W ..P U P A $ O X O ; * X > Z E L G G G J G L ~ Y ) ^ ` ^ ] ^ ] { { ",
"( ` ^ / ] Y ] J * X X % G ~ ~ G ) ) _ T ; O @ O * % & = ] { { / : X % % X X X % t j k t > X X - * * O $ * $ $ & * * . = ] O.{ ' ",
"^ { { { ) ) Y Y * X X % Y ) ) ] T ) _ I = O @ O . X o $ { { { ] & X X . O O X X v v v k * X X o . O X . o . . . . X X % ) ) ) _ ",
"^ ] { { ) Y Q Y X o X % J ) I I [ _ _ T * O O O . X o X ) { o.) %   X X . X o % k x k j X . . . . X X X X . X X . . . * ) { { { ",
"^ ` { ( I Y Y U = - - - D I G I I I ) T * ; ; @ O * O = ) { { ) 5 o & * O * X * l x v i : 3 - * . O X X O * O O = ; O 5 C ] ) ] ",
"/ L L J * & & = $.*.-.&.; % = O * & % * y k g y k k k f % * $ > g k j x i k g i v k k v =.-.-.&.; O O * f k k k -.-.-.&.* * = O ",
"Y Y U J * O o @ =.5.5.=.* o . X . X o & i m k m l k v k % . . * k v k x k x x v v k c v 2.<.5.;.: O O : g v k v :.:.5.-.* . . X ",
"J Y Y J X X . * -.6.:.;.O . . % X X X * y x j x v k v j X X X X f v k k k k k k k k x v 2.<.<.=.5 O O O x v x m ;.:.5.-.* . O X ",
"K L L J > % % ; &.:.-.;.# - 3 * X O . * v b b v x x m z - X X : m v v b j k k k v v v n -.:.<.-.5 O O : x v v v :.<.<.-.* . O X ",
"..] ] Q j k g x x N m m ;.=.*.&.3 o O 5 $.-.4.*.s w w e z k k x &.:.:.#., O @ 6 =.:.;.-.6.4.<.4.m k j v =.:.-.-.<.<.<.&.* O o X ",
"..Y ] T c v v g l j k m :.<.6.-.5 O O ; :.<.5.*.p a w w k k k v :.<.<.2.@ X O ; &.<.:.5.:.:.:.:.v k l b -.<.<.<.4.5.5.-.* X X O ",
"../ ..] x k v k v m g N :.<.<.=.* O O ; &.:.<.-.s w q w x v v v 2.5.5.2.: o O : ;.5.<.5.4.5.4.,.c k k v 2.5.<.4.5.<.5.-.* o X X ",
"Q Y T [ k m k v g k i k :.-.5.&.7 : ; 7 ;.5.4.-.d w w t j l k k &.:.;.&.6 < * 5 =.-.-.-.-.=.-.&.b v v b -.5.<.<.-.-.-.&.; * ; * ",
"x k c c g k x j : @ 1 : x b m M =.*.-.-.-.4.5.:.k j k k k k k v s s s a k x j y 5 1 5 5 5 ; 5 8 &.4.-.:.<.<.4.-.8 ; 3 : =.:.%.;.",
"x k k i v m k k O < O O j k y v :.:.,.4.5.5.5.:.b v k v k m m k w 9 q a i v m k 5 X O O O O O O :.5.4.:.<.:.<.-.5 X o @ ;.<.5.5.",
"g v l k x m v k < O O X x v v b ;.5.5.5.:.5.5.-.v v v v k k j v t q p s i v v g * O O O O O O 5 -.:.4.<.5.:.5.;.3 O O : 1.5.5.,.",
"b v l b g x j f ; - - : z k j k -.2.;.-.5.<.<.:.k j x j x v v v p q q q c x x k ; O - O * @ - 6 -.<.5.5.-.-.2.=.6 - * , %.5.2.=.",
"-.2.4.#.8 @ - 5 j x j g s w w w v v b n -.<.5.-.6 @ ; : z k v g : @ * 4 7.w.w.0.x j x x f x g x -.5.5.:.b v v b z x x j m b i v ",
"<.5.:.;.: O O O g v v m w q a a k k k k 2.:.:.=.5 o O O j v v g < @ X < 0.r.r.7.v k v v v m k v -.:.:.2.v x k v v x x v k m v v ",
",.2.5.;.# o O 1 g k k j w p a w k v c v 2.<.<.-.@ O < O j g v k O O O 3 9.w.w.q.k k v k v k v v 4.5.<.4.v m k v i v v v g k k x ",
":.5.<.-.6 < - 5 x m v k s w a d i v k v ;.,.:.=.6 5 5 : v v v k 5 5 3 7 9.e.q.q.m x m v m k k m =.&.:.-.v m v v k m v g m v y k ",
":.<.<.-.l k k k -.:.<.;.v k j k k v x m m v v b =.-.*.;.v x k m =.-.=.-.;.;.4.:.:.;.:.-.s a w a : : 3 : &.:.:.=.m k v k : 5 O : ",
"5.5.5.4.v k k v :.5.5.;.m v x m v k v k k l l v :.5.5.2.v k v v :.<.<.:.<.:.<.<.<.:.<.4.w q w q o < o : 2.5.5.2.m k k j * O O O ",
",.<.<.4.v i k v :.<.4.;.v v v v k v v k k v k v ;.5.<.2.b v v v -.5.5.5.5.5.5.5.<.5.5.4.e a w p O * O : 3.<.-.:.b k v k * * < o ",
"=.-.1.=.n i l m -.;.2.&.l y j k k k k x k j x v 2.-.2.2.g g z k -.4.-.:.4.;.4.:.*.;.;.#.t q a a * . o : #.2.2.=.M x c k 5 5 ; 3 ",
"6 5 # 6 g x m k v v n v 1 # 1 5 v v k g d w w w v v v v : O @ : x m m m m v m m h a d t k l i y 3 O < < : @ # 6 *.<.,.:.-.-.&.-.",
"X o X O x k k v x k m j @ X O O g v x x w a q w j k v j @ O O @ g v g x k v v v q w a w k k k v 5 O < < X O O 1 ;.5.4.5.5.<.<.5.",
"% X O - j k v x j l k j # O O ; g k l j w a a w k k v j * O O @ g m m x x x g x a w p q x k x y @   @ < X O O 7 =.5.4.5.5.<.<.<.",
"5 < 1 5 x v v k m k m j 5 ; 5 5 g k l j q a q q k v v x : ; ; 5 g k y y v v k k a 0 a a l v m y 5 * ; < 1 O O 1 &.4.:.:.&.=.=.-.",
"k k f v k v i k 0.w.0.0.;.=.;.=.7 @ ; 5 * O 1 < k k k v =.:.-.&.6 O ; : k l k k x g v g k k x v k g k g 3 < O - x m v x 7 5 5 5 ",
"v x k l v v k x w.r.r.9.4.5.4.=.: O O O O @ O # x k k v ;.<.5.-.1 O O O z v m k v k k v v k g v m v v x @ < o @ g v v x @ X O O ",
"k k i v v k c x 0.r.0.9.4.,.<.-.5 O O O O < O < g v v v :.<.<.;.; O O O g k x k k x x v k k v k g i v f O O o 5 v k v x @ O O O ",
"b v b v k x M k 0.r.0.7.4.4.:.:.5 O @ ; * * @ ; g l k v ;.,.5.;.6 O ; : l v v v v v m v v v m v M m m x 8 5 1 : g j j f 5 X * ; ",
"2.4.;.1.v v k v l x x $.-.5.4.-.v g g k g k g v k v k m ;.5.5.;.m j x x ;.2.2.-.2.-.;.;.:.;.-.:.:.:.-.:.=.&.;.&.5 @ X : q p p q ",
"4.5.5.4.v m k v k g k v 2.5.4.:.v v v v m v k v v l g m :.5.5.:.v k v v -.,.5.5.<.<.<.<.5.5.4.<.5.2.5.5.5.:.5.-.5 @ ; O a a w w ",
":.,.,.;.v x v v k v v b 4.,.:.<.m k k k k m x g v v k m :.<.5.-.v v v v 4.<.4.<.5.,.4.5.5.5.5.5.4.2.4.:.<.:.5.=.@ X O X w w q q ",
"5.<.5.2.v g k k k m x v 4.>.:.*.b k v v v m v m m v k M :.<.5.:.m k k m -.:.-.4.,.<.5.:.<.:.-.5.-.*.-.:.,.,.5.2.8 5 5 5 w a a a ",
"4.<.<.;.t p a w k k k m -.<.5.-.v v m m *.-.-.;.,.:.-.:.-.<.5.-.v v k j v m v M -.5.5.4.:.4.5.-.7 5 * 6 -.5.<.2.-.*.*.;.;.-.:.;.",
":.<.<.2.w q p w m k k m :.<.5.:.v k k v 5.5.<.5.<.4.4.4.:.:.5.-.m k m k v v k b -.<.-.<.<.<.:.=.- O o : *.,.<.<.4.:.4.:.<.5.<.<.",
"5.:.:.;.e e p q k k j v -.:.,.:.v k v v 4.:.:.<.5.:.5.5.4.<.5.,.m k k k k k k k <.<.:.<.<.5.5.2.7 O o : -.<.<.:.5.5.5.:.<.<.:.,.",
"3.3.4.1.e q q e v k k m -.<.<.-.v y g v 1.2.-.1.;.*.:.:.=.;.-.*.n v b b k k x v *.*.=.-.-.-.-.%.3 X o 5 =.4.:.-.:.;.;.-.:.>.:.:.",
"t 0 0 e w a a w k l k m :.<.5.:.v v m m t 0 0 d m b v x 6 : 1 7 =.2.2.=.v v k v 5 5 : 5 5 5 ; ; O @ O O v b v v f a a d k M m x ",
"p a w q a q a w g k k m -.<.5.-.v k v x w a a p k v k k O o X 5 *.5.<.4.v v g v O O O X O @ O O O @ O 5 k x z k w q a w k k k k ",
"a a w q a w w w v v v b :.5.5.;.v k m x w q a a v v v k @ < X 5 :.<.,.2.v x x y O X O O O O o < O O O 3 i m x v w a a a v i v x ",
"a a a e w q q q g v j v -.-.-.*.v k v j e s s a z g k f : O O 7 -.5.5.4.v x v k 7 ; 5 5 O 1 O O 4 @ - 5 y k v i q q p w k k v x ",
";.;.:.&.5 O 1 ; 0 w q a w a w f k v k v -.-.2.=.: O 3 # g g y x 2.,.5.4.v k c v *.;.1.%.; O O 3 y k y k k v k k : < < ; j v y k ",
"<.:.,.;.5 O O O q w q a q w q a g x m v ;.:.,.*.5 O < @ x v v M 2.,.,.4.v v l v :.<.5.:.5 @ O 5 g m x v k k l k @ o O ; x v k m ",
",.<.<.:.; O O ; q a a p q w q w v x m v 5.<.5.*.5 o o O k v v k -.5.<.4.v v k m 2.4.<.-.: O O @ v v v m v v k j ; X X @ x v k k ",
"2.;.2.#.5 o @ O q q p w e e w a k k v v =.2.5.=.6 @ : : g v v k -.2.;.2.v v k m 4.3.4.1.; X O < t k j g b v m v 6 @ 1 : j x v x ",
"w e t 0 < X 1 ; q w w w z j x x v v k k b v v v j k z f m k k m v v b b v k v k 7.w.e.8.2 O O O 1 @ O 9 #.:.4.&.x g x g m v g v ",
"s p w 9 4 O O O q w w w j v k v k v l k k k x x v v l v k m k m m x k k v v k k q.r.r.q.3 O O < O * X # -.<.5.:.x k m v k v v v ",
"p q a q < O @ * w w w w x k k v v k k v k x k k v k k v k k k k k x x x v k k c 9.r.r.0.3 O @ O O X o # ;.5.5.:.m k v g v m k v ",
"w q q 0 < O O O q p a a x k k k k k k k k v v k x v k v k k k l v k k k v v k c q.w.w.0.* O @ O < O < 1 &.:.5.;.m k v k x k x k "
};
