/* XPM */
static char * grass_block_xpm[] = {
"64 64 97 2",
"  	c #77A84C",
". 	c #79AA4D",
"+ 	c #73A448",
"@ 	c #709A4A",
"# 	c #729A48",
"$ 	c #77A84D",
"% 	c #6D9E4A",
"& 	c #6DA346",
"* 	c #6F9A47",
"= 	c #6A9B49",
"- 	c #6A9E44",
"; 	c #739A4A",
"> 	c #6D523B",
", 	c #6B5A3A",
"' 	c #6A4C35",
") 	c #664C35",
"! 	c #665135",
"~ 	c #669342",
"{ 	c #6B5135",
"] 	c #70583C",
"^ 	c #67523A",
"/ 	c #664C39",
"( 	c #6B4D3B",
"_ 	c #6A9E42",
": 	c #77A74A",
"< 	c #73A14F",
"[ 	c #718C49",
"} 	c #72523D",
"| 	c #698C4C",
"1 	c #714E3B",
"2 	c #79543D",
"3 	c #936A4E",
"4 	c #967154",
"5 	c #9D7354",
"6 	c #725137",
"7 	c #A17555",
"8 	c #664D2F",
"9 	c #9D7459",
"0 	c #745441",
"a 	c #9F7851",
"b 	c #9B714E",
"c 	c #6E5242",
"d 	c #C08F67",
"e 	c #CB9567",
"f 	c #CA966C",
"g 	c #C59366",
"h 	c #9C6E4E",
"i 	c #9A6F54",
"j 	c #946C52",
"k 	c #C5956B",
"l 	c #D19B72",
"m 	c #A27659",
"n 	c #9B795A",
"o 	c #CB9771",
"p 	c #D19B6E",
"q 	c #C7986D",
"r 	c #CD996D",
"s 	c #D89D73",
"t 	c #784F3D",
"u 	c #A57856",
"v 	c #977358",
"w 	c #A87A56",
"x 	c #A37960",
"y 	c #CC9A71",
"z 	c #8C6951",
"A 	c #8A654D",
"B 	c #8D684E",
"C 	c #BE916B",
"D 	c #7D583E",
"E 	c #7A5541",
"F 	c #866550",
"G 	c #8A6551",
"H 	c #86634D",
"I 	c #D1976B",
"J 	c #775844",
"K 	c #906651",
"L 	c #6D4E41",
"M 	c #734F41",
"N 	c #A4785A",
"O 	c #7A5943",
"P 	c #C38F68",
"Q 	c #856247",
"R 	c #C49671",
"S 	c #6F5449",
"T 	c #879594",
"U 	c #85999C",
"V 	c #84969A",
"W 	c #849BA2",
"X 	c #849897",
"Y 	c #88979B",
"Z 	c #8A9A9C",
"` 	c #C69970",
" .	c #926858",
"..	c #8B6647",
"+.	c #D19966",
"@.	c #8C9494",
"#.	c #675446",
"  . + .   @ @ @ . . . . . # @   . . . . . . . . . . . . @ # . . . . . . $ % . % . . . . . . . . & &     @ * * @ . . . . @ @   = ",
".   & . @ @ . # . . . . . # . . . . . . . . . . . . . . @ . # # . . . . $ . % . . . . . . . . . % - %   * = @ @ . . . .   $ @ * ",
"+ . + . * @ @ @ . . . . + * @ * . . . . . . . . . . . . * # ; . . . . . . % % . . . . . . . . .   - %   $ * * $ . . . .   @ $ @ ",
".   . . @ @ . @ . . . . . . . + . . . . . . . . . . . .   # # @ . . . . . . & % . . . . . . . . .         * * $ . . . . @ * - * ",
". . . .   .   . . . . . . . . . . . . . . . . . . . . .   @   . . . . . . . . . > , > , * =     . . . . . . . . . $ $ . . . . . ",
". . . . .   #   . . . . . . . . . . . . . . . . . . . .         . . . . . . . . > ' ' ) * - - - . . . . . . . . . $ . . . . . . ",
". . . .   . * @ . . . . . . . . . . . . . . . . . . . .         . . . . . . . . ! > ' ' ~ ~ - @ . . . . . . . . $ . . . . . . . ",
". . . . . @   . . . . . . . . . . . . . . . . . . . . .   $   . . . . . . . . . > ) ) { ~   - * . . . . . . . . . . . . . . . . ",
"&   - & . . . . , > > ,   . -     . . # ] ' { ! . . . . . . . . # . ; # , ^ { > ) ' / { = $ $ $ $ . . . . . . . . . . . . . . . ",
"&     - . . . . ) / ) ! - . & . . .   + { / ) ! @ . . . @ . . . # ; # ; { ( ' ' { { ' ' $ $ @ $ $ @     . . . . . . . . . . . . ",
"- _ - _ . . . . > ( ' !   & & . . + : + { ' ' > . . . . . . .   . ; # ; { ' ) / ) / / { < $   $ .     . . . . . . . . . . . . . ",
"&   -   . . . . ^ ' / { * . &   . + : # { / ' (   . . . . $ . . # ; # [ ! ( ' ( } > ' ] | < $       @   $ . . . . . . . . . . . ",
". . . . . . . @ > ' ' {   . .   . . . . } ( 1 ( > { ^ , . . . . 2 ' { { ' ' ' { 3 4 5 3 ] ' ' 6 > > ( ! > ! ! ^ > > ) , . . . . ",
". . . . . . . . > ' ' { . . . . . . . . , ( 1 ( ) ' / ! . . . . ^ ' ' ) ( ( ' ' 7 7 7 5 > ' ' / ) ( ' ) / ) ) ) ) ' ' { . . . . ",
". . . . . . . . ' / ' { @ . . . . . . . > ( ( ( ) ' / ' . . . . { 8 ' ' ) ' / { 5 9 5 4 ' ) ) ) ) ' ' ' ' ) ' ' ) ) ) > . . . . ",
". . . . . . . ; , 6 6 6 * .   . . . . . > } } 1 ( > ( , . . . . 0 / ^ > ( > ' > a 9 7 b 2 c 6 > ) ( ' ' ( > ( ( , } ( 0 : . . . ",
". $ $ @ > ^ ^ , d e f g } { , ( > ^ { > h 5 i h 5 5 5 j { > ! ] i 5 4 9 b 5 i b 7 5 5 7 k f f g } ( ( > j 5 5 5 f f f g > > , ( ",
". . ; @ > ( / 1 k l l k > / ) ' ) ' / ^ b m 5 m a 5 7 5 { ) ) > 5 7 5 9 5 9 9 7 7 5 n 7 o p l q 2 ( ( 2 i 7 5 7 r r l f > ) ) ' ",
"@ . . @ ' ' ) > f s r q ( ) ) { ' ' ' > h 9 4 9 7 5 7 4 ' ' ' ' j 7 5 5 5 5 5 5 5 5 9 7 o p p k 0 ( ( ( 9 7 9 m q r l f > ) ( ' ",
"% $ $ @ ] { { } g r f q t 6 c > ' ( ) > 7 u u 7 9 9 m v 6 ' ' 2 m 7 7 u 4 5 5 5 7 7 7 w f r p f 0 ( ( 2 9 7 7 7 r p p f > ) ( ' ",
". . . . 4 5 i 9 9 x m m q k e g c / ( 0 d f y e z A A B v 5 5 9 g r r C D ( 1 E k r q f s y p y m 5 4 7 k r f f p p p g > ( / ' ",
". . . . n 7 7 i a 4 5 m r p s f 0 ( ( } r p l e F G A A 5 5 5 7 r p p o 1 ' ( } g p r l r r r r 7 5 a u f p p p y l l f > ' ' ( ",
". . . . 9 5 7 5 7 m i x r p p k > ( ( } g r p f z A H A 9 7 7 7 o l l o 2 / ( 2 q l p l y l y I n 5 5 7 o l p y l p l f > / ' ' ",
". . . . 5 m 5 7 i 5 b 5 r f l g J 2 } J q l y f K A A 3 4 a 5 5 g r q g E L > 0 k f f f f k f g u 7 7 u f l p p f f f g } > } > ",
"9 5 n n i 5 9 4 2 1 M 2 9 u m N k e f f f y l r 5 4 5 5 5 5 5 7 z z z G 5 9 4 h 0 M 0 0 0 } 0 O g y f r p p y f O } c 2 k r P q ",
"9 5 5 b 7 m 5 5 ( L ( ( 4 5 h 7 r r I y l l l r u 7 5 7 5 m m 5 A Q H G b 7 m 5 0 ' ( ( ( ( ( ( r l y r p r p f 0 ' / 1 q p l l ",
"i 7 a 5 9 m 7 5 L ( ( ' 9 7 7 u q l l l r l l f 7 7 7 7 5 5 4 7 3 H F z b 7 7 i > ( ( ( ( ( ( 0 f r y p l r l q c ( ( 2 R l l I ",
"u 7 a u i 9 4 j } 6 6 2 v 5 4 5 f o q f l p p r 5 4 9 4 9 7 7 7 F H H H n 9 9 5 } ( 6 ( > 1 6 E f p l l f f o k E 6 > D P l o k ",
"f o y C O 1 6 0 4 9 4 i z A A A 7 7 u w f p l f E 1 } 2 v 5 7 i 2 1 > S T U U V 9 4 9 9 j 9 i 9 f l l r u 7 7 u v 9 9 4 m u b 7 ",
"p l r q 2 ( ( ( i 7 7 m A H G G 5 5 5 5 o r r k 0 / ( ( 4 7 7 i L 1 ' L V W W T 7 5 7 7 7 m 5 7 f r r o 7 9 5 7 7 9 9 7 5 m 7 7 ",
"I o l q t / ( M i 5 5 4 A F G A 5 7 n 7 o p p f 1 ( L ( 4 i 7 5 ( ( ( c X U U Y 5 5 7 5 7 5 7 7 y l p y 7 m 5 7 b 7 7 7 i 5 5 9 ",
"r l p f E L 6 0 9 m 7 5 z A G K b 7 5 7 q I r k E 0 0 2 7 7 7 5 0 0 c J X Z Y Y m 9 m 7 m 5 5 m k g r f 7 m 7 7 5 m 7 i m 7 h 5 ",
"r p p f a 5 5 5 f r p q 7 5 4 5 5 7 9 m m 7 7 u k f e q 7 9 5 m k f k f q q y r r q r f z G A G 2 2 c 2 g r r k m 5 7 5 2 0 ( 2 ",
"l l l y 7 5 5 7 r l l q m 7 9 m 7 5 7 5 5 a a 7 r l l o 7 5 7 7 r p p r p r p p p r p y A H A H / L / 2 o l l o m 5 5 4 > ( ( ( ",
"I p p y 7 b 5 7 r p y q 7 7 7 7 5 7 7 5 5 7 5 7 q l p o u 7 7 7 f l l l l l l l p l l y B G A F ( > ( 2 ` p f r u 5 7 5 > > L / ",
"k f R k w b a m f q o g a h 4 5 5 5 5 9 5 4 9 7 o f o o i i v 5 f y f r y q y r e q q C 3 H G G > ) / 2 C o o k N 9 n 5 0 0 } c ",
"E 0 t E i 9 m 5 7 7 w 7 M t M 0 7 7 5 i K A A A 7 7 7 7 2 ( 1 2 9 m m m m 7 m m  .G K 3 5 a b h c ( L L 2 1 t E e p I r f f g f ",
"' / ' ( 9 5 5 7 9 5 m 4 1 ' ( ( i 7 9 9 A G H A 4 5 7 4 1 ( ( 1 i 7 i 9 5 7 7 7 H A G A 5 5 5 7 0 ( L L ' ( ( M q l y l l p p l ",
"{ ' ( 6 4 5 7 9 4 a 5 4 t ( ( } i 5 a 4 A G G A 5 5 7 4 > ( ( 1 i m m 9 9 9 i 9 G A F H 9 5 9 h 1 8 1 L ' ( ( J k l y l l p p p ",
"0 L M 0 9 7 7 5 m 5 m 4 0 } 0 0 i 5 a 4 H G H H 5 7 7 9 2 } } 0 i 5 h h 7 7 5 5 G ..G G a 7 m h 0 > } L M ( ( M g y r r g k k f ",
"5 5 j 7 5 7 b 5 V U V V q k q k J 1 } 0 > ( M L 5 5 5 7 k r f g E ( } 2 5 a 5 5 9 i 7 i 5 5 9 7 5 i 5 i c L ( 6 9 m 7 9 J 0 0 0 ",
"7 9 5 a 7 7 5 9 U W W X y l y k 2 ( ( ( ( 1 ( t 9 5 5 7 q p l f M ( ( ( v 7 m 5 7 5 5 7 7 5 i 7 m 7 7 9 1 L / 1 i 7 7 9 1 ' ( ( ",
"5 5 b 7 7 5 n 9 V W V X y I p f 0 ( ( ( ( L ( L i 7 7 7 r p p q } ( ( ( i 5 9 5 5 9 9 7 5 5 7 5 i b 7 j ( ( / 0 7 5 7 9 1 ( ( ( ",
"u 7 u 7 5 9 N 5 V W V T y y r r 0 ( 1 } > > 1 } i a 5 7 q I l q E ( } 2 a 7 7 7 7 7 m 7 7 7 m 7 N m m 9 O 0 M 2 i 4 4 j 0 ' > } ",
"o y q R 7 7 5 7 a 9 9 d f l y f 7 i i 5 i 5 i 7 5 7 5 m q l l q m 4 9 9 q o o f o f q q r q f r r r f r k g q g 0 1 ' 2 H F F H ",
"y l l y 7 m 5 7 5 i 5 7 o l y r 7 7 7 7 m 7 5 7 7 a i m r l l r 7 5 7 7 f I l l p p p p l l y p l o l l l r l f 0 1 } ( G G A A ",
"r I I q 7 9 7 7 5 7 7 u y I r p m 5 5 5 5 m 9 i 7 7 5 m r p l f 7 7 7 7 y p y p l I y l l l l l y o y r p r l k 1 ' ( ' A A H H ",
"l p l o 7 i 5 5 5 m 9 7 y +.r e u 5 7 7 7 m 7 m m 7 5 N r p l r m 5 5 m f r f y I p l r p r f l f e f r I I l o O 0 0 0 A G G G ",
"y p p q 3 F G A 5 5 5 m f p l f 7 7 m m e f f q I r f r f p l f 7 7 5 4 7 m 7 N f l l y r y l f J 0 > E f l p o f e e q q f r q ",
"r p p o A H F A m 5 5 m r p l r 7 5 5 7 l l p l p y y y r r l f m 5 m 5 7 7 5 u f p f p p p r k 6 ( / 2 e I p p y r y r p l p p ",
"l r r q B B F H 5 5 4 7 f r I r 7 5 7 7 y r r p l r l l y p l I m 5 5 5 5 5 5 5 p p r p p l l o J ( / 2 f p p r l l l r p p r I ",
"` ` y R B H H B 7 5 5 m f p p f 7 h i 7 R o f R q e r r k q f e w 7 u u 5 5 9 7 e e k f f f f P c ' / 0 k y r f r q q f r +.r r ",
"3 ....B A G G A 5 a 5 m r p l r 7 7 m m 3 ....K m u 7 9 E 2 M J k o o k 7 7 5 7 0 0 2 0 0 0 } } ( 1 ( ( 7 u 7 7 j G G K 5 N m 9 ",
"F G A H G H G A i 5 5 m f p l f 7 5 7 9 A G G F 5 7 5 5 ( / ' 0 e l p y 7 7 i 7 ( ( ( ' ( 1 ( ( ( 1 ( 0 5 9 v 5 A H G A 5 5 5 5 ",
"G G A H G A A A 7 7 7 u r l l q 7 5 m 9 A H G G 7 7 7 5 1 L ' 0 r p I o 7 9 9 h ( ' ( ( ( ( / L ( ( ( c b m 9 7 A G G G 7 b 7 9 ",
"G G G B A H H H i 7 4 7 f f f e 7 5 7 4 B z z G v i 5 j 2 ( ( J f l l y 7 9 7 5 J } 0 0 ( M ( ( S 1 6 0 h 5 7 b H H F A 5 5 7 9 ",
"q q r g 0 ( M } ..A H G A G A j 5 7 5 7 f f o k 2 ( c t i i h 9 o I l y 7 5 n 7 e q R P } ( ( c h 5 h 5 5 7 5 5 2 L L } 4 7 h 5 ",
"p r I q 0 ( ( ( H A H G H A H G i 9 m 7 q r I e 0 ( L 1 9 7 7 N o I I y 7 7 a 7 r p l r 0 1 ( 0 i m 9 7 5 5 a 5 1 / ( } 9 7 5 m ",
"I p p r } ( ( } H G G F H A H A 7 9 m 7 l p l e 0 / / ( 5 7 7 5 f l p y 7 7 5 m o y p f 2 ( ( 1 7 7 7 m 7 7 5 4 } ' ' 1 9 7 5 5 ",
"o q o C 0 / 1 ( H H F A B B A G 5 5 7 7 k o l k E 1 2 2 i 7 7 5 f o q o 7 7 5 m y ` y R } ' ( L 3 5 4 i u 7 m 7 E 1 M 2 4 9 7 9 ",
"A B 3 ..L ' M } H A A A v 4 9 9 7 7 5 5 u 7 7 7 4 5 v j m 5 5 m 7 7 u u 7 5 7 5 T U Z @.#.( ( ( M 1 ( Q C r y g 9 i 9 i m 7 i 7 ",
"z F A Q S ( ( ( H A A A 4 7 5 7 5 7 a 5 5 5 9 9 7 7 a 7 5 m 5 m m 9 5 5 7 7 5 5 Y W W Y c ( ( L ( > ' t f p l r 9 5 m 7 5 7 7 7 ",
"F H G H L ( 1 > A A A A 9 5 5 7 7 5 5 7 5 9 5 5 7 5 5 7 5 5 5 5 5 9 9 9 7 5 5 n X W W V c ( 1 ( ( ' / t q l l r m 5 7 i 7 m 5 7 ",
"A H H ..L ( ( ( H F G G 9 5 5 5 5 5 5 5 5 7 7 5 9 7 5 7 5 5 5 a 7 5 5 5 7 7 5 n Y U U V > ( 1 ( L ( L M g r l q m 5 7 5 9 5 9 5 "};
