/* XPM */
static char * walltorch5_xpm[] = {
"32 37 140 2",
"  	c None",
". 	c #BB3200",
"+ 	c #BC3301",
"@ 	c #BD3402",
"# 	c #BE3502",
"$ 	c #BE3503",
"% 	c #C23907",
"& 	c #C33A07",
"* 	c #BF3704",
"= 	c #C13806",
"- 	c #C73E0B",
"; 	c #C83E0C",
"> 	c #C23906",
", 	c #BA3100",
"' 	c #C33A06",
") 	c #C63C08",
"! 	c #C93E0B",
"~ 	c #C63D09",
"{ 	c #C43B08",
"] 	c #C63D0A",
"^ 	c #CA400D",
"/ 	c #C93F0D",
"( 	c #CB4210",
"_ 	c #CC4311",
": 	c #CC4210",
"< 	c #CA410E",
"[ 	c #CB410E",
"} 	c #CB410F",
"| 	c #CC4514",
"1 	c #D14718",
"2 	c #D2491A",
"3 	c #D34B1C",
"4 	c #D24C1D",
"5 	c #D04919",
"6 	c #CD4413",
"7 	c #CC420F",
"8 	c #C5420F",
"9 	c #CF4A1A",
"0 	c #D65425",
"a 	c #DA592A",
"b 	c #DB5A2B",
"c 	c #D95728",
"d 	c #D45021",
"e 	c #CF4716",
"f 	c #AE3E06",
"g 	c #C84310",
"h 	c #D25A28",
"i 	c #DB763F",
"j 	c #E18148",
"k 	c #E17540",
"l 	c #DE6232",
"m 	c #D85426",
"n 	c #CC420E",
"o 	c #724006",
"p 	c #7C4007",
"q 	c #A93B03",
"r 	c #C74512",
"s 	c #D56F39",
"t 	c #E19D5A",
"u 	c #E8AD66",
"v 	c #E59455",
"w 	c #E06D3A",
"x 	c #DB5628",
"y 	c #754207",
"z 	c #744106",
"A 	c #7B4107",
"B 	c #9E3A04",
"C 	c #BF4613",
"D 	c #D58046",
"E 	c #E5B76C",
"F 	c #ECC576",
"G 	c #E5A460",
"H 	c #DC703C",
"I 	c #D95125",
"J 	c #794508",
"K 	c #784408",
"L 	c #7A4308",
"M 	c #8B3C06",
"N 	c #A84611",
"O 	c #CB8B4D",
"P 	c #E6C374",
"Q 	c #ECCB79",
"R 	c #DFA35F",
"S 	c #D16836",
"T 	c #C93F13",
"U 	c #814A0B",
"V 	c #7E480A",
"W 	c #7C4709",
"X 	c #7C4609",
"Y 	c #7C4408",
"Z 	c #86480E",
"` 	c #B28A4B",
" .	c #DEC273",
"..	c #E8C777",
"+.	c #D89F5C",
"@.	c #C45D2D",
"#.	c #BA2A00",
"$.	c #864F0D",
"%.	c #844D0D",
"&.	c #824B0C",
"*.	c #7F490A",
"=.	c #7D480A",
"-.	c #7B4609",
";.	c #97743B",
">.	c #C1A55F",
",.	c #D1B168",
"'.	c #C89152",
").	c #B75626",
"!.	c #89500E",
"~.	c #88500E",
"{.	c #874F0E",
"].	c #864E0D",
"^.	c #854D0C",
"/.	c #834C0C",
"(.	c #804A0B",
"_.	c #835620",
":.	c #926D35",
"<.	c #9C773E",
"[.	c #9B6934",
"}.	c #7F490B",
"|.	c #774308",
"1.	c #884F0E",
"2.	c #814B0B",
"3.	c #8A500E",
"4.	c #874E0D",
"5.	c #874F0D",
"6.	c #834B0C",
"7.	c #844C0C",
"8.	c #844D0C",
"9.	c #864D0D",
"0.	c #7E490A",
"a.	c #7A4608",
"b.	c #794608",
"c.	c #7A4609",
"d.	c #754307",
"e.	c #764307",
"f.	c #734106",
"g.	c #744107",
"h.	c #714006",
"i.	c #713F06",
"                                                  . . . . .     ",
"                                                . . . . . .     ",
"                                              . . . . . . . . . ",
"                                              . . . . . . . . . ",
"                                              . . . . . . . . . ",
"                                              . + @ # + . . . . ",
"                                              . $ % & * + . . . ",
"                                    @ @       # = - ; > + ,     ",
"                                    > ' ) ! ~ { ] ^ / % + ,     ",
"                                    ( ( _ _ : < [ } / > + ,     ",
"                                  | 1 2 3 4 5 6 7 7 / > +       ",
"                                8 9 0 a b c d e 7               ",
"                              f g h i j k l m 5 n               ",
"                          o p q r s t u v w x                   ",
"                        y z A B C D E F G H I                   ",
"                        J K L M N O P Q R S T                   ",
"                      U V W X Y Z `  ...+.@.#.                  ",
"                    $.%.&.U *.=.-.;.>.,.'.).                    ",
"                !.!.~.{.].^./.(.V _.:.<.[.                      ",
"                !.!.!.~.~.{.]./.}.-.|.z o                       ",
"              !.!.!.!.!.!.!.1.^.2.W K z o                       ",
"            3.!.!.!.!.3.3.!.~.]./.V J y                         ",
"          !.!.!.!.!.!.!.!.!.!.{.%.U                             ",
"        1.1.1.1.~.~.~.!.!.!.!.~.].                              ",
"      ].].].].].].].4.5.1.~.~.!.~.                              ",
"      /././.6./././.7.8.9.5.~.!.                                ",
"      *.*.0.0.V V 0.}.(.&.^.5.                                  ",
"      a.a.b.b.J J b.c.X V                                       ",
"      y d.d.d.d.d.d.e.|.J                                       ",
"      f.f.f.f.f.f.f.f.g.                                        ",
"    o o o o o o h.h.i.                                          ",
"o o o o o o o h.i.                                              ",
"o o o o o o o o                                                 ",
"o o o o o o o o                                                 ",
"o o o o o o o                                                   ",
"o o o o o o                                                     ",
"o o o o o                                                       "};
