/* XPM */
static char * walltorchflameani1_xpm[] = {
"32 32 117 2",
"  	c None",
". 	c #BB3200",
"+ 	c #BC3301",
"@ 	c #BD3402",
"# 	c #BE3503",
"$ 	c #BD3401",
"% 	c #C13805",
"& 	c #C43B08",
"* 	c #C23906",
"= 	c #C03806",
"- 	c #C73F0F",
"; 	c #CB4314",
"> 	c #C84010",
", 	c #C13907",
"' 	c #BE3402",
") 	c #CF491B",
"! 	c #D34F21",
"~ 	c #CF4A1C",
"{ 	c #C84011",
"] 	c #C13806",
"^ 	c #BC3300",
"/ 	c #BF3503",
"( 	c #C53B08",
"_ 	c #CC4414",
": 	c #D44F21",
"< 	c #D75527",
"[ 	c #D55122",
"} 	c #CD4616",
"| 	c #C63D0A",
"1 	c #C03704",
"2 	c #BB3100",
"3 	c #BF3400",
"4 	c #C63803",
"5 	c #CD400D",
"6 	c #D24A1B",
"7 	c #D55022",
"8 	c #D34E1E",
"9 	c #CE4615",
"0 	c #C93F0D",
"a 	c #BC3302",
"b 	c #BD3605",
"c 	c #C13C0D",
"d 	c #C84617",
"e 	c #CD4C1C",
"f 	c #CF4C1B",
"g 	c #CF4919",
"h 	c #CF4615",
"i 	c #CD4311",
"j 	c #CB410E",
"k 	c #C9461A",
"l 	c #CD5B2C",
"m 	c #D3753E",
"n 	c #D57C43",
"o 	c #D26A35",
"p 	c #CE4E1D",
"q 	c #CC400C",
"r 	c #CC410D",
"s 	c #D5582A",
"t 	c #DA7A43",
"u 	c #E1A15D",
"v 	c #E2AB64",
"w 	c #DA8D4F",
"x 	c #D05D2B",
"y 	c #CC3D08",
"z 	c #CF5D2E",
"A 	c #D8874C",
"B 	c #E5B66B",
"C 	c #EAC274",
"D 	c #E1A05C",
"E 	c #D56935",
"F 	c #D04312",
"G 	c #AC5524",
"H 	c #C0864A",
"I 	c #DCB86D",
"J 	c #EBC777",
"K 	c #E6A661",
"L 	c #DC713C",
"M 	c #D85425",
"N 	c #854B16",
"O 	c #A37C41",
"P 	c #CAAD65",
"Q 	c #E1BD70",
"R 	c #E3A35F",
"S 	c #DF7540",
"T 	c #804804",
"U 	c #7F4C0F",
"V 	c #916A32",
"W 	c #AD8E4F",
"X 	c #C19D5A",
"Y 	c #CE9152",
"Z 	c #D97640",
"` 	c #89500E",
" .	c #874E0C",
"..	c #864F0E",
"+.	c #88571C",
"@.	c #8C632C",
"#.	c #936B34",
"$.	c #A56F39",
"%.	c #854D0C",
"&.	c #7C4507",
"*.	c #75410A",
"=.	c #884F0E",
"-.	c #88500E",
";.	c #804704",
">.	c #844C0C",
",.	c #854D0D",
"'.	c #874F0D",
").	c #7A4609",
"!.	c #7B4609",
"~.	c #7D480A",
"{.	c #824C0C",
"].	c #734107",
"^.	c #744107",
"/.	c #754207",
"(.	c #724006",
"_.	c #714006",
":.	c #713F06",
"                                        . . .                   ",
"                                        . . .                   ",
"                                  . . . . . . .                 ",
"                                . . . . . . . . .               ",
"                                . . . . . . . . .               ",
"                                . . . . . . . . .               ",
"                              . . . . . . . . . .               ",
"                  . . . + . . . . . . . .                       ",
"                  . + @ # @ + . . . . .                         ",
"              + + . $ % & * @ . . . .                           ",
"              + + @ = - ; > , @ + . .                           ",
"          . . + ' % - ) ! ~ { ] ' ^ .                           ",
"          . . + / ( _ : < [ } | 1 +                             ",
"          . 2 . 3 4 5 6 7 8 9 0 * +                             ",
"            a b c d e f g h i j                                 ",
"              k l m n o p q r                                   ",
"              s t u v w x y                                     ",
"              z A B C D E F                                     ",
"              G H I J K L M                                     ",
"              N O P Q R S                                       ",
"            T U V W X Y Z                                       ",
"          `  ...+.@.#.$.                                        ",
"        ` ` ` ` %.&.*.                                          ",
"      =.=.-.` `  .;.                                            ",
"    >.>.>.>.,.'.`                                               ",
"    ).!.!.!.~.{.                                                ",
"    ].].].^./.                                                  ",
"(.(.(.(._.:.                                                    ",
"(.(.(.(.(.                                                      ",
"(.(.(.(.                                                        ",
"(.(.(.                                                          ",
"(.(.(.                                                          "};
