/* XPM */
static char * walltorch7_xpm[] = {
"32 37 188 2",
"  	c None",
". 	c #BB3200",
"+ 	c #BC3301",
"@ 	c #BD3402",
"# 	c #BC3402",
"$ 	c #BF3603",
"% 	c #C13806",
"& 	c #C23906",
"* 	c #BF3604",
"= 	c #BE3502",
"- 	c #C13805",
"; 	c #C43C08",
"> 	c #C53C09",
", 	c #BE3503",
"' 	c #C03703",
") 	c #C13804",
"! 	c #C33A07",
"~ 	c #C63D0A",
"{ 	c #C43B08",
"] 	c #C63C0A",
"^ 	c #C53B08",
"/ 	c #BA3100",
"( 	c #CB4413",
"_ 	c #CA4313",
": 	c #C73F0E",
"< 	c #C23908",
"[ 	c #C03705",
"} 	c #C53B09",
"| 	c #C03704",
"1 	c #C74113",
"2 	c #CE4A1B",
"3 	c #D04B1D",
"4 	c #CB4618",
"5 	c #C33C0D",
"6 	c #BE3604",
"7 	c #C43A08",
"8 	c #C33A08",
"9 	c #BD3401",
"0 	c #BE3606",
"a 	c #C64114",
"b 	c #D04E21",
"c 	c #D55225",
"d 	c #D04D20",
"e 	c #C54013",
"f 	c #BE3605",
"g 	c #C03908",
"h 	c #C84215",
"i 	c #D24F22",
"j 	c #D75527",
"k 	c #D35023",
"l 	c #C94417",
"m 	c #C13908",
"n 	c #BE3402",
"o 	c #C43D0C",
"p 	c #CB4517",
"q 	c #D45023",
"r 	c #D95628",
"s 	c #D65224",
"t 	c #CD4819",
"u 	c #C53D0C",
"v 	c #B83D08",
"w 	c #C54110",
"x 	c #CE4D1E",
"y 	c #D65C2D",
"z 	c #DB6533",
"A 	c #D85F2E",
"B 	c #D05021",
"C 	c #C94110",
"D 	c #C23805",
"E 	c #AF3B05",
"F 	c #C24413",
"G 	c #CF5C2B",
"H 	c #D97740",
"I 	c #DE854A",
"J 	c #DA7B43",
"K 	c #D1612F",
"L 	c #C84515",
"M 	c #C23704",
"N 	c #BF3502",
"O 	c #8A3C05",
"P 	c #A53604",
"Q 	c #BC4415",
"R 	c #CC6D38",
"S 	c #DB9555",
"T 	c #E3A762",
"U 	c #DD9958",
"V 	c #CF733D",
"W 	c #C5481B",
"X 	c #C03000",
"Y 	c #774207",
"Z 	c #833D06",
"` 	c #9B3504",
" .	c #B24617",
"..	c #C87942",
"+.	c #DDAA63",
"@.	c #E6BD71",
"#.	c #DFAC65",
"$.	c #CF7F46",
"%.	c #C34C20",
"&.	c #BD2700",
"*.	c #7B4608",
"=.	c #7F4107",
"-.	c #8E3C06",
";.	c #A34A19",
">.	c #C18148",
",.	c #DCB56B",
"'.	c #E8C776",
").	c #E1B269",
"!.	c #D28449",
"~.	c #C55023",
"{.	c #BE2A00",
"].	c #814A0B",
"^.	c #7F480A",
"/.	c #7E4609",
"(.	c #824308",
"_.	c #904E1A",
":.	c #B28347",
"<.	c #D7B76C",
"[.	c #E7C777",
"}.	c #E2B169",
"|.	c #D4844A",
"1.	c #C85223",
"2.	c #C03101",
"3.	c #864F0D",
"4.	c #844D0D",
"5.	c #824B0C",
"6.	c #7F490A",
"7.	c #845017",
"8.	c #A07A3F",
"9.	c #C5A861",
"0.	c #DABA6D",
"a.	c #DBA962",
"b.	c #D08146",
"c.	c #C55321",
"d.	c #89500E",
"e.	c #88500E",
"f.	c #864F0E",
"g.	c #864E0D",
"h.	c #844D0C",
"i.	c #834C0C",
"j.	c #824D11",
"k.	c #90682F",
"l.	c #A9884A",
"m.	c #BB9A57",
"n.	c #BF9050",
"o.	c #BA723B",
"p.	c #B34E1D",
"q.	c #874F0E",
"r.	c #854E0D",
"s.	c #844D0F",
"t.	c #85551C",
"u.	c #8C622B",
"v.	c #926B34",
"w.	c #956630",
"x.	c #945825",
"y.	c #824D0E",
"z.	c #7D490C",
"A.	c #7A480E",
"B.	c #78460F",
"C.	c #754209",
"D.	c #8A500E",
"E.	c #7E480A",
"F.	c #7A4508",
"G.	c #754207",
"H.	c #884F0E",
"I.	c #864D0D",
"J.	c #874F0D",
"K.	c #824C0C",
"L.	c #834B0C",
"M.	c #7E490A",
"N.	c #7F490B",
"O.	c #804A0B",
"P.	c #854D0C",
"Q.	c #7A4608",
"R.	c #794608",
"S.	c #794508",
"T.	c #7A4609",
"U.	c #7C4709",
"V.	c #754307",
"W.	c #764307",
"X.	c #784308",
"Y.	c #734006",
"Z.	c #734106",
"`.	c #744106",
" +	c #744107",
".+	c #724006",
"++	c #714006",
"@+	c #713F06",
"                        . . . . . . . . . . . . . . . .         ",
"                          . . . . . . + @ @ # + . . . .         ",
"                            . . . . + $ % & * + . . . .         ",
"                                  + = - ; > & , + . . .         ",
"                                  ' ) ! > ~ { - , @ . .         ",
"                                  ~ ] ^ ! ! { > ! $ + /         ",
"                                  ( _ : < [ ! ] } | +           ",
"                                1 2 3 4 5 6 - 7 8 | 9           ",
"                              0 a b c d e f = | |               ",
"                              g h i j k l m n @ @               ",
"                              o p q r s t u | @ +               ",
"                            v w x y z A B C D , +               ",
"                            E F G H I J K L M N                 ",
"                          O P Q R S T U V W X                   ",
"                        Y Z `  ...+.@.#.$.%.&.                  ",
"                        *.=.-.;.>.,.'.).!.~.{.                  ",
"                      ].^./.(._.:.<.[.}.|.1.2.                  ",
"                    3.4.5.].6.7.8.9.0.a.b.c.                    ",
"                  d.e.f.g.h.i.j.k.l.m.n.o.p.                    ",
"                d.d.d.e.e.q.r.s.t.u.v.w.x.                      ",
"              d.d.d.d.d.d.d.q.h.y.z.A.B.C.                      ",
"            d.d.d.d.d.D.D.d.e.g.i.E.F.G.                        ",
"          d.d.d.d.d.d.d.d.d.d.q.4.].                            ",
"        H.H.H.H.e.e.e.d.d.d.d.e.g.                              ",
"      I.I.I.I.g.g.g.g.J.H.e.e.d.e.                              ",
"      K.K.5.L.L.L.i.i.h.I.J.e.d.                                ",
"      6.6.M.M.E.E.M.N.O.5.P.3.                                  ",
"      Q.Q.R.R.R.S.R.T.U.E.                                      ",
"      G.V.V.V.V.V.V.W.X.S.                                      ",
"    Y.Z.Z.Z.Z.Z.Z.Z.`. +                                        ",
"    .+.+.+.+.+.+++++@+                                          ",
".+.+.+.+.+.+.+.+@+@+                                            ",
".+.+.+.+.+.+.+.+                                                ",
".+.+.+.+.+.+.+.+                                                ",
".+.+.+.+.+.+.+                                                  ",
".+.+.+.+.+.+                                                    ",
".+.+.+.+.+                                                      "};
