/* XPM */
static char * walltorch6_xpm[] = {
"28 32 133 2",
"  	c None",
". 	c #BB3200",
"+ 	c #BC3301",
"@ 	c #BE3502",
"# 	c #BD3402",
"$ 	c #BA3000",
"% 	c #BF3603",
"& 	c #C33A07",
"* 	c #BE3503",
"= 	c #BE3809",
"- 	c #C0390A",
"; 	c #C33C0B",
"> 	c #C73E0C",
", 	c #C53C09",
"' 	c #BF3604",
") 	c #C84519",
"! 	c #CB491D",
"~ 	c #CA4619",
"{ 	c #C63F0F",
"] 	c #C23906",
"^ 	c #CC420F",
"/ 	c #C93F0C",
"( 	c #C33A08",
"_ 	c #C33E10",
": 	c #CE4C20",
"< 	c #D55427",
"[ 	c #CF4D20",
"} 	c #C43E10",
"| 	c #BC3300",
"1 	c #CB420F",
"2 	c #CB4110",
"3 	c #C94012",
"4 	c #CB4417",
"5 	c #D24D20",
"6 	c #D65325",
"7 	c #D04C1E",
"8 	c #C63F10",
"9 	c #C03704",
"0 	c #BD3401",
"a 	c #C9420F",
"b 	c #CF4818",
"c 	c #D35123",
"d 	c #D65527",
"e 	c #D55224",
"f 	c #D24C1C",
"g 	c #CE4616",
"h 	c #CA4110",
"i 	c #C73E0B",
"j 	c #AF3B03",
"k 	c #C4400D",
"l 	c #CF5827",
"m 	c #DA753F",
"n 	c #DF7F46",
"o 	c #D86C38",
"p 	c #D04E1D",
"q 	c #CD410D",
"r 	c #CC420E",
"s 	c #A13403",
"t 	c #BB3C0A",
"u 	c #CD6B38",
"v 	c #DE9C5A",
"w 	c #E6AB64",
"x 	c #DD8D4F",
"y 	c #D15A28",
"z 	c #CD3D05",
"A 	c #7A4007",
"B 	c #953204",
"C 	c #AE3A08",
"D 	c #C87A43",
"E 	c #E1B56B",
"F 	c #EAC475",
"G 	c #DF9F5B",
"H 	c #D2622F",
"I 	c #CD3800",
"J 	c #7C4508",
"K 	c #863D06",
"L 	c #99400A",
"M 	c #BD8449",
"N 	c #E1C072",
"O 	c #ECCA79",
"P 	c #DFA25D",
"Q 	c #D16330",
"R 	c #CA3500",
"S 	c #814A0B",
"T 	c #7E480A",
"U 	c #7C4609",
"V 	c #83470D",
"W 	c #AA8246",
"X 	c #D8BD6F",
"Y 	c #E8C676",
"Z 	c #DE9F5C",
"` 	c #CF612E",
" .	c #C43601",
"..	c #88500E",
"+.	c #874F0D",
"@.	c #854D0D",
"#.	c #834C0C",
"$.	c #814B0B",
"%.	c #7F490B",
"&.	c #967137",
"*.	c #BB9E5A",
"=.	c #CEAC64",
"-.	c #CA9050",
";.	c #BF5B29",
">.	c #B63802",
",.	c #89500E",
"'.	c #874F0E",
").	c #854E0D",
"!.	c #87571F",
"~.	c #926B33",
"{.	c #9A733A",
"].	c #9A6630",
"^.	c #974C19",
"/.	c #884F0E",
"(.	c #7C4709",
"_.	c #774408",
":.	c #744106",
"<.	c #8A500E",
"[.	c #794508",
"}.	c #744107",
"|.	c #864E0D",
"1.	c #874E0D",
"2.	c #824B0C",
"3.	c #7B4709",
"4.	c #7B4609",
"5.	c #7C470A",
"6.	c #764307",
"7.	c #764407",
"8.	c #794408",
"9.	c #734106",
"0.	c #724006",
"a.	c #714006",
"b.	c #713F06",
"                                  . . . . . . . . . .   ",
"                                  . . . . . . . . .     ",
"                                  . . . . . . . .       ",
"                                  . . + @ # + .         ",
"                                  $ . % & & * .         ",
"                                  = - ; > , ' .         ",
"                                - ) ! ~ { ] @ .         ",
"                          ^ / ( _ : < [ } @ | .         ",
"                          1 2 3 4 5 6 7 8 9 0 .         ",
"                          a b c d e f g h i             ",
"                        j k l m n o p q r ^             ",
"                        s t u v w x y z                 ",
"                      A B C D E F G H I                 ",
"                      J K L M N O P Q R                 ",
"                    S T U V W X Y Z `  .                ",
"                ..+.@.#.$.%.&.*.=.-.;.>.                ",
"              ,.,...'.+.).#.!.~.{.].^.                  ",
"              ,.,.,.,.,./.@.$.(._.:.                    ",
"            ,.,.,.,.<.<.,.+.#.T [.}.                    ",
"        <.,.,.,.,.,.,.,.,./.@.S                         ",
"      /./././.......,.,.,...+.                          ",
"      @.@.@.@.@.@.|.1./...,.,.                          ",
"      $.$.S S S $.2.#.@.+...                            ",
"      (.(.3.3.4.3.5.T S                                 ",
"      6.7.7.7.7.7._.8.                                  ",
"      9.9.9.9.9.9.:.}.                                  ",
"    0.0.0.0.0.a.a.b.                                    ",
"0.0.0.0.0.0.0.b.                                        ",
"0.0.0.0.0.0.0.                                          ",
"0.0.0.0.0.0.0.                                          ",
"0.0.0.0.0.0.                                            ",
"0.0.0.0.                                                "};
