/* XPM */
static char * walltorch4_xpm[] = {
"32 37 149 2",
"  	c None",
". 	c #BB3200",
"+ 	c #BC3301",
"@ 	c #BE3502",
"# 	c #BD3402",
"$ 	c #BA3100",
"% 	c #BF3603",
"& 	c #C33A07",
"* 	c #C23907",
"= 	c #BE3503",
"- 	c #BD3401",
"; 	c #BD3503",
"> 	c #BE3606",
", 	c #C03909",
"' 	c #C43C0C",
") 	c #C83F0D",
"! 	c #C73D0B",
"~ 	c #C03705",
"{ 	c #BC3300",
"] 	c #C13704",
"^ 	c #C43C0B",
"/ 	c #C84416",
"( 	c #CC491D",
"_ 	c #CD481A",
": 	c #CD4413",
"< 	c #CA400D",
"[ 	c #BA3401",
"} 	c #BF3704",
"| 	c #C63D0B",
"1 	c #CC4515",
"2 	c #D34F21",
"3 	c #D75527",
"4 	c #D45022",
"5 	c #CE4616",
"6 	c #CA410D",
"7 	c #BE3806",
"8 	c #C53C0B",
"9 	c #CC4314",
"0 	c #D24A1B",
"a 	c #D65022",
"b 	c #D65324",
"c 	c #D14D1E",
"d 	c #CA4213",
"e 	c #C63D0A",
"f 	c #AA3E08",
"g 	c #C23F0B",
"h 	c #CD4617",
"i 	c #D45223",
"j 	c #D85728",
"k 	c #D14B1C",
"l 	c #C33B0A",
"m 	c #BF3604",
"n 	c #7D4007",
"o 	c #A63F06",
"p 	c #C44310",
"q 	c #D25A28",
"r 	c #DB763F",
"s 	c #DF7F46",
"t 	c #DA6E3A",
"u 	c #D25223",
"v 	c #C94111",
"w 	c #C03807",
"x 	c #754207",
"y 	c #7D4107",
"z 	c #A23C03",
"A 	c #C34511",
"B 	c #D5703A",
"C 	c #E19D5B",
"D 	c #E7AC65",
"E 	c #E29153",
"F 	c #D96634",
"G 	c #D24B1E",
"H 	c #794508",
"I 	c #7E4408",
"J 	c #9B3C05",
"K 	c #BB4612",
"L 	c #D37F44",
"M 	c #E5B66B",
"N 	c #ECC576",
"O 	c #E6A460",
"P 	c #DC703C",
"Q 	c #D75023",
"R 	c #814A0B",
"S 	c #7E480A",
"T 	c #7F4709",
"U 	c #8D4007",
"V 	c #A34710",
"W 	c #C38548",
"X 	c #E2BF71",
"Y 	c #EDCB79",
"Z 	c #E4A560",
"` 	c #D86C38",
" .	c #CE4719",
"..	c #864F0D",
"+.	c #844D0D",
"@.	c #824B0C",
"#.	c #80480A",
"$.	c #874A0F",
"%.	c #AA8144",
"&.	c #D6BA6D",
"*.	c #E6C475",
"=.	c #DFA05C",
"-.	c #D06330",
";.	c #C23C05",
">.	c #89500E",
",.	c #88500E",
"'.	c #874F0E",
").	c #864E0D",
"!.	c #854D0C",
"~.	c #834C0C",
"{.	c #804A0B",
"].	c #967037",
"^.	c #B99C58",
"/.	c #CBA962",
"(.	c #C88D4E",
"_.	c #BC5A27",
":.	c #AF3A02",
"<.	c #87571F",
"[.	c #926A32",
"}.	c #997239",
"|.	c #98642F",
"1.	c #944B18",
"2.	c #884F0E",
"3.	c #814B0B",
"4.	c #7C4709",
"5.	c #784408",
"6.	c #744106",
"7.	c #724006",
"8.	c #8A500E",
"9.	c #874E0D",
"0.	c #874F0D",
"a.	c #834B0C",
"b.	c #844C0C",
"c.	c #844D0C",
"d.	c #864D0D",
"e.	c #7F490A",
"f.	c #7E490A",
"g.	c #7F490B",
"h.	c #7A4608",
"i.	c #794608",
"j.	c #7A4609",
"k.	c #7C4609",
"l.	c #754307",
"m.	c #764307",
"n.	c #774308",
"o.	c #734106",
"p.	c #744107",
"q.	c #714006",
"r.	c #713F06",
"                                                    . . . . .   ",
"                                                    . . . . .   ",
"                                                  . . . . .     ",
"                                            . . . . . . .       ",
"                                          . . . . . . . .       ",
"                                        . . . . . . . . . .     ",
"                                      . . + @ # + . . . . . .   ",
"                                    $ $ . % & * = . .           ",
"                                  - ; > , ' ) ! ~ {             ",
"                                - ] ^ / ( _ : < &               ",
"                              [ } | 1 2 3 4 5 6                 ",
"                              7 8 9 0 a b c d e                 ",
"                            f g h i j b k d l m                 ",
"                          n o p q r s t u v w .                 ",
"                        x y z A B C D E F G                     ",
"                        H I J K L M N O P Q                     ",
"                      R S T U V W X Y Z `  .                    ",
"                    ..+.@.R #.$.%.&.*.=.-.;.                    ",
"                >.>.,.'.).!.~.{.].^./.(._.:.                    ",
"                >.>.>.,.,.'.).~.<.[.}.|.1.                      ",
"              >.>.>.>.>.>.>.2.!.3.4.5.6.7.                      ",
"            8.>.>.>.>.8.8.>.,.).~.S H x                         ",
"          >.>.>.>.>.>.>.>.>.>.'.+.R                             ",
"        2.2.2.2.,.,.,.>.>.>.>.,.).                              ",
"      ).).).).).).).9.0.2.,.,.>.,.                              ",
"      ~.~.~.a.~.~.~.b.c.d.0.,.>.                                ",
"      e.e.f.f.S S f.g.{.@.!.0.                                  ",
"      h.h.i.i.H H i.j.k.S                                       ",
"      x l.l.l.l.l.l.m.n.H                                       ",
"      o.o.o.o.o.o.o.o.p.                                        ",
"    7.7.7.7.7.7.q.q.r.                                          ",
"7.7.7.7.7.7.7.q.r.                                              ",
"7.7.7.7.7.7.7.7.                                                ",
"7.7.7.7.7.7.7.7.                                                ",
"7.7.7.7.7.7.7.                                                  ",
"7.7.7.7.7.7.                                                    ",
"7.7.7.7.7.                                                      "};
