/* XPM */
static char * walltorch3_xpm[] = {
"32 37 145 2",
"  	c None",
". 	c #BB3200",
"+ 	c #BC3301",
"@ 	c #BD3401",
"# 	c #BB3300",
"$ 	c #BF3603",
"% 	c #BF3604",
"& 	c #C03704",
"* 	c #BE3503",
"= 	c #BC3401",
"- 	c #C13805",
"; 	c #C33A07",
"> 	c #C43B08",
", 	c #C33A06",
"' 	c #BF3703",
") 	c #C23906",
"! 	c #C63C09",
"~ 	c #C83F0C",
"{ 	c #C93F0C",
"] 	c #C83E0C",
"^ 	c #C53C0A",
"/ 	c #CA400D",
"( 	c #C93F0D",
"_ 	c #C43A08",
": 	c #C13A0A",
"< 	c #C43D0D",
"[ 	c #C73F0E",
"} 	c #C9400E",
"| 	c #C13806",
"1 	c #C54013",
"2 	c #C94316",
"3 	c #CB4416",
"4 	c #CB4212",
"5 	c #C73E0C",
"6 	c #AF3808",
"7 	c #C0461A",
"8 	c #CA5023",
"9 	c #D05728",
"0 	c #D25627",
"a 	c #CE4B1C",
"b 	c #C73F0D",
"c 	c #C13704",
"d 	c #983704",
"e 	c #B23E0F",
"f 	c #C55B2B",
"g 	c #D16E3A",
"h 	c #D87942",
"i 	c #D97841",
"j 	c #D1602E",
"k 	c #C84211",
"l 	c #C23804",
"m 	c #783F06",
"n 	c #953704",
"o 	c #B24313",
"p 	c #C96C38",
"q 	c #D7874B",
"r 	c #DE9656",
"s 	c #DF9555",
"t 	c #D5743D",
"u 	c #CB4919",
"v 	c #C53A06",
"w 	c #754207",
"x 	c #774106",
"y 	c #8D3905",
"z 	c #A94717",
"A 	c #C77A42",
"B 	c #DA9C59",
"C 	c #E3AB64",
"D 	c #E4A862",
"E 	c #DA8348",
"F 	c #D15323",
"G 	c #794508",
"H 	c #7A4408",
"I 	c #853E07",
"J 	c #9B4A19",
"K 	c #BD8146",
"L 	c #D7A661",
"M 	c #E4B76C",
"N 	c #E6B168",
"O 	c #DE8C4E",
"P 	c #D45B2B",
"Q 	c #814A0B",
"R 	c #7E480A",
"S 	c #7D4709",
"T 	c #7F4409",
"U 	c #8B4D18",
"V 	c #AA7C42",
"W 	c #C8A25D",
"X 	c #DDB36A",
"Y 	c #E3AF67",
"Z 	c #DC8C4F",
"` 	c #D3602F",
" .	c #864F0D",
"..	c #844D0D",
"+.	c #824B0C",
"@.	c #7F490A",
"#.	c #814F15",
"$.	c #956F36",
"%.	c #AF8D4E",
"&.	c #C7A05C",
"*.	c #D2A05C",
"=.	c #CF8349",
"-.	c #C75D2D",
";.	c #89500E",
">.	c #88500E",
",.	c #874F0E",
"'.	c #864E0D",
").	c #854D0C",
"!.	c #834C0C",
"~.	c #814C10",
"{.	c #885A22",
"].	c #916831",
"^.	c #9D753C",
"/.	c #A7773F",
"(.	c #A76733",
"_.	c #804E17",
":.	c #80501B",
"<.	c #7F4A16",
"[.	c #884F0E",
"}.	c #814B0B",
"|.	c #7C4709",
"1.	c #784408",
"2.	c #744106",
"3.	c #724006",
"4.	c #8A500E",
"5.	c #874E0D",
"6.	c #874F0D",
"7.	c #834B0C",
"8.	c #844C0C",
"9.	c #844D0C",
"0.	c #864D0D",
"a.	c #7E490A",
"b.	c #7F490B",
"c.	c #804A0B",
"d.	c #7A4608",
"e.	c #794608",
"f.	c #7A4609",
"g.	c #7C4609",
"h.	c #754307",
"i.	c #764307",
"j.	c #774308",
"k.	c #734106",
"l.	c #744107",
"m.	c #714006",
"n.	c #713F06",
"                                            . . . . . .         ",
"                                        . . . . . . . .         ",
"                                    . . . . . . . . . .         ",
"                                    . . . . . . . . . .         ",
"                                  + @ @ + + # . . . .           ",
"                                  $ % & % * = # . .             ",
"                                * - ; > > , '                   ",
"                                % ) ! ~ { ]                     ",
"                                % ) ^ ~ / ( _                   ",
"                                  : < [ } ] | +                 ",
"                                  1 2 3 4 5 - +                 ",
"                              6 7 8 9 0 a b c +                 ",
"                            d e f g h i j k l                   ",
"                          m n o p q r s t u v                   ",
"                        w x y z A B C D E F                     ",
"                        G H I J K L M N O P                     ",
"                      Q R S T U V W X Y Z `                     ",
"                     ...+.Q @.#.$.%.&.*.=.-.                    ",
"                ;.;.>.,.'.).!.~.{.].^./.(.                      ",
"                ;.;.;.>.>.,.'.!.~._.:.:.<.                      ",
"              ;.;.;.;.;.;.;.[.).}.|.1.2.3.                      ",
"            4.;.;.;.;.4.4.;.>.'.!.R G w                         ",
"          ;.;.;.;.;.;.;.;.;.;.,...Q                             ",
"        [.[.[.[.>.>.>.;.;.;.;.>.'.                              ",
"      '.'.'.'.'.'.'.5.6.[.>.>.;.>.                              ",
"      !.!.!.7.!.!.!.8.9.0.6.>.;.                                ",
"      @.@.a.a.R R a.b.c.+.).6.                                  ",
"      d.d.e.e.G G e.f.g.R                                       ",
"      w h.h.h.h.h.h.i.j.G                                       ",
"      k.k.k.k.k.k.k.k.l.                                        ",
"    3.3.3.3.3.3.m.m.n.                                          ",
"3.3.3.3.3.3.3.m.n.                                              ",
"3.3.3.3.3.3.3.3.                                                ",
"3.3.3.3.3.3.3.3.                                                ",
"3.3.3.3.3.3.3.                                                  ",
"3.3.3.3.3.3.                                                    ",
"3.3.3.3.3.                                                      "};
