/* XPM */
static char *_83e53ed225e4bdaae1c4cb7a4d1d1a1pJ6wtGAplQgAA9oS[] = {
/* columns rows colors chars-per-pixel */
"64 64 98 2 ",
"   c #4C3C25",
".  c #4D3D26",
"X  c #503F27",
"o  c #514028",
"O  c #514128",
"+  c #5B482D",
"@  c #5E4B2F",
"#  c #5F4C2F",
"$  c #665233",
"%  c #675233",
"&  c #695434",
"*  c #695435",
"=  c #695535",
"-  c #6B5635",
";  c #6B5636",
":  c #6C5636",
">  c #6D5837",
",  c #6E5A38",
"<  c #6F5B38",
"1  c #705A38",
"2  c #715B38",
"3  c #725B39",
"4  c #725C38",
"5  c #735C3A",
"6  c #735E3B",
"7  c #735F3B",
"8  c #745D3A",
"9  c #755E3B",
"0  c #745F3B",
"q  c #775F3B",
"w  c #75603B",
"e  c #76603B",
"r  c #78633D",
"t  c #79633D",
"y  c #7C633D",
"u  c #7A643D",
"i  c #7C653F",
"p  c #7C663F",
"a  c #7E683F",
"s  c #7D6640",
"d  c #7E6740",
"f  c #816840",
"g  c #806941",
"h  c #826840",
"j  c #836B42",
"k  c #856B43",
"l  c #856C43",
"z  c #957C49",
"x  c #977D4A",
"c  c #9B814B",
"v  c #9B814C",
"b  c #9C824C",
"n  c #9D824C",
"m  c #9F844E",
"M  c #A0844E",
"N  c #A1864E",
"B  c #A2874E",
"V  c #A4874F",
"C  c #A3884F",
"Z  c #A38750",
"A  c #A68653",
"S  c #A38850",
"D  c #A58850",
"F  c #A58950",
"G  c #A88B52",
"H  c #A88B53",
"J  c #AE8C57",
"K  c #AF8C57",
"L  c #AD8C58",
"P  c #AF8D58",
"I  c #AE8C59",
"U  c #AE8D59",
"Y  c #B08D58",
"T  c #B18E58",
"R  c #B18E59",
"E  c #B18F59",
"W  c #B28F59",
"Q  c #B39159",
"!  c #B2905B",
"~  c #B6935A",
"^  c #B6935B",
"/  c #B4925C",
"(  c #B7935D",
")  c #B7945D",
"_  c #B9945C",
"`  c #B8955C",
"'  c #BA955D",
"]  c #B8945E",
"[  c #BB985F",
"{  c #BC985F",
"}  c #BC9860",
"|  c #BC9960",
" . c #BE9961",
".. c #BF9A61",
"X. c #C09B62",
"o. c #C19B62",
"O. c #C19C62",
"+. c #C19C63",
/* pixels */
"X.X.X.} D N N N N N N N N N N N N N N V } O...O.X.X.X.{ _ ) ) ) C m C V | O...O.X.O.X.X.X.X.X.X.X.X.X.X...O.X.X.X.X.O.} D N N N ",
"X.X.X.} D N N N N N N N N N N N N N N C } O.X.X.X.X.O.X._ _ _ ~ C C V D | ..O...+.} O.X.X.X.X.X.X.X.X.X.X.X.X.X.X.X.} } D D N N ",
"X.X.X.} D C N N N N N N N N N N N N N C } O.} O.+.} X.X.~ _ ^ ) C N N V | O...+.X.O.O.O.X.O.X.O.X.O.X.X.X.O.O.X.X.X.X.{ D N N N ",
"X.X.O.} D D D D S D S S n v n n V V V G { X.X.X.} { { { ^ ^ ^ Q N N N V | | | | } | | | } X.X.} } } } } X.} X.} X.X.X.{ D N N N ",
"X.X.X.X.} } { { ^ ^ ^ J g t t g J ^ ^ ^ _ ` ~ ^ D D C V D S D C N N N N S D D D C D D D _ _ _ ^ G A D D _ _ _ [ } X.+.} D N N N ",
"X.X.X.X.X.O.X.X._ _ _ Y i 6 0 i T ` ^ ` _ ` ) ^ D D C m N C N N N N N N N N m C m C C C ^ ^ _ ^ C V N S ~ _ ) _ X.O.X.} D N N N ",
"X.X.X.X.X.X.X.X._ ) _ Y i 0 6 i T ` ^ ^ ( ` ) ^ S C m C N N N N N N C N C C C m V N V V ^ ^ _ ^ C N N S ) _ ) _ X.X.| | D N N N ",
"X.X.X.X.X.X.X.} ^ ^ ^ J g t t g J ^ ^ ^ ^ ^ ( Q D D D S S S D S D C D C C D D C D D D V ^ ^ ^ ^ n v n n Q ( _ [ X.X.O.| D N N N ",
"X.X.O.X.X.X.} } V D S N n n v n S S S D D S D D Q ~ ) ~ ~ ~ ~ ~ [ } ..| | | | | } } } } _ _ _ J 0 3 : d ] X.X.o.X.X.} } D S N N ",
"X.X.O.} X.X.X.X.S V N N N N N N m C N N N N N D ~ _ ~ ) ) ) ~ ) } O.O.| +.....+...+.+.} _ _ _ J 8 & * 3 { o.X.X.X.X.} } D D N N ",
"O.O.X.X.X.O.X.} D N N N N N N N S m N N N N N S ) ~ _ _ ` ` ) [ ..O.O.O.} +...| +.} X.O.] ] ] K 3 * * 0 W X.X.X.X...+.| D N N N ",
"] ] ( ] ] _ _ T n v v v n v n v b v b b n v n n U Y Y Y U T U U ) ) ) _ ( ( } ( ) ( ( ( Y K T A 3 * & 3 I } Y } _ ( _ ( m v n n ",
"6 6 6 6 w w 6 0 2 2 2 w t t t t r r t t t r t r t s t d d d d s d d d s s s s s e 0 6 6 0 0 0 3 : : & : 0 7 0 6 s s d e t t t t ",
"= & & & & = & & = = & = 6 6 w w 7 w w e w w w w e w w e < w w 6 7 w 7 7 7 7 7 7 = = & & & & : & * * = = * * * * < e e 7 7 e w e ",
"& & : & = = = = = = = = 0 w w 6 e w e w w < w 6 6 w w 7 w w w w 7 7 7 7 0 e e w = = = = & & = = * & & = % = = = w 7 7 7 7 7 e w ",
"8 0 0 0 2 2 2 2 2 2 > 6 t t t t r t t t s s s d t a s t t r t t s s s s t e r e 0 3 3 3 : : : : 8 8 8 0 3 7 7 w e s s s s s s s ",
"W ] ] W n n x v c v x v v n n v n v v m ( ) ) ) _ _ ) ( n v v m / _ ) _ n n c n x n x x w 6 0 t A I J J J J J Q T J U T ( ` ] ( ",
"o.X.X.} A V N N N N N N N N N N N N N D [ O.X.O.X.X.+.| Z Z S D | +.} } V N N N N N C n t 0 w i Y { ] ] _ _ _ _ _ ` _ ~ X.O.X.X.",
"o.o.X.} D N N N N N N N N N N N N N N D { X.X.X.X.X.+.} A m N D } X.O.} V A N N N N N n t 0 0 i J _ _ _ ) ) _ ) _ ^ _ _ } O.X.X.",
"} } { } D N N n c n n n N D D S S D Z G { X.X.} X.X.O.} V C N D } } O._ D C V N V V N N g t i g J ^ ^ ^ Q ~ ) ~ ^ ^ ^ ^ } } { { ",
"D C D D S N N n a t w f J ^ ^ ^ ) ~ ~ ~ _ _ _ [ X.X.X._ D N N D ` _ | ^ ^ ^ ^ ^ ~ ~ ) ~ T T T J V V V V D D D D D D D D D C D D ",
"C N C N N N m v t 6 w i T _ ^ _ ^ _ ) ) _ _ ) _ X.X.X.} D N N S ~ _ ( ` ` ) ^ ` _ _ ) ~ ` ` ` ^ V N N N N C N N N N N N C N C C ",
"N N N N N N N n i 0 0 i T ^ _ ] ) ~ ~ _ _ ) ) _ } O.} | D N N D ^ ^ ` ( _ ( _ ~ ` ) ~ _ ` ( _ ] V N N V N N N N N N N N N N N N ",
"D C D D D C S m g i y j T _ ] _ _ _ [ _ _ _ _ [ X.O.X.| D N N S Q ^ ^ ^ Q ~ ) ~ T Y Q Y ( _ ( ] V A V V V D D D D D D D D D C C ",
"| } } } } } } } _ ( ) ) _ _ _ _ } } O...} X.X.} X.X.X.} D N N N N V V D D V S m g d d g ] } X.{ } } } } o.] } o.} } { } } } } } ",
"O.....O...+.+...+.+.X.+._ _ _ _ O.O...O.X.{ X.X.o.X.X.} D N N N N N N N C m N n t 6 6 d ] X.X.X.+.o.X.} X.X.X.X.O.} X.X.X.X.X.X.",
"..+.O...} ......+.} O.X.] ] ] ] X.} O.O.o.o.X.X.X.{ +.} D Z N N N N N N N N N n t 0 6 d { X.} } +.+.} X.X.X.X.X.O.O.O.X.X.+.X.X.",
"_ ) _ _ ( ( } ( ) ( ( ( Y K Y Y _ ( ) ) ] ] ] ] ] ] ] ] n n n n c c n n n c n x 0 6 3 d Y ] { ( ] _ ( ( ( _ ] ] _ ) ) ) ( ) _ _ ",
"d d s s s s s t e 0 0 0 0 8 8 8 7 0 0 6 0 0 0 8 0 0 0 0 t y t t t t t r t t t w : : : : 0 0 3 8 0 0 0 6 6 6 0 0 d d s s d d d s ",
"7 7 7 7 7 7 7 7 = = & & & & * * * = * & & & * & * * & : 6 0 0 0 w 6 w 6 6 w w w : * = : * * * * & & & & * * & & 7 , 7 5 7 7 7 7 ",
"7 7 7 7 7 7 7 7 = * * & & * & * * * & & : & * : : & * = 3 0 6 0 w w 6 6 w w w 6 : * * * * * & & & & & : * * * * , 0 7 7 0 0 7 0 ",
"d s s s s s s s 7 0 0 0 q 8 8 8 6 0 0 3 : : : : 2 3 3 3 i i i d s s d d d t i t 3 8 8 8 8 0 8 8 8 8 0 0 7 7 7 7 d d d d d t t t ",
") _ ) ) ) ) ) ` ) _ ) _ ) ) ) ) ) ) ( U e 7 w t x v n n Y _ ] _ ) ) _ ) Y U / U T J J J J K Y Y _ ) ) ( ) ) ) ) _ ) _ ( n v v v ",
"O.O...O.O.O.O.O...+.} O.} O.O.O.} +.} } d e 7 t c C N D { X.X.X.....O.+._ _ _ _ _ ` _ _ _ _ _ _ } O.O.X.O.+.} +.+.+.X.} D N N N ",
"..+...+...O...O...+.} O.X.X.O.X.O.+.} _ s 7 e t v m V D } O.X.X...+...} ~ ^ _ ) ^ ^ _ ( _ _ _ _ X.X.X.X.O.O.O.} } +.+.| D N N N ",
"| | | | | | [ ....} { { { X.} } } } | ( g s d d N N D D { X.X.X.| | } } ) ^ ) ~ ^ ) ~ ^ T T J T } X.X.X.} } } | } } } | D N N N ",
"D D D D V V D C S S S D D D D C D D D D _ _ ) _ ) ^ ^ ^ ` ` _ ^ D D D D C C V D V D D n g i i l _ O.O.} G D D D C C C C S m C m ",
"S m m S m C V m S S m S N N C m S m C H } O.+.| _ ) ^ ^ ^ ` ` ^ D N N N N N N N N N N n t 0 0 i ) O.X.} D N N N C N N N m C m C ",
"C C S m C m m C C C S m N N N N C S C S } O.O.+.` ^ _ _ ` ` ] ( D N N N N N N N N N N n t 0 0 i } X.X.} D D N N N N N N N N C m ",
"C H D C D S C C C S D S D D D N D D D S } } O._ ^ ^ ) ~ Y ^ ^ Q S N N N N N N N V V N M g i i j ( } } } D D S D V C C C N C m C ",
"[ [ } } ) ~ ) Q ~ ~ ) ) Q ^ ^ ^ [ | } } +.O.X.} G A V V D D S C N N N N N N N S Q ~ ~ Q W T T T _ ` _ _ ^ ^ ^ _ ~ ) ^ T N N N N ",
"....O.O._ ) ) ) ) _ ^ ~ ` ^ _ _ | ..} O.+.O.O.} N N N N m C N N N N N N N N N D ) ) _ _ ` ) ` ` ^ _ _ _ ^ _ ^ _ _ ~ ) ~ V N N N ",
"O.O.O.[ ` ` ` ` ) _ ) ( _ ` _ _ O.O.O.} O.O.O.} V N N V C N N N N N N N N N m S ~ ~ _ _ ) ) _ _ _ _ _ _ _ _ ] ] _ ` ` ~ C N N N ",
") ) ) ) T J T J Q J J U T J T T ) ) ) ) ) ( ( / n n n x c c n v n v n v v n v N U T T U E Q U U J T K K J J Y Y Y U T J N n c c ",
"d d d y w w 6 0 t d t d i i d i w 6 6 6 6 6 w 6 3 3 2 3 t t t t t t t t t t t t i i t t a d d e 0 0 0 8 0 0 0 8 0 0 0 0 t t t y ",
"6 6 0 0 : & & & 6 6 w w 0 6 6 3 : & & & = = & = * & = = 7 e 7 7 w w w w w w 6 w w w 6 w w w w 6 = & & & & = & & & & & : 6 0 0 0 ",
"6 6 0 2 - & & & 6 6 0 6 0 0 0 3 = & & & = = & & * & = = 7 7 w w w 6 w w w w w w 6 w w w w w w < & & & & : * & & & & * = 0 0 0 6 ",
"s d h y 0 0 0 e t d d d d d f i 6 0 3 6 3 3 3 3 8 0 0 7 t t t t t t t t t r r r t t t r r r r r 0 8 8 8 : : : & 8 0 0 0 t d i i ",
"( _ } ( ) ) ) ( ) ) _ ) ) _ ) ) ) ) ) / m v v n Q ) ) / m v v v x n n n n v n n v n v n n v v N Y ] ] J t w w r L ) _ ) ) ) ) ) ",
"} O...} O.O.O.O.O.} X.X.X.X.X.+.O.+...| S m C D | O.} | D N S N N N N N N N N N N N N N N N N D X.X.X.] d e w s | } +.+.+.....+.",
"+.} +...X.O.O.| O.O.O.X.X.X.X.X.+...+.| S C m D } O.} } D N N N N N N N N N N N N N N N N N N D } X.X.] t e w d ) } X.+...+.+...",
"+.} ..+.} | | | _ ) ( ) } X.X.X...O...| H D C H } O.+.} D N N N D D D Z Z Z C C Z Z Z S N N N D ] } { ^ g t t d / | } } +...| +.",
"] ] _ _ D D D m t 8 0 y _ +.X.X...+...+.} } } } O.} ..} D Z N S _ } } } _ ~ ) ~ ^ ( ^ Y S N N N V V C C m c c n D D D D _ ~ _ _ ",
"_ _ ~ Y S S m v 3 & * 0 ) +.X.X.+...+...O...+.+.+.+.+.} D N S D } O.O.X._ ~ ~ _ _ _ ) ~ S N N N V A C m N N N N C N S S ( ( ) _ ",
"_ _ _ _ S S N v 2 & = 0 ) O.X.X.....O.+.O...+...O...+.} D N N D { X.} X._ [ _ _ _ ~ ~ ) D N N N m V N C N C m C m C S S ~ _ _ ) ",
"_ _ _ ] D D D m 6 2 , t ( } } } | ..} } ..+...+.O.O...} D N N D } X.O.X._ ) _ ~ ) Q ^ Q D D D C V V V D V D V D D C D D ) _ _ _ ",
"..+.| +.} } | ( n x x n N D D D A V V H } O.+...+.X.X.} V N V V } O.O.+.} } O.} D D D D Q ^ ~ ~ } } } } ] X.} } } } } } O.O.X.} ",
"+...+...O.O.X.| V V N N D N N N N N N V } O.....X.+.} } V N C A | O.+.} +.O.O.} S N S S ^ ] ) _ } X.+.} X.X.X.X.O.} O.} O.} O.+.",
"..+...+.O.} O.| A N N N N N N N N N N V } } O...O.O.O.| D C V V | } O.O...+.O.} D N N A ^ _ ( ) X.+.o.X.X.o.X.X.O.O.O.O.X.X.X.X.",
"( } ) _ _ _ ( / N n c n n n n n n x n n _ ) _ ) } _ ) Q m c x n ) ) _ ) ) ) ) _ m c n n J T J Q Y ( ^ Y _ ] ] ] ) ) ) ) _ ) _ _ ",
"s s s s i d d d e i t i g g h i 0 3 3 3 0 6 0 q g k k g e 3 3 0 d d d d d d s t d t t t s d d e # + + @ 8 6 6 6 q 0 0 q d d d s ",
"7 7 6 6 0 0 0 6 w 0 0 0 i y i y : & * * & : & : t y d y = = = = 7 7 7 0 7 e w e 0 7 0 7 7 e e , o .   X $ & & * * * * = 7 7 7 7 ",
"w 6 6 6 0 0 0 0 e w q w y y i y : * & : & : * : q t y y , = * ; 5 7 7 0 7 0 7 7 0 0 7 7 7 7 0 , X . X X $ & : & & & = : 7 5 7 7 ",
"6 w 6 w 0 0 0 0 0 0 0 0 y y y y : : * & : & : : y d y y = = * * 5 7 0 0 7 7 7 7 7 0 7 7 7 7 e , o   X X & : & : & : = = 7 7 7 7 "
};
